NotoSans-Condensed.ufo
<glyph name="exclam" format="2">
  <advance width="235"/>
  <unicode hex="0021"/>
  <outline>
    <contour>
      <point x="148" y="201" type="line"/>
      <point x="166" y="714" type="line"/>
      <point x="68" y="714" type="line"/>
      <point x="87" y="201" type="line"/>
    </contour>
    <contour>
      <point x="64" y="55" type="curve" smooth="yes"/>
      <point x="64" y="13"/>
      <point x="83" y="-9"/>
      <point x="118" y="-9" type="curve" smooth="yes"/>
      <point x="149" y="-9"/>
      <point x="172" y="11"/>
      <point x="172" y="55" type="curve" smooth="yes"/>
      <point x="172" y="100"/>
      <point x="151" y="119"/>
      <point x="118" y="119" type="curve" smooth="yes"/>
      <point x="82" y="119"/>
      <point x="64" y="97"/>
    </contour>
  </outline>
</glyph>
<glyph name="quotedbl" format="2">
  <advance width="379"/>
  <unicode hex="0022"/>
  <outline>
    <contour>
      <point x="152" y="714" type="line"/>
      <point x="58" y="714" type="line"/>
      <point x="75" y="456" type="line"/>
      <point x="136" y="456" type="line"/>
    </contour>
    <contour>
      <point x="322" y="714" type="line"/>
      <point x="228" y="714" type="line"/>
      <point x="245" y="456" type="line"/>
      <point x="306" y="456" type="line"/>
    </contour>
  </outline>
</glyph>
<glyph name="numbersign" format="2">
  <advance width="460"/>
  <unicode hex="0023"/>
  <outline>
    <contour>
      <point x="353" y="449" type="line"/>
      <point x="443" y="449" type="line"/>
      <point x="443" y="513" type="line"/>
      <point x="360" y="513" type="line"/>
      <point x="385" y="714" type="line"/>
      <point x="324" y="714" type="line"/>
      <point x="299" y="513" type="line"/>
      <point x="200" y="513" type="line"/>
      <point x="225" y="714" type="line"/>
      <point x="162" y="714" type="line"/>
      <point x="138" y="513" type="line"/>
      <point x="42" y="513" type="line"/>
      <point x="42" y="449" type="line"/>
      <point x="130" y="449" type="line"/>
      <point x="110" y="282" type="line"/>
      <point x="19" y="282" type="line"/>
      <point x="19" y="217" type="line"/>
      <point x="102" y="217" type="line"/>
      <point x="76" y="0" type="line"/>
      <point x="137" y="0" type="line"/>
      <point x="163" y="217" type="line"/>
      <point x="262" y="217" type="line"/>
      <point x="235" y="0" type="line"/>
      <point x="298" y="0" type="line"/>
      <point x="325" y="217" type="line"/>
      <point x="420" y="217" type="line"/>
      <point x="420" y="282" type="line"/>
      <point x="333" y="282" type="line"/>
    </contour>
    <contour>
      <point x="172" y="282" type="line"/>
      <point x="192" y="449" type="line"/>
      <point x="291" y="449" type="line"/>
      <point x="270" y="282" type="line"/>
    </contour>
  </outline>
</glyph>
<glyph name="dollar" format="2">
  <advance width="429"/>
  <unicode hex="0024"/>
  <outline>
    <contour>
      <point x="190" y="52" type="curve"/>
      <point x="190" y="-58" type="line"/>
      <point x="239" y="-58" type="line"/>
      <point x="239" y="56" type="line"/>
      <point x="335" y="72"/>
      <point x="390" y="135"/>
      <point x="390" y="222" type="curve" smooth="yes"/>
      <point x="390" y="308"/>
      <point x="340" y="350"/>
      <point x="239" y="392" type="curve"/>
      <point x="239" y="607" type="line"/>
      <point x="283" y="604"/>
      <point x="319" y="595"/>
      <point x="354" y="577" type="curve"/>
      <point x="377" y="642" type="line"/>
      <point x="335" y="663"/>
      <point x="290" y="674"/>
      <point x="239" y="677" type="curve"/>
      <point x="239" y="760" type="line"/>
      <point x="190" y="760" type="line"/>
      <point x="190" y="675" type="line"/>
      <point x="100" y="666"/>
      <point x="40" y="603"/>
      <point x="40" y="511" type="curve" smooth="yes"/>
      <point x="40" y="423"/>
      <point x="82" y="378"/>
      <point x="190" y="335" type="curve"/>
      <point x="190" y="120" type="line"/>
      <point x="133" y="122"/>
      <point x="78" y="140"/>
      <point x="41" y="163" type="curve"/>
      <point x="41" y="85" type="line"/>
      <point x="78" y="66"/>
      <point x="130" y="53"/>
    </contour>
    <contour>
      <point x="239" y="124" type="curve"/>
      <point x="239" y="315" type="line"/>
      <point x="295" y="291"/>
      <point x="319" y="264"/>
      <point x="319" y="217" type="curve" smooth="yes"/>
      <point x="319" y="171"/>
      <point x="292" y="135"/>
    </contour>
    <contour>
      <point x="190" y="606" type="curve"/>
      <point x="190" y="413" type="line"/>
      <point x="132" y="439"/>
      <point x="112" y="461"/>
      <point x="112" y="513" type="curve"/>
      <point x="112" y="562"/>
      <point x="140" y="598"/>
    </contour>
  </outline>
</glyph>
<glyph name="ampersand" format="2">
  <advance width="477"/>
  <unicode hex="0026"/>
  <outline>
    <contour>
      <point x="206" y="724" type="curve" smooth="yes"/>
      <point x="130" y="724"/>
      <point x="82" y="668"/>
      <point x="82" y="577" type="curve" smooth="yes"/>
      <point x="82" y="504"/>
      <point x="99" y="456"/>
      <point x="140" y="388" type="curve"/>
      <point x="63" y="328"/>
      <point x="29" y="266"/>
      <point x="29" y="181" type="curve" smooth="yes"/>
      <point x="29" y="72"/>
      <point x="77" y="-10"/>
      <point x="179" y="-10" type="curve" smooth="yes"/>
      <point x="248" y="-10"/>
      <point x="294" y="20"/>
      <point x="338" y="73" type="curve"/>
      <point x="381" y="0" type="line"/>
      <point x="479" y="0" type="line"/>
      <point x="390" y="134" type="line"/>
      <point x="424" y="191"/>
      <point x="447" y="274"/>
      <point x="451" y="340" type="curve"/>
      <point x="368" y="340" type="line"/>
      <point x="366" y="287"/>
      <point x="357" y="242"/>
      <point x="340" y="207" type="curve"/>
      <point x="239" y="377" type="line"/>
      <point x="299" y="433"/>
      <point x="327" y="493"/>
      <point x="327" y="574" type="curve" smooth="yes"/>
      <point x="327" y="669"/>
      <point x="283" y="724"/>
    </contour>
    <contour>
      <point x="178" y="333" type="curve"/>
      <point x="295" y="138" type="line"/>
      <point x="264" y="88"/>
      <point x="232" y="65"/>
      <point x="191" y="65" type="curve" smooth="yes"/>
      <point x="143" y="65"/>
      <point x="112" y="110"/>
      <point x="112" y="184" type="curve" smooth="yes"/>
      <point x="112" y="249"/>
      <point x="130" y="289"/>
    </contour>
    <contour>
      <point x="204" y="658" type="curve" smooth="yes"/>
      <point x="235" y="658"/>
      <point x="252" y="631"/>
      <point x="252" y="576" type="curve" smooth="yes"/>
      <point x="252" y="518"/>
      <point x="238" y="469"/>
      <point x="200" y="433" type="curve"/>
      <point x="175" y="471"/>
      <point x="160" y="530"/>
      <point x="160" y="575" type="curve" smooth="yes"/>
      <point x="160" y="629"/>
      <point x="177" y="658"/>
    </contour>
  </outline>
</glyph>
<glyph name="parenleft" format="2">
  <advance width="291"/>
  <unicode hex="0028"/>
  <outline>
    <contour>
      <point x="49" y="277" type="curve" smooth="yes"/>
      <point x="49" y="110"/>
      <point x="97" y="-44"/>
      <point x="191" y="-158" type="curve"/>
      <point x="261" y="-158" type="line"/>
      <point x="177" y="-34"/>
      <point x="131" y="122"/>
      <point x="131" y="278" type="curve" smooth="yes"/>
      <point x="131" y="436"/>
      <point x="175" y="589"/>
      <point x="262" y="720" type="curve"/>
      <point x="191" y="720" type="line"/>
      <point x="100" y="604"/>
      <point x="49" y="446"/>
    </contour>
  </outline>
</glyph>
<glyph name="parenright" format="2">
  <advance width="291"/>
  <unicode hex="0029"/>
  <outline>
    <contour>
      <point x="242" y="277" type="curve" smooth="yes"/>
      <point x="242" y="442"/>
      <point x="192" y="604"/>
      <point x="100" y="720" type="curve"/>
      <point x="29" y="720" type="line"/>
      <point x="115" y="590"/>
      <point x="160" y="439"/>
      <point x="160" y="278" type="curve" smooth="yes"/>
      <point x="160" y="123"/>
      <point x="114" y="-33"/>
      <point x="30" y="-158" type="curve"/>
      <point x="100" y="-158" type="line"/>
      <point x="192" y="-45"/>
      <point x="242" y="111"/>
    </contour>
  </outline>
</glyph>
<glyph name="asterisk" format="2">
  <advance width="397"/>
  <unicode hex="002A"/>
  <outline>
    <contour>
      <point x="241" y="761" type="line"/>
      <point x="157" y="761" type="line"/>
      <point x="171" y="631" type="line"/>
      <point x="52" y="666" type="line"/>
      <point x="36" y="588" type="line"/>
      <point x="153" y="580" type="line"/>
      <point x="71" y="469" type="line"/>
      <point x="138" y="428" type="line"/>
      <point x="199" y="550" type="line"/>
      <point x="258" y="428" type="line"/>
      <point x="327" y="469" type="line"/>
      <point x="242" y="580" type="line"/>
      <point x="361" y="589" type="line"/>
      <point x="346" y="667" type="line"/>
      <point x="226" y="631" type="line"/>
    </contour>
  </outline>
</glyph>
<glyph name="plus" format="2">
  <advance width="430"/>
  <unicode hex="002B"/>
  <outline>
    <contour>
      <point x="249" y="387" type="line"/>
      <point x="249" y="588" type="line"/>
      <point x="180" y="588" type="line"/>
      <point x="180" y="387" type="line"/>
      <point x="30" y="387" type="line"/>
      <point x="30" y="319" type="line"/>
      <point x="180" y="319" type="line"/>
      <point x="180" y="119" type="line"/>
      <point x="249" y="119" type="line"/>
      <point x="249" y="319" type="line"/>
      <point x="398" y="319" type="line"/>
      <point x="398" y="387" type="line"/>
    </contour>
  </outline>
</glyph>
<glyph name="comma" format="2">
  <advance width="226"/>
  <unicode hex="002C"/>
  <outline>
    <contour>
      <point x="174" y="103" type="curve"/>
      <point x="167" y="114" type="line"/>
      <point x="81" y="114" type="line"/>
      <point x="74" y="42"/>
      <point x="57" y="-51"/>
      <point x="36" y="-132" type="curve"/>
      <point x="98" y="-132" type="line"/>
      <point x="130" y="-60"/>
      <point x="154" y="19"/>
    </contour>
  </outline>
</glyph>
<glyph name="hyphen" format="2">
  <advance width="274"/>
  <unicode hex="002D"/>
  <outline>
    <contour>
      <point x="27" y="229" type="line"/>
      <point x="247" y="229" type="line"/>
      <point x="247" y="310" type="line"/>
      <point x="27" y="310" type="line"/>
    </contour>
  </outline>
</glyph>
<glyph name="period" format="2">
  <advance width="226"/>
  <unicode hex="002E"/>
  <outline>
    <contour>
      <point x="59" y="55" type="curve" smooth="yes"/>
      <point x="59" y="13"/>
      <point x="79" y="-9"/>
      <point x="113" y="-9" type="curve" smooth="yes"/>
      <point x="145" y="-9"/>
      <point x="167" y="11"/>
      <point x="167" y="55" type="curve" smooth="yes"/>
      <point x="167" y="100"/>
      <point x="146" y="119"/>
      <point x="113" y="119" type="curve" smooth="yes"/>
      <point x="78" y="119"/>
      <point x="59" y="97"/>
    </contour>
  </outline>
</glyph>
<glyph name="slash" format="2">
  <advance width="371"/>
  <unicode hex="002F"/>
  <outline>
    <contour>
      <point x="358" y="717" type="line"/>
      <point x="282" y="717" type="line"/>
      <point x="19" y="-3" type="line"/>
      <point x="96" y="-3" type="line"/>
    </contour>
  </outline>
</glyph>
<glyph name="zero" format="2">
  <advance width="429"/>
  <unicode hex="0030"/>
  <outline>
    <contour>
      <point x="387" y="357" type="curve" smooth="yes"/>
      <point x="387" y="603"/>
      <point x="331" y="724"/>
      <point x="214" y="724" type="curve" smooth="yes"/>
      <point x="98" y="724"/>
      <point x="41" y="604"/>
      <point x="41" y="357" type="curve" smooth="yes"/>
      <point x="41" y="71"/>
      <point x="106" y="-10"/>
      <point x="214" y="-10" type="curve" smooth="yes"/>
      <point x="337" y="-10"/>
      <point x="387" y="126"/>
    </contour>
    <contour>
      <point x="126" y="357" type="curve" smooth="yes"/>
      <point x="126" y="553"/>
      <point x="151" y="648"/>
      <point x="214" y="648" type="curve" smooth="yes"/>
      <point x="276" y="648"/>
      <point x="303" y="551"/>
      <point x="303" y="357" type="curve" smooth="yes"/>
      <point x="303" y="162"/>
      <point x="276" y="66"/>
      <point x="214" y="66" type="curve" smooth="yes"/>
      <point x="151" y="66"/>
      <point x="126" y="161"/>
    </contour>
  </outline>
</glyph>
<glyph name="one" format="2">
  <advance width="429"/>
  <unicode hex="0031"/>
  <outline>
    <contour>
      <point x="294" y="0" type="line"/>
      <point x="294" y="714" type="line"/>
      <point x="222" y="714" type="line"/>
      <point x="62" y="557" type="line"/>
      <point x="109" y="506" type="line"/>
      <point x="171" y="566" type="line"/>
      <point x="193" y="588"/>
      <point x="207" y="604"/>
      <point x="215" y="615" type="curve"/>
      <point x="213" y="570"/>
      <point x="211" y="524"/>
      <point x="211" y="481" type="curve" smooth="yes"/>
      <point x="211" y="0" type="line"/>
    </contour>
  </outline>
</glyph>
<glyph name="two" format="2">
  <advance width="429"/>
  <unicode hex="0032"/>
  <outline>
    <contour>
      <point x="382" y="0" type="line"/>
      <point x="382" y="75" type="line"/>
      <point x="131" y="75" type="line"/>
      <point x="131" y="79" type="line"/>
      <point x="248" y="244" type="line"/>
      <point x="330" y="357"/>
      <point x="368" y="431"/>
      <point x="368" y="545" type="curve" smooth="yes"/>
      <point x="368" y="651"/>
      <point x="304" y="724"/>
      <point x="197" y="724" type="curve" smooth="yes"/>
      <point x="134" y="724"/>
      <point x="89" y="705"/>
      <point x="38" y="657" type="curve"/>
      <point x="81" y="599" type="line"/>
      <point x="117" y="635"/>
      <point x="148" y="649"/>
      <point x="190" y="649" type="curve" smooth="yes"/>
      <point x="251" y="649"/>
      <point x="284" y="606"/>
      <point x="284" y="542" type="curve" smooth="yes"/>
      <point x="284" y="450"/>
      <point x="259" y="393"/>
      <point x="174" y="269" type="curve" smooth="yes"/>
      <point x="33" y="62" type="line"/>
      <point x="33" y="0" type="line"/>
    </contour>
  </outline>
</glyph>
<glyph name="three" format="2">
  <advance width="429"/>
  <unicode hex="0033"/>
  <outline>
    <contour>
      <point x="369" y="550" type="curve" smooth="yes"/>
      <point x="369" y="657"/>
      <point x="306" y="724"/>
      <point x="202" y="724" type="curve" smooth="yes"/>
      <point x="137" y="724"/>
      <point x="87" y="706"/>
      <point x="35" y="658" type="curve"/>
      <point x="75" y="600" type="line"/>
      <point x="113" y="634"/>
      <point x="144" y="651"/>
      <point x="191" y="651" type="curve" smooth="yes"/>
      <point x="252" y="651"/>
      <point x="286" y="611"/>
      <point x="286" y="541" type="curve" smooth="yes"/>
      <point x="286" y="460"/>
      <point x="236" y="405"/>
      <point x="152" y="405" type="curve" smooth="yes"/>
      <point x="113" y="405" type="line"/>
      <point x="113" y="332" type="line"/>
      <point x="149" y="332" type="line" smooth="yes"/>
      <point x="247" y="332"/>
      <point x="294" y="285"/>
      <point x="294" y="200" type="curve" smooth="yes"/>
      <point x="294" y="119"/>
      <point x="257" y="63"/>
      <point x="177" y="63" type="curve" smooth="yes"/>
      <point x="129" y="63"/>
      <point x="81" y="76"/>
      <point x="38" y="102" type="curve"/>
      <point x="38" y="19" type="line"/>
      <point x="81" y="-1"/>
      <point x="126" y="-10"/>
      <point x="185" y="-10" type="curve" smooth="yes"/>
      <point x="309" y="-10"/>
      <point x="381" y="73"/>
      <point x="381" y="196" type="curve" smooth="yes"/>
      <point x="381" y="290"/>
      <point x="335" y="353"/>
      <point x="251" y="371" type="curve"/>
      <point x="251" y="375" type="line"/>
      <point x="329" y="403"/>
      <point x="369" y="466"/>
    </contour>
  </outline>
</glyph>
<glyph name="four" format="2">
  <advance width="429"/>
  <unicode hex="0034"/>
  <outline>
    <contour>
      <point x="415" y="155" type="line"/>
      <point x="415" y="226" type="line"/>
      <point x="341" y="226" type="line"/>
      <point x="341" y="720" type="line"/>
      <point x="252" y="720" type="line"/>
      <point x="17" y="223" type="line"/>
      <point x="17" y="155" type="line"/>
      <point x="259" y="155" type="line"/>
      <point x="259" y="0" type="line"/>
      <point x="341" y="0" type="line"/>
      <point x="341" y="155" type="line"/>
    </contour>
    <contour>
      <point x="259" y="498" type="curve" smooth="yes"/>
      <point x="259" y="226" type="line"/>
      <point x="91" y="226" type="line"/>
      <point x="225" y="525" type="line" smooth="yes"/>
      <point x="237" y="552"/>
      <point x="248" y="580"/>
      <point x="259" y="611" type="curve"/>
      <point x="262" y="611" type="line"/>
      <point x="261" y="583"/>
      <point x="259" y="529"/>
    </contour>
  </outline>
</glyph>
<glyph name="five" format="2">
  <advance width="429"/>
  <unicode hex="0035"/>
  <outline>
    <contour>
      <point x="211" y="439" type="curve" smooth="yes"/>
      <point x="187" y="439"/>
      <point x="160" y="436"/>
      <point x="132" y="430" type="curve"/>
      <point x="146" y="638" type="line"/>
      <point x="346" y="638" type="line"/>
      <point x="346" y="714" type="line"/>
      <point x="76" y="714" type="line"/>
      <point x="55" y="384" type="line"/>
      <point x="88" y="352" type="line"/>
      <point x="120" y="362"/>
      <point x="151" y="368"/>
      <point x="182" y="368" type="curve" smooth="yes"/>
      <point x="256" y="368"/>
      <point x="300" y="320"/>
      <point x="300" y="227" type="curve" smooth="yes"/>
      <point x="300" y="138"/>
      <point x="259" y="63"/>
      <point x="174" y="63" type="curve" smooth="yes"/>
      <point x="131" y="63"/>
      <point x="87" y="78"/>
      <point x="49" y="103" type="curve"/>
      <point x="49" y="20" type="line"/>
      <point x="82" y="0"/>
      <point x="125" y="-10"/>
      <point x="180" y="-10" type="curve" smooth="yes"/>
      <point x="313" y="-10"/>
      <point x="385" y="87"/>
      <point x="385" y="230" type="curve" smooth="yes"/>
      <point x="385" y="354"/>
      <point x="319" y="439"/>
    </contour>
  </outline>
</glyph>
<glyph name="six" format="2">
  <advance width="429"/>
  <unicode hex="0036"/>
  <outline>
    <contour>
      <point x="44" y="303" type="curve" smooth="yes"/>
      <point x="44" y="102"/>
      <point x="107" y="-10"/>
      <point x="221" y="-10" type="curve" smooth="yes"/>
      <point x="333" y="-10"/>
      <point x="388" y="93"/>
      <point x="388" y="226" type="curve" smooth="yes"/>
      <point x="388" y="352"/>
      <point x="340" y="452"/>
      <point x="240" y="452" type="curve" smooth="yes"/>
      <point x="189" y="452"/>
      <point x="150" y="422"/>
      <point x="128" y="372" type="curve"/>
      <point x="124" y="372" type="line"/>
      <point x="130" y="556"/>
      <point x="183" y="650"/>
      <point x="280" y="650" type="curve" smooth="yes"/>
      <point x="306" y="650"/>
      <point x="330" y="646"/>
      <point x="351" y="639" type="curve"/>
      <point x="351" y="714" type="line"/>
      <point x="330" y="720"/>
      <point x="305" y="724"/>
      <point x="277" y="724" type="curve" smooth="yes"/>
      <point x="110" y="724"/>
      <point x="44" y="568"/>
    </contour>
    <contour>
      <point x="220" y="65" type="curve" smooth="yes"/>
      <point x="153" y="65"/>
      <point x="129" y="173"/>
      <point x="129" y="255" type="curve" smooth="yes"/>
      <point x="129" y="319"/>
      <point x="160" y="378"/>
      <point x="220" y="378" type="curve" smooth="yes"/>
      <point x="276" y="378"/>
      <point x="305" y="325"/>
      <point x="305" y="224" type="curve" smooth="yes"/>
      <point x="305" y="117"/>
      <point x="273" y="65"/>
    </contour>
  </outline>
</glyph>
<glyph name="seven" format="2">
  <advance width="429"/>
  <unicode hex="0037"/>
  <outline>
    <contour>
      <point x="93" y="0" type="line"/>
      <point x="180" y="0" type="line"/>
      <point x="393" y="652" type="line"/>
      <point x="393" y="714" type="line"/>
      <point x="31" y="714" type="line"/>
      <point x="31" y="637" type="line"/>
      <point x="309" y="637" type="line"/>
    </contour>
  </outline>
</glyph>
<glyph name="eight" format="2">
  <advance width="429"/>
  <unicode hex="0038"/>
  <outline>
    <contour>
      <point x="216" y="724" type="curve" smooth="yes"/>
      <point x="116" y="724"/>
      <point x="51" y="658"/>
      <point x="51" y="556" type="curve" smooth="yes"/>
      <point x="51" y="485"/>
      <point x="83" y="425"/>
      <point x="151" y="372" type="curve"/>
      <point x="71" y="321"/>
      <point x="34" y="260"/>
      <point x="34" y="176" type="curve" smooth="yes"/>
      <point x="34" y="64"/>
      <point x="101" y="-10"/>
      <point x="219" y="-10" type="curve" smooth="yes"/>
      <point x="326" y="-10"/>
      <point x="396" y="68"/>
      <point x="396" y="181" type="curve" smooth="yes"/>
      <point x="396" y="268"/>
      <point x="344" y="322"/>
      <point x="269" y="373" type="curve"/>
      <point x="344" y="418"/>
      <point x="380" y="479"/>
      <point x="380" y="557" type="curve" smooth="yes"/>
      <point x="380" y="659"/>
      <point x="319" y="724"/>
    </contour>
    <contour>
      <point x="116" y="176" type="curve" smooth="yes"/>
      <point x="116" y="245"/>
      <point x="140" y="290"/>
      <point x="207" y="334" type="curve"/>
      <point x="227" y="320" type="line" smooth="yes"/>
      <point x="287" y="277"/>
      <point x="313" y="232"/>
      <point x="313" y="181" type="curve" smooth="yes"/>
      <point x="313" y="110"/>
      <point x="280" y="60"/>
      <point x="215" y="60" type="curve" smooth="yes"/>
      <point x="151" y="60"/>
      <point x="116" y="109"/>
    </contour>
    <contour>
      <point x="214" y="654" type="curve" smooth="yes"/>
      <point x="267" y="654"/>
      <point x="298" y="615"/>
      <point x="298" y="551" type="curve" smooth="yes"/>
      <point x="298" y="494"/>
      <point x="274" y="452"/>
      <point x="214" y="413" type="curve"/>
      <point x="159" y="451"/>
      <point x="132" y="490"/>
      <point x="132" y="551" type="curve" smooth="yes"/>
      <point x="132" y="615"/>
      <point x="164" y="654"/>
    </contour>
  </outline>
</glyph>
<glyph name="nine" format="2">
  <advance width="429"/>
  <unicode hex="0039"/>
  <outline>
    <contour>
      <point x="381" y="417" type="curve" smooth="yes"/>
      <point x="381" y="614"/>
      <point x="320" y="724"/>
      <point x="209" y="724" type="curve" smooth="yes"/>
      <point x="92" y="724"/>
      <point x="37" y="621"/>
      <point x="37" y="488" type="curve" smooth="yes"/>
      <point x="37" y="362"/>
      <point x="84" y="262"/>
      <point x="185" y="262" type="curve" smooth="yes"/>
      <point x="236" y="262"/>
      <point x="275" y="292"/>
      <point x="297" y="342" type="curve"/>
      <point x="301" y="342" type="line"/>
      <point x="296" y="198"/>
      <point x="257" y="64"/>
      <point x="144" y="64" type="curve" smooth="yes"/>
      <point x="114" y="64"/>
      <point x="90" y="68"/>
      <point x="69" y="76" type="curve"/>
      <point x="69" y="0" type="line"/>
      <point x="88" y="-5"/>
      <point x="122" y="-10"/>
      <point x="146" y="-10" type="curve" smooth="yes"/>
      <point x="310" y="-10"/>
      <point x="381" y="150"/>
    </contour>
    <contour>
      <point x="208" y="649" type="curve" smooth="yes"/>
      <point x="281" y="649"/>
      <point x="297" y="534"/>
      <point x="297" y="467" type="curve" smooth="yes"/>
      <point x="297" y="401"/>
      <point x="268" y="336"/>
      <point x="206" y="336" type="curve" smooth="yes"/>
      <point x="150" y="336"/>
      <point x="121" y="389"/>
      <point x="121" y="490" type="curve" smooth="yes"/>
      <point x="121" y="597"/>
      <point x="151" y="649"/>
    </contour>
  </outline>
</glyph>
<glyph name="colon" format="2">
  <advance width="228"/>
  <unicode hex="003A"/>
  <outline>
    <contour>
      <point x="60" y="55" type="curve" smooth="yes"/>
      <point x="60" y="13"/>
      <point x="79" y="-9"/>
      <point x="114" y="-9" type="curve" smooth="yes"/>
      <point x="145" y="-9"/>
      <point x="168" y="11"/>
      <point x="168" y="55" type="curve" smooth="yes"/>
      <point x="168" y="100"/>
      <point x="147" y="119"/>
      <point x="114" y="119" type="curve" smooth="yes"/>
      <point x="78" y="119"/>
      <point x="60" y="97"/>
    </contour>
    <contour>
      <point x="60" y="476" type="curve" smooth="yes"/>
      <point x="60" y="433"/>
      <point x="79" y="411"/>
      <point x="114" y="411" type="curve" smooth="yes"/>
      <point x="145" y="411"/>
      <point x="168" y="432"/>
      <point x="168" y="476" type="curve" smooth="yes"/>
      <point x="168" y="518"/>
      <point x="149" y="540"/>
      <point x="114" y="540" type="curve" smooth="yes"/>
      <point x="78" y="540"/>
      <point x="60" y="518"/>
    </contour>
  </outline>
</glyph>
<glyph name="semicolon" format="2">
  <advance width="228"/>
  <unicode hex="003B"/>
  <outline>
    <contour>
      <point x="174" y="103" type="curve"/>
      <point x="167" y="114" type="line"/>
      <point x="82" y="114" type="line"/>
      <point x="74" y="42"/>
      <point x="58" y="-50"/>
      <point x="36" y="-132" type="curve"/>
      <point x="98" y="-132" type="line"/>
      <point x="130" y="-60"/>
      <point x="155" y="19"/>
    </contour>
    <contour>
      <point x="60" y="476" type="curve" smooth="yes"/>
      <point x="60" y="433"/>
      <point x="79" y="411"/>
      <point x="114" y="411" type="curve" smooth="yes"/>
      <point x="145" y="411"/>
      <point x="168" y="432"/>
      <point x="168" y="476" type="curve" smooth="yes"/>
      <point x="168" y="518"/>
      <point x="149" y="540"/>
      <point x="114" y="540" type="curve" smooth="yes"/>
      <point x="78" y="540"/>
      <point x="60" y="518"/>
    </contour>
  </outline>
</glyph>
<glyph name="equal" format="2">
  <advance width="430"/>
  <unicode hex="003D"/>
  <outline>
    <contour>
      <point x="30" y="425" type="line"/>
      <point x="398" y="425" type="line"/>
      <point x="398" y="493" type="line"/>
      <point x="30" y="493" type="line"/>
    </contour>
    <contour>
      <point x="30" y="211" type="line"/>
      <point x="398" y="211" type="line"/>
      <point x="398" y="279" type="line"/>
      <point x="30" y="279" type="line"/>
    </contour>
  </outline>
</glyph>
<glyph name="greater" format="2">
  <advance width="430"/>
  <unicode hex="003E"/>
  <outline>
    <contour>
      <point x="30" y="210" type="line"/>
      <point x="30" y="132" type="line"/>
      <point x="401" y="332" type="line"/>
      <point x="401" y="380" type="line"/>
      <point x="30" y="578" type="line"/>
      <point x="30" y="500" type="line"/>
      <point x="309" y="355" type="line"/>
    </contour>
  </outline>
</glyph>
<glyph name="question" format="2">
  <advance width="318"/>
  <unicode hex="003F"/>
  <outline>
    <contour>
      <point x="98" y="230" type="curve" smooth="yes"/>
      <point x="98" y="201" type="line"/>
      <point x="163" y="201" type="line"/>
      <point x="163" y="221" type="line" smooth="yes"/>
      <point x="163" y="275"/>
      <point x="175" y="306"/>
      <point x="215" y="358" type="curve" smooth="yes"/>
      <point x="272" y="433"/>
      <point x="297" y="474"/>
      <point x="297" y="560" type="curve" smooth="yes"/>
      <point x="297" y="665"/>
      <point x="243" y="724"/>
      <point x="145" y="724" type="curve" smooth="yes"/>
      <point x="98" y="724"/>
      <point x="54" y="709"/>
      <point x="12" y="678" type="curve"/>
      <point x="43" y="614" type="line"/>
      <point x="76" y="637"/>
      <point x="104" y="650"/>
      <point x="141" y="650" type="curve" smooth="yes"/>
      <point x="188" y="650"/>
      <point x="216" y="617"/>
      <point x="216" y="553" type="curve" smooth="yes"/>
      <point x="216" y="495"/>
      <point x="198" y="455"/>
      <point x="151" y="394" type="curve" smooth="yes"/>
      <point x="110" y="342"/>
      <point x="98" y="298"/>
    </contour>
    <contour>
      <point x="78" y="55" type="curve" smooth="yes"/>
      <point x="78" y="13"/>
      <point x="98" y="-9"/>
      <point x="132" y="-9" type="curve" smooth="yes"/>
      <point x="164" y="-9"/>
      <point x="186" y="11"/>
      <point x="186" y="55" type="curve" smooth="yes"/>
      <point x="186" y="100"/>
      <point x="165" y="119"/>
      <point x="132" y="119" type="curve" smooth="yes"/>
      <point x="97" y="119"/>
      <point x="78" y="97"/>
    </contour>
  </outline>
</glyph>
<glyph name="at" format="2">
  <advance width="651"/>
  <unicode hex="0040"/>
  <outline>
    <contour>
      <point x="606" y="362" type="curve" smooth="yes"/>
      <point x="606" y="559"/>
      <point x="509" y="720"/>
      <point x="343" y="720" type="curve" smooth="yes"/>
      <point x="167" y="722"/>
      <point x="48" y="552"/>
      <point x="48" y="287" type="curve" smooth="yes"/>
      <point x="48" y="49"/>
      <point x="144" y="-84"/>
      <point x="318" y="-84" type="curve" smooth="yes"/>
      <point x="375" y="-84"/>
      <point x="417" y="-73"/>
      <point x="459" y="-51" type="curve"/>
      <point x="459" y="12" type="line"/>
      <point x="422" y="-10"/>
      <point x="370" y="-26"/>
      <point x="320" y="-26" type="curve" smooth="yes"/>
      <point x="176" y="-26"/>
      <point x="114" y="118"/>
      <point x="114" y="294" type="curve" smooth="yes"/>
      <point x="114" y="463"/>
      <point x="177" y="662"/>
      <point x="343" y="662" type="curve" smooth="yes"/>
      <point x="462" y="663"/>
      <point x="539" y="540"/>
      <point x="539" y="364" type="curve" smooth="yes"/>
      <point x="539" y="232"/>
      <point x="519" y="174"/>
      <point x="479" y="174" type="curve" smooth="yes"/>
      <point x="452" y="174"/>
      <point x="436" y="194"/>
      <point x="436" y="244" type="curve" smooth="yes"/>
      <point x="436" y="256"/>
      <point x="437" y="279"/>
      <point x="438" y="299" type="curve" smooth="yes"/>
      <point x="446" y="507" type="line"/>
      <point x="415" y="519"/>
      <point x="381" y="525"/>
      <point x="348" y="525" type="curve" smooth="yes"/>
      <point x="252" y="525"/>
      <point x="200" y="443"/>
      <point x="200" y="294" type="curve" smooth="yes"/>
      <point x="200" y="179"/>
      <point x="239" y="113"/>
      <point x="307" y="113" type="curve" smooth="yes"/>
      <point x="349" y="113"/>
      <point x="376" y="142"/>
      <point x="391" y="204" type="curve"/>
      <point x="396" y="204" type="line"/>
      <point x="402" y="146"/>
      <point x="428" y="113"/>
      <point x="481" y="113" type="curve" smooth="yes"/>
      <point x="560" y="113"/>
      <point x="606" y="202"/>
    </contour>
    <contour>
      <point x="268" y="292" type="curve" smooth="yes"/>
      <point x="268" y="408"/>
      <point x="296" y="470"/>
      <point x="343" y="470" type="curve" smooth="yes"/>
      <point x="356" y="470"/>
      <point x="366" y="469"/>
      <point x="375" y="466" type="curve"/>
      <point x="368" y="336" type="line" smooth="yes"/>
      <point x="362" y="222"/>
      <point x="347" y="174"/>
      <point x="317" y="174" type="curve" smooth="yes"/>
      <point x="285" y="174"/>
      <point x="268" y="213"/>
    </contour>
  </outline>
</glyph>
<glyph name="A" format="2">
  <advance width="450"/>
  <unicode hex="0041"/>
  <anchor x="220" y="0" name="bottom"/>
  <anchor x="224" y="714" name="top"/>
  <anchor x="390" y="714" name="topright"/>
  <outline>
    <contour>
      <point x="361" y="0" type="line"/>
      <point x="450" y="0" type="line"/>
      <point x="274" y="714" type="line"/>
      <point x="173" y="714" type="line"/>
      <point x="0" y="0" type="line"/>
      <point x="90" y="0" type="line"/>
      <point x="142" y="223" type="line"/>
      <point x="309" y="223" type="line"/>
    </contour>
    <contour>
      <point x="240" y="535" type="curve"/>
      <point x="293" y="301" type="line"/>
      <point x="155" y="301" type="line"/>
      <point x="206" y="536" type="line" smooth="yes"/>
      <point x="214" y="571"/>
      <point x="220" y="607"/>
      <point x="223" y="638" type="curve"/>
      <point x="227" y="607"/>
      <point x="233" y="572"/>
    </contour>
  </outline>
</glyph>
<glyph name="C" format="2">
  <advance width="446"/>
  <unicode hex="0043"/>
  <anchor x="267" y="0" name="bottom"/>
  <anchor x="277" y="714" name="top"/>
  <anchor x="426" y="714" name="topright"/>
  <outline>
    <contour>
      <point x="292" y="649" type="curve" smooth="yes"/>
      <point x="329" y="649"/>
      <point x="362" y="637"/>
      <point x="392" y="618" type="curve"/>
      <point x="422" y="689" type="line"/>
      <point x="381" y="713"/>
      <point x="337" y="725"/>
      <point x="289" y="725" type="curve" smooth="yes"/>
      <point x="128" y="725"/>
      <point x="50" y="561"/>
      <point x="50" y="358" type="curve" smooth="yes"/>
      <point x="50" y="127"/>
      <point x="141" y="-10"/>
      <point x="287" y="-10" type="curve"/>
      <point x="333" y="-10"/>
      <point x="372" y="-1"/>
      <point x="404" y="17" type="curve"/>
      <point x="404" y="93" type="line"/>
      <point x="372" y="77"/>
      <point x="337" y="66"/>
      <point x="297" y="66" type="curve" smooth="yes"/>
      <point x="199" y="66"/>
      <point x="137" y="176"/>
      <point x="137" y="357" type="curve" smooth="yes"/>
      <point x="137" y="512"/>
      <point x="182" y="649"/>
    </contour>
  </outline>
</glyph>
<glyph name="D" format="2">
  <advance width="516"/>
  <unicode hex="0044"/>
  <anchor x="239" y="0" name="bottom"/>
  <anchor x="261" y="360" name="center"/>
  <anchor x="253" y="714" name="top"/>
  <anchor x="496" y="714" name="topright"/>
  <outline>
    <contour>
      <point x="467" y="366" type="curve" smooth="yes"/>
      <point x="467" y="593"/>
      <point x="382" y="714"/>
      <point x="223" y="714" type="curve" smooth="yes"/>
      <point x="73" y="714" type="line"/>
      <point x="73" y="0" type="line"/>
      <point x="217" y="0" type="line" smooth="yes"/>
      <point x="381" y="0"/>
      <point x="467" y="125"/>
    </contour>
    <contour>
      <point x="379" y="362" type="curve" smooth="yes"/>
      <point x="379" y="172"/>
      <point x="328" y="75"/>
      <point x="214" y="75" type="curve" smooth="yes"/>
      <point x="157" y="75" type="line"/>
      <point x="157" y="639" type="line"/>
      <point x="220" y="639" type="line" smooth="yes"/>
      <point x="325" y="639"/>
      <point x="379" y="546"/>
    </contour>
  </outline>
</glyph>
<glyph name="E" format="2">
  <advance width="402"/>
  <unicode hex="0045"/>
  <anchor x="221" y="0" name="bottom"/>
  <anchor x="216" y="714" name="top"/>
  <anchor x="382" y="714" name="topright"/>
  <outline>
    <contour>
      <point x="357" y="0" type="line"/>
      <point x="357" y="76" type="line"/>
      <point x="157" y="76" type="line"/>
      <point x="157" y="335" type="line"/>
      <point x="345" y="335" type="line"/>
      <point x="345" y="410" type="line"/>
      <point x="157" y="410" type="line"/>
      <point x="157" y="639" type="line"/>
      <point x="357" y="639" type="line"/>
      <point x="357" y="714" type="line"/>
      <point x="73" y="714" type="line"/>
      <point x="73" y="0" type="line"/>
    </contour>
  </outline>
</glyph>
<glyph name="F" format="2">
  <advance width="380"/>
  <unicode hex="0046"/>
  <anchor x="190" y="0" name="bottom"/>
  <anchor x="220" y="714" name="top"/>
  <anchor x="360" y="714" name="topright"/>
  <outline>
    <contour>
      <point x="157" y="0" type="line"/>
      <point x="157" y="305" type="line"/>
      <point x="345" y="305" type="line"/>
      <point x="345" y="381" type="line"/>
      <point x="157" y="381" type="line"/>
      <point x="157" y="639" type="line"/>
      <point x="357" y="639" type="line"/>
      <point x="357" y="714" type="line"/>
      <point x="73" y="714" type="line"/>
      <point x="73" y="0" type="line"/>
    </contour>
  </outline>
</glyph>
<glyph name="G" format="2">
  <advance width="545"/>
  <unicode hex="0047"/>
  <anchor x="309" y="0" name="bottom"/>
  <anchor x="308" y="714" name="top"/>
  <anchor x="525" y="714" name="topright"/>
  <outline>
    <contour>
      <point x="308" y="377" type="line"/>
      <point x="308" y="302" type="line"/>
      <point x="409" y="302" type="line"/>
      <point x="409" y="81" type="line"/>
      <point x="381" y="71"/>
      <point x="348" y="66"/>
      <point x="311" y="66" type="curve" smooth="yes"/>
      <point x="188" y="66"/>
      <point x="138" y="192"/>
      <point x="138" y="357" type="curve" smooth="yes"/>
      <point x="138" y="547"/>
      <point x="202" y="649"/>
      <point x="322" y="649" type="curve" smooth="yes"/>
      <point x="366" y="649"/>
      <point x="409" y="635"/>
      <point x="453" y="607" type="curve"/>
      <point x="483" y="678" type="line"/>
      <point x="435" y="708"/>
      <point x="380" y="724"/>
      <point x="320" y="724" type="curve" smooth="yes"/>
      <point x="138" y="724"/>
      <point x="50" y="572"/>
      <point x="50" y="359" type="curve" smooth="yes"/>
      <point x="50" y="148"/>
      <point x="129" y="-10"/>
      <point x="304" y="-10" type="curve" smooth="yes"/>
      <point x="369" y="-10"/>
      <point x="432" y="2"/>
      <point x="491" y="25" type="curve"/>
      <point x="491" y="377" type="line"/>
    </contour>
  </outline>
</glyph>
<glyph name="H" format="2">
  <advance width="533"/>
  <unicode hex="0048"/>
  <anchor x="267" y="0" name="bottom"/>
  <anchor x="267" y="357" name="center"/>
  <anchor x="268" y="714" name="top"/>
  <anchor x="513" y="714" name="topright"/>
  <outline>
    <contour>
      <point x="461" y="0" type="line"/>
      <point x="461" y="714" type="line"/>
      <point x="377" y="714" type="line"/>
      <point x="377" y="411" type="line"/>
      <point x="157" y="411" type="line"/>
      <point x="157" y="714" type="line"/>
      <point x="73" y="714" type="line"/>
      <point x="73" y="0" type="line"/>
      <point x="157" y="0" type="line"/>
      <point x="157" y="335" type="line"/>
      <point x="377" y="335" type="line"/>
      <point x="377" y="0" type="line"/>
    </contour>
  </outline>
</glyph>
<glyph name="I" format="2">
  <advance width="283"/>
  <unicode hex="0049"/>
  <anchor x="142" y="0" name="bottom"/>
  <anchor x="141" y="714" name="top"/>
  <anchor x="263" y="714" name="topright"/>
  <outline>
    <contour>
      <point x="248" y="0" type="line"/>
      <point x="248" y="48" type="line"/>
      <point x="183" y="65" type="line"/>
      <point x="183" y="649" type="line"/>
      <point x="248" y="666" type="line"/>
      <point x="248" y="714" type="line"/>
      <point x="34" y="714" type="line"/>
      <point x="34" y="666" type="line"/>
      <point x="99" y="649" type="line"/>
      <point x="99" y="65" type="line"/>
      <point x="34" y="48" type="line"/>
      <point x="34" y="0" type="line"/>
    </contour>
  </outline>
</glyph>
<glyph name="J" format="2">
  <advance width="224"/>
  <unicode hex="004A"/>
  <anchor x="16" y="-173" name="bottom"/>
  <anchor x="112" y="714" name="top"/>
  <anchor x="204" y="714" name="topright"/>
  <outline>
    <contour>
      <point x="16" y="-193" type="curve" smooth="yes"/>
      <point x="105" y="-193"/>
      <point x="154" y="-141"/>
      <point x="154" y="-1" type="curve" smooth="yes"/>
      <point x="154" y="714" type="line"/>
      <point x="70" y="714" type="line"/>
      <point x="70" y="6" type="line" smooth="yes"/>
      <point x="70" y="-84"/>
      <point x="51" y="-117"/>
      <point x="7" y="-117" type="curve" smooth="yes"/>
      <point x="-14" y="-117"/>
      <point x="-33" y="-113"/>
      <point x="-49" y="-107" type="curve"/>
      <point x="-49" y="-182" type="line"/>
      <point x="-30" y="-190"/>
      <point x="-8" y="-193"/>
    </contour>
  </outline>
</glyph>
<glyph name="K" format="2">
  <advance width="447"/>
  <unicode hex="004B"/>
  <anchor x="252" y="0" name="bottom"/>
  <anchor x="249" y="714" name="top"/>
  <anchor x="427" y="714" name="topright"/>
  <outline>
    <contour>
      <point x="451" y="0" type="line"/>
      <point x="265" y="398" type="line"/>
      <point x="442" y="714" type="line"/>
      <point x="351" y="714" type="line"/>
      <point x="211" y="459" type="line" smooth="yes"/>
      <point x="183" y="409"/>
      <point x="165" y="375"/>
      <point x="157" y="356" type="curve"/>
      <point x="157" y="714" type="line"/>
      <point x="73" y="714" type="line"/>
      <point x="73" y="0" type="line"/>
      <point x="157" y="0" type="line"/>
      <point x="157" y="270" type="line"/>
      <point x="208" y="330" type="line"/>
      <point x="357" y="0" type="line"/>
    </contour>
  </outline>
</glyph>
<glyph name="L" format="2">
  <advance width="371"/>
  <unicode hex="004C"/>
  <anchor x="216" y="0" name="bottom"/>
  <anchor x="186" y="357" name="center"/>
  <anchor x="115" y="714" name="top"/>
  <anchor x="251" y="714" name="topright"/>
  <outline>
    <contour>
      <point x="73" y="0" type="line"/>
      <point x="354" y="0" type="line"/>
      <point x="354" y="76" type="line"/>
      <point x="157" y="76" type="line"/>
      <point x="157" y="714" type="line"/>
      <point x="73" y="714" type="line"/>
    </contour>
  </outline>
</glyph>
<glyph name="M" format="2">
  <advance width="718"/>
  <unicode hex="004D"/>
  <anchor x="359" y="0" name="bottom"/>
  <anchor x="361" y="714" name="top"/>
  <anchor x="698" y="714" name="topright"/>
  <outline>
    <contour>
      <point x="321" y="0" type="line"/>
      <point x="396" y="0" type="line"/>
      <point x="566" y="599" type="line"/>
      <point x="570" y="599" type="line"/>
      <point x="567" y="533"/>
      <point x="565" y="485"/>
      <point x="565" y="456" type="curve" smooth="yes"/>
      <point x="565" y="0" type="line"/>
      <point x="647" y="0" type="line"/>
      <point x="647" y="714" type="line"/>
      <point x="527" y="714" type="line"/>
      <point x="361" y="131" type="line"/>
      <point x="358" y="131" type="line"/>
      <point x="192" y="714" type="line"/>
      <point x="73" y="714" type="line"/>
      <point x="73" y="0" type="line"/>
      <point x="153" y="0" type="line"/>
      <point x="153" y="458" type="line" smooth="yes"/>
      <point x="153" y="484"/>
      <point x="151" y="532"/>
      <point x="147" y="599" type="curve"/>
      <point x="151" y="599" type="line"/>
    </contour>
  </outline>
</glyph>
<glyph name="N" format="2">
  <advance width="569"/>
  <unicode hex="004E"/>
  <anchor x="284" y="0" name="bottom"/>
  <anchor x="284" y="714" name="top"/>
  <anchor x="549" y="714" name="topright"/>
  <outline>
    <contour>
      <point x="497" y="0" type="line"/>
      <point x="497" y="714" type="line"/>
      <point x="417" y="714" type="line"/>
      <point x="417" y="286" type="line" smooth="yes"/>
      <point x="417" y="248"/>
      <point x="419" y="200"/>
      <point x="422" y="141" type="curve"/>
      <point x="419" y="141" type="line"/>
      <point x="175" y="714" type="line"/>
      <point x="73" y="714" type="line"/>
      <point x="73" y="0" type="line"/>
      <point x="153" y="0" type="line"/>
      <point x="153" y="438" type="line" smooth="yes"/>
      <point x="153" y="479"/>
      <point x="151" y="527"/>
      <point x="147" y="582" type="curve"/>
      <point x="151" y="582" type="line"/>
      <point x="395" y="0" type="line"/>
    </contour>
  </outline>
</glyph>
<glyph name="O" format="2">
  <advance width="550"/>
  <unicode hex="004F"/>
  <anchor x="275" y="0" name="bottom"/>
  <anchor x="275" y="357" name="center"/>
  <anchor x="275" y="714" name="top"/>
  <anchor x="530" y="714" name="topright"/>
  <outline>
    <contour>
      <point x="501" y="358" type="curve" smooth="yes"/>
      <point x="501" y="563"/>
      <point x="438" y="724"/>
      <point x="276" y="724" type="curve" smooth="yes"/>
      <point x="126" y="724"/>
      <point x="50" y="603"/>
      <point x="50" y="359" type="curve" smooth="yes"/>
      <point x="50" y="156"/>
      <point x="111" y="-10"/>
      <point x="276" y="-10" type="curve" smooth="yes"/>
      <point x="438" y="-10"/>
      <point x="501" y="152"/>
    </contour>
    <contour>
      <point x="137" y="358" type="curve" smooth="yes"/>
      <point x="137" y="549"/>
      <point x="183" y="648"/>
      <point x="276" y="648" type="curve" smooth="yes"/>
      <point x="366" y="648"/>
      <point x="412" y="551"/>
      <point x="412" y="358" type="curve" smooth="yes"/>
      <point x="412" y="163"/>
      <point x="365" y="67"/>
      <point x="275" y="67" type="curve" smooth="yes"/>
      <point x="185" y="67"/>
      <point x="137" y="166"/>
    </contour>
  </outline>
</glyph>
<glyph name="P" format="2">
  <advance width="443"/>
  <unicode hex="0050"/>
  <anchor x="222" y="0" name="bottom"/>
  <anchor x="230" y="714" name="top"/>
  <anchor x="423" y="714" name="topright"/>
  <outline>
    <contour>
      <point x="205" y="714" type="curve" smooth="yes"/>
      <point x="73" y="714" type="line"/>
      <point x="73" y="0" type="line"/>
      <point x="157" y="0" type="line"/>
      <point x="157" y="278" type="line"/>
      <point x="203" y="278" type="line" smooth="yes"/>
      <point x="343" y="278"/>
      <point x="412" y="357"/>
      <point x="412" y="503" type="curve" smooth="yes"/>
      <point x="412" y="646"/>
      <point x="346" y="714"/>
    </contour>
    <contour>
      <point x="202" y="640" type="line"/>
      <point x="287" y="640"/>
      <point x="326" y="600"/>
      <point x="326" y="502" type="curve" smooth="yes"/>
      <point x="326" y="395"/>
      <point x="288" y="352"/>
      <point x="195" y="352" type="curve" smooth="yes"/>
      <point x="157" y="352" type="line"/>
      <point x="157" y="640" type="line"/>
    </contour>
  </outline>
</glyph>
<glyph name="Q" format="2">
  <advance width="550"/>
  <unicode hex="0051"/>
  <anchor x="275" y="-170" name="bottom"/>
  <anchor x="275" y="714" name="top"/>
  <anchor x="530" y="714" name="topright"/>
  <outline>
    <contour>
      <point x="501" y="358" type="curve" smooth="yes"/>
      <point x="501" y="600"/>
      <point x="421" y="724"/>
      <point x="276" y="724" type="curve" smooth="yes"/>
      <point x="126" y="724"/>
      <point x="50" y="603"/>
      <point x="50" y="359" type="curve" smooth="yes"/>
      <point x="50" y="161"/>
      <point x="109" y="-10"/>
      <point x="271" y="-10" type="curve"/>
      <point x="277" y="-10"/>
      <point x="286" y="-9"/>
      <point x="290" y="-8" type="curve"/>
      <point x="379" y="-170" type="line"/>
      <point x="479" y="-170" type="line"/>
      <point x="369" y="12" type="line"/>
      <point x="454" y="57"/>
      <point x="501" y="176"/>
    </contour>
    <contour>
      <point x="137" y="358" type="curve" smooth="yes"/>
      <point x="137" y="549"/>
      <point x="183" y="648"/>
      <point x="276" y="648" type="curve" smooth="yes"/>
      <point x="366" y="648"/>
      <point x="412" y="551"/>
      <point x="412" y="358" type="curve" smooth="yes"/>
      <point x="412" y="163"/>
      <point x="365" y="67"/>
      <point x="275" y="67" type="curve" smooth="yes"/>
      <point x="185" y="67"/>
      <point x="137" y="166"/>
    </contour>
  </outline>
</glyph>
<glyph name="R" format="2">
  <advance width="461"/>
  <unicode hex="0052"/>
  <anchor x="241" y="0" name="bottom"/>
  <anchor x="233" y="714" name="top"/>
  <anchor x="441" y="714" name="topright"/>
  <outline>
    <contour>
      <point x="199" y="714" type="curve" smooth="yes"/>
      <point x="73" y="714" type="line"/>
      <point x="73" y="0" type="line"/>
      <point x="157" y="0" type="line"/>
      <point x="157" y="299" type="line"/>
      <point x="228" y="299" type="line"/>
      <point x="355" y="0" type="line"/>
      <point x="448" y="0" type="line"/>
      <point x="304" y="320" type="line"/>
      <point x="381" y="355"/>
      <point x="413" y="419"/>
      <point x="413" y="513" type="curve" smooth="yes"/>
      <point x="413" y="647"/>
      <point x="346" y="714"/>
    </contour>
    <contour>
      <point x="200" y="638" type="line"/>
      <point x="287" y="638"/>
      <point x="327" y="600"/>
      <point x="327" y="509" type="curve" smooth="yes"/>
      <point x="327" y="416"/>
      <point x="285" y="369"/>
      <point x="209" y="369" type="curve" smooth="yes"/>
      <point x="157" y="369" type="line"/>
      <point x="157" y="638" type="line"/>
    </contour>
  </outline>
</glyph>
<glyph name="S" format="2">
  <advance width="413"/>
  <unicode hex="0053"/>
  <anchor x="195" y="0" name="bottom"/>
  <anchor x="216" y="714" name="top"/>
  <anchor x="393" y="714" name="topright"/>
  <outline>
    <contour>
      <point x="375" y="196" type="curve" smooth="yes"/>
      <point x="375" y="288"/>
      <point x="331" y="347"/>
      <point x="238" y="396" type="curve"/>
      <point x="155" y="441"/>
      <point x="128" y="467"/>
      <point x="128" y="540" type="curve" smooth="yes"/>
      <point x="128" y="601"/>
      <point x="165" y="645"/>
      <point x="227" y="645" type="curve" smooth="yes"/>
      <point x="263" y="645"/>
      <point x="302" y="634"/>
      <point x="342" y="612" type="curve"/>
      <point x="369" y="689" type="line"/>
      <point x="332" y="708"/>
      <point x="281" y="724"/>
      <point x="225" y="724" type="curve"/>
      <point x="118" y="725"/>
      <point x="41" y="647"/>
      <point x="43" y="536" type="curve"/>
      <point x="43" y="423"/>
      <point x="95" y="378"/>
      <point x="180" y="332" type="curve" smooth="yes"/>
      <point x="262" y="289"/>
      <point x="290" y="257"/>
      <point x="290" y="188" type="curve" smooth="yes"/>
      <point x="290" y="123"/>
      <point x="251" y="69"/>
      <point x="184" y="69" type="curve" smooth="yes"/>
      <point x="139" y="69"/>
      <point x="83" y="82"/>
      <point x="38" y="108" type="curve"/>
      <point x="38" y="21" type="line"/>
      <point x="80" y="0"/>
      <point x="129" y="-10"/>
      <point x="187" y="-10" type="curve" smooth="yes"/>
      <point x="300" y="-10"/>
      <point x="375" y="75"/>
    </contour>
  </outline>
</glyph>
<glyph name="U" format="2">
  <advance width="522"/>
  <unicode hex="0055"/>
  <anchor x="263" y="0" name="bottom"/>
  <anchor x="261" y="714" name="top"/>
  <anchor x="502" y="714" name="topright"/>
  <outline>
    <contour>
      <point x="455" y="224" type="curve" smooth="yes"/>
      <point x="455" y="714" type="line"/>
      <point x="370" y="714" type="line"/>
      <point x="370" y="223" type="line" smooth="yes"/>
      <point x="370" y="111"/>
      <point x="334" y="67"/>
      <point x="262" y="67" type="curve" smooth="yes"/>
      <point x="191" y="67"/>
      <point x="151" y="112"/>
      <point x="151" y="222" type="curve" smooth="yes"/>
      <point x="151" y="714" type="line"/>
      <point x="67" y="714" type="line"/>
      <point x="67" y="223" type="line" smooth="yes"/>
      <point x="67" y="64"/>
      <point x="135" y="-10"/>
      <point x="262" y="-10" type="curve" smooth="yes"/>
      <point x="389" y="-10"/>
      <point x="455" y="62"/>
    </contour>
  </outline>
</glyph>
<glyph name="V" format="2">
  <advance width="441"/>
  <unicode hex="0056"/>
  <anchor x="219" y="0" name="bottom"/>
  <anchor x="223" y="714" name="top"/>
  <anchor x="421" y="714" name="topright"/>
  <outline>
    <contour>
      <point x="441" y="714" type="line"/>
      <point x="353" y="714" type="line"/>
      <point x="244" y="233" type="line" smooth="yes"/>
      <point x="234" y="188"/>
      <point x="225" y="138"/>
      <point x="219" y="95" type="curve"/>
      <point x="214" y="138"/>
      <point x="205" y="189"/>
      <point x="196" y="231" type="curve" smooth="yes"/>
      <point x="88" y="714" type="line"/>
      <point x="0" y="714" type="line"/>
      <point x="171" y="0" type="line"/>
      <point x="268" y="0" type="line"/>
    </contour>
  </outline>
</glyph>
<glyph name="W" format="2">
  <advance width="719"/>
  <unicode hex="0057"/>
  <anchor x="360" y="0" name="bottom"/>
  <anchor x="360" y="714" name="top"/>
  <anchor x="699" y="714" name="topright"/>
  <outline>
    <contour>
      <point x="716" y="714" type="line"/>
      <point x="631" y="714" type="line"/>
      <point x="543" y="276" type="line" smooth="yes"/>
      <point x="533" y="225"/>
      <point x="523" y="162"/>
      <point x="515" y="97" type="curve"/>
      <point x="507" y="166"/>
      <point x="497" y="223"/>
      <point x="487" y="275" type="curve" smooth="yes"/>
      <point x="400" y="714" type="line"/>
      <point x="321" y="714" type="line"/>
      <point x="232" y="274" type="line" smooth="yes"/>
      <point x="222" y="220"/>
      <point x="211" y="155"/>
      <point x="203" y="97" type="curve"/>
      <point x="199" y="140"/>
      <point x="188" y="205"/>
      <point x="175" y="276" type="curve" smooth="yes"/>
      <point x="89" y="714" type="line"/>
      <point x="4" y="714" type="line"/>
      <point x="152" y="0" type="line"/>
      <point x="250" y="0" type="line"/>
      <point x="340" y="456" type="line" smooth="yes"/>
      <point x="349" y="501"/>
      <point x="354" y="552"/>
      <point x="360" y="595" type="curve"/>
      <point x="368" y="527"/>
      <point x="375" y="479"/>
      <point x="379" y="455" type="curve" smooth="yes"/>
      <point x="470" y="0" type="line"/>
      <point x="570" y="0" type="line"/>
    </contour>
  </outline>
</glyph>
<glyph name="X" format="2">
  <advance width="400"/>
  <unicode hex="0058"/>
  <anchor x="200" y="0" name="bottom"/>
  <anchor x="206" y="714" name="top"/>
  <anchor x="380" y="714" name="topright"/>
  <outline>
    <contour>
      <point x="394" y="0" type="line"/>
      <point x="253" y="367" type="line"/>
      <point x="387" y="714" type="line"/>
      <point x="299" y="714" type="line"/>
      <point x="205" y="447" type="line"/>
      <point x="112" y="714" type="line"/>
      <point x="25" y="714" type="line"/>
      <point x="158" y="373" type="line"/>
      <point x="7" y="0" type="line"/>
      <point x="94" y="0" type="line"/>
      <point x="204" y="292" type="line"/>
      <point x="304" y="0" type="line"/>
    </contour>
  </outline>
</glyph>
<glyph name="Y" format="2">
  <advance width="392"/>
  <unicode hex="0059"/>
  <anchor x="196" y="0" name="bottom"/>
  <anchor x="196" y="714" name="top"/>
  <anchor x="372" y="714" name="topright"/>
  <outline>
    <contour>
      <point x="197" y="378" type="line"/>
      <point x="88" y="714" type="line"/>
      <point x="0" y="714" type="line"/>
      <point x="154" y="276" type="line"/>
      <point x="154" y="0" type="line"/>
      <point x="238" y="0" type="line"/>
      <point x="238" y="278" type="line"/>
      <point x="392" y="714" type="line"/>
      <point x="304" y="714" type="line"/>
    </contour>
  </outline>
</glyph>
<glyph name="Z" format="2">
  <advance width="361"/>
  <unicode hex="005A"/>
  <anchor x="187" y="0" name="bottom"/>
  <anchor x="181" y="714" name="top"/>
  <anchor x="341" y="714" name="topright"/>
  <outline>
    <contour>
      <point x="341" y="0" type="line"/>
      <point x="341" y="76" type="line"/>
      <point x="115" y="76" type="line"/>
      <point x="335" y="648" type="line"/>
      <point x="335" y="714" type="line"/>
      <point x="30" y="714" type="line"/>
      <point x="30" y="638" type="line"/>
      <point x="244" y="638" type="line"/>
      <point x="26" y="65" type="line"/>
      <point x="26" y="0" type="line"/>
    </contour>
  </outline>
</glyph>
<glyph name="backslash" format="2">
  <advance width="371"/>
  <unicode hex="005C"/>
  <outline>
    <contour>
      <point x="94" y="717" type="line"/>
      <point x="18" y="717" type="line"/>
      <point x="280" y="-3" type="line"/>
      <point x="357" y="-3" type="line"/>
    </contour>
  </outline>
</glyph>
<glyph name="bracketright" format="2">
  <advance width="312"/>
  <unicode hex="005D"/>
  <outline>
    <contour>
      <point x="31" y="-93" type="line"/>
      <point x="31" y="-161" type="line"/>
      <point x="240" y="-161" type="line"/>
      <point x="240" y="720" type="line"/>
      <point x="31" y="720" type="line"/>
      <point x="31" y="652" type="line"/>
      <point x="163" y="652" type="line"/>
      <point x="163" y="-93" type="line"/>
    </contour>
  </outline>
</glyph>
<glyph name="asciicircum" format="2">
  <advance width="442"/>
  <unicode hex="005E"/>
  <outline>
    <contour>
      <point x="15" y="332" type="line"/>
      <point x="93" y="332" type="line"/>
      <point x="221" y="609" type="line"/>
      <point x="349" y="332" type="line"/>
      <point x="428" y="332" type="line"/>
      <point x="245" y="713" type="line"/>
      <point x="197" y="713" type="line"/>
    </contour>
  </outline>
</glyph>
<glyph name="grave" format="2">
  <advance width="266"/>
  <unicode hex="0060"/>
  <outline>
    <contour>
      <point x="137" y="766" type="curve"/>
      <point x="40" y="766" type="line"/>
      <point x="40" y="757" type="line"/>
      <point x="66" y="714"/>
      <point x="134" y="640"/>
      <point x="174" y="606" type="curve"/>
      <point x="226" y="606" type="line"/>
      <point x="226" y="617" type="line"/>
      <point x="198" y="654"/>
      <point x="158" y="720"/>
    </contour>
  </outline>
</glyph>
<glyph name="a" format="2">
  <advance width="416"/>
  <unicode hex="0061"/>
  <anchor x="208" y="0" name="bottom"/>
  <anchor x="214" y="537" name="top"/>
  <anchor x="378" y="537" name="topright"/>
  <outline>
    <contour>
      <point x="213" y="547" type="curve" smooth="yes"/>
      <point x="162" y="547"/>
      <point x="115" y="534"/>
      <point x="73" y="508" type="curve"/>
      <point x="99" y="447" type="line"/>
      <point x="137" y="469"/>
      <point x="170" y="480"/>
      <point x="200" y="480" type="curve" smooth="yes"/>
      <point x="251" y="480"/>
      <point x="272" y="442"/>
      <point x="272" y="360" type="curve" smooth="yes"/>
      <point x="272" y="325" type="line"/>
      <point x="211" y="322" type="line" smooth="yes"/>
      <point x="98" y="317"/>
      <point x="34" y="256"/>
      <point x="34" y="150" type="curve" smooth="yes"/>
      <point x="34" y="65"/>
      <point x="71" y="-10"/>
      <point x="154" y="-10" type="curve" smooth="yes"/>
      <point x="210" y="-10"/>
      <point x="249" y="18"/>
      <point x="277" y="74" type="curve"/>
      <point x="279" y="74" type="line"/>
      <point x="291" y="0" type="line"/>
      <point x="353" y="0" type="line"/>
      <point x="353" y="362" type="line" smooth="yes"/>
      <point x="353" y="480"/>
      <point x="314" y="547"/>
    </contour>
    <contour>
      <point x="225" y="263" type="curve" smooth="yes"/>
      <point x="273" y="266" type="line"/>
      <point x="273" y="212" type="line" smooth="yes"/>
      <point x="273" y="114"/>
      <point x="238" y="56"/>
      <point x="182" y="56" type="curve" smooth="yes"/>
      <point x="141" y="56"/>
      <point x="117" y="86"/>
      <point x="117" y="152" type="curve" smooth="yes"/>
      <point x="117" y="222"/>
      <point x="152" y="259"/>
    </contour>
  </outline>
</glyph>
<glyph name="b" format="2">
  <advance width="462"/>
  <unicode hex="0062"/>
  <anchor x="247" y="0" name="bottom"/>
  <anchor x="244" y="760" name="top"/>
  <anchor x="411" y="760" name="topright"/>
  <outline>
    <contour>
      <point x="146" y="543" type="curve" smooth="yes"/>
      <point x="146" y="760" type="line"/>
      <point x="65" y="760" type="line"/>
      <point x="65" y="0" type="line"/>
      <point x="131" y="0" type="line"/>
      <point x="142" y="68" type="line"/>
      <point x="147" y="68" type="line"/>
      <point x="177" y="14"/>
      <point x="216" y="-10"/>
      <point x="267" y="-10" type="curve" smooth="yes"/>
      <point x="366" y="-10"/>
      <point x="421" y="90"/>
      <point x="421" y="269" type="curve" smooth="yes"/>
      <point x="421" y="450"/>
      <point x="366" y="546"/>
      <point x="264" y="546" type="curve" smooth="yes"/>
      <point x="215" y="546"/>
      <point x="176" y="520"/>
      <point x="147" y="466" type="curve"/>
      <point x="143" y="466" type="line"/>
      <point x="144" y="496"/>
      <point x="146" y="522"/>
    </contour>
    <contour>
      <point x="246" y="475" type="curve" smooth="yes"/>
      <point x="310" y="475"/>
      <point x="338" y="406"/>
      <point x="338" y="270" type="curve" smooth="yes"/>
      <point x="338" y="126"/>
      <point x="308" y="60"/>
      <point x="247" y="60" type="curve" smooth="yes"/>
      <point x="179" y="60"/>
      <point x="146" y="124"/>
      <point x="146" y="257" type="curve" smooth="yes"/>
      <point x="146" y="276" type="line" smooth="yes"/>
      <point x="146" y="390"/>
      <point x="165" y="475"/>
    </contour>
  </outline>
</glyph>
<glyph name="c" format="2">
  <advance width="347"/>
  <unicode hex="0063"/>
  <anchor x="217" y="0" name="bottom"/>
  <anchor x="208" y="537" name="top"/>
  <anchor x="317" y="537" name="topright"/>
  <outline>
    <contour>
      <point x="221" y="-10" type="curve" smooth="yes"/>
      <point x="251" y="-10"/>
      <point x="292" y="0"/>
      <point x="320" y="18" type="curve"/>
      <point x="320" y="86" type="line"/>
      <point x="289" y="70"/>
      <point x="259" y="61"/>
      <point x="230" y="61" type="curve" smooth="yes"/>
      <point x="161" y="61"/>
      <point x="126" y="129"/>
      <point x="126" y="266" type="curve" smooth="yes"/>
      <point x="126" y="404"/>
      <point x="161" y="475"/>
      <point x="229" y="475" type="curve" smooth="yes"/>
      <point x="252" y="475"/>
      <point x="276" y="468"/>
      <point x="301" y="455" type="curve"/>
      <point x="326" y="522" type="line"/>
      <point x="298" y="538"/>
      <point x="265" y="547"/>
      <point x="223" y="547" type="curve" smooth="yes"/>
      <point x="101" y="547"/>
      <point x="43" y="441"/>
      <point x="43" y="265" type="curve" smooth="yes"/>
      <point x="43" y="82"/>
      <point x="102" y="-10"/>
    </contour>
  </outline>
</glyph>
<glyph name="d" format="2">
  <advance width="462"/>
  <unicode hex="0064"/>
  <anchor x="228" y="0" name="bottom"/>
  <anchor x="231" y="268" name="center"/>
  <anchor x="193" y="760" name="top"/>
  <anchor x="423" y="760" name="topright"/>
  <outline>
    <contour>
      <point x="199" y="-10" type="curve" smooth="yes"/>
      <point x="251" y="-10"/>
      <point x="288" y="17"/>
      <point x="317" y="68" type="curve"/>
      <point x="322" y="68" type="line"/>
      <point x="333" y="0" type="line"/>
      <point x="398" y="0" type="line"/>
      <point x="398" y="760" type="line"/>
      <point x="317" y="760" type="line"/>
      <point x="317" y="542" type="line" smooth="yes"/>
      <point x="317" y="521"/>
      <point x="318" y="498"/>
      <point x="320" y="468" type="curve"/>
      <point x="316" y="468" type="line"/>
      <point x="289" y="519"/>
      <point x="245" y="547"/>
      <point x="196" y="547" type="curve" smooth="yes"/>
      <point x="97" y="547"/>
      <point x="42" y="447"/>
      <point x="42" y="268" type="curve" smooth="yes"/>
      <point x="42" y="87"/>
      <point x="96" y="-10"/>
    </contour>
    <contour>
      <point x="218" y="59" type="curve" smooth="yes"/>
      <point x="154" y="59"/>
      <point x="125" y="130"/>
      <point x="125" y="268" type="curve" smooth="yes"/>
      <point x="125" y="402"/>
      <point x="153" y="475"/>
      <point x="216" y="475" type="curve" smooth="yes"/>
      <point x="286" y="475"/>
      <point x="317" y="412"/>
      <point x="317" y="274" type="curve" smooth="yes"/>
      <point x="317" y="244" type="line" smooth="yes"/>
      <point x="317" y="120"/>
      <point x="283" y="59"/>
    </contour>
  </outline>
</glyph>
<glyph name="e" format="2">
  <advance width="418"/>
  <unicode hex="0065"/>
  <anchor x="230" y="0" name="bottom"/>
  <anchor x="212" y="537" name="top"/>
  <anchor x="398" y="537" name="topright"/>
  <outline>
    <contour>
      <point x="215" y="546" type="curve" smooth="yes"/>
      <point x="102" y="546"/>
      <point x="43" y="447"/>
      <point x="43" y="265" type="curve" smooth="yes"/>
      <point x="43" y="109"/>
      <point x="96" y="-10"/>
      <point x="233" y="-10" type="curve" smooth="yes"/>
      <point x="279" y="-10"/>
      <point x="320" y="1"/>
      <point x="358" y="24" type="curve"/>
      <point x="358" y="96" type="line"/>
      <point x="318" y="70"/>
      <point x="281" y="59"/>
      <point x="242" y="59" type="curve" smooth="yes"/>
      <point x="163" y="59"/>
      <point x="125" y="123"/>
      <point x="123" y="253" type="curve"/>
      <point x="378" y="253" type="line"/>
      <point x="378" y="309" type="line" smooth="yes"/>
      <point x="378" y="442"/>
      <point x="325" y="546"/>
    </contour>
    <contour>
      <point x="215" y="480" type="curve" smooth="yes"/>
      <point x="275" y="480"/>
      <point x="302" y="405"/>
      <point x="302" y="317" type="curve"/>
      <point x="124" y="317" type="line"/>
      <point x="129" y="428"/>
      <point x="160" y="480"/>
    </contour>
  </outline>
</glyph>
<glyph name="f" format="2">
  <advance width="253"/>
  <unicode hex="0066"/>
  <anchor x="114" y="0" name="bottom"/>
  <anchor x="188" y="765" name="top"/>
  <anchor x="267" y="765" name="topright"/>
  <outline>
    <contour>
      <point x="240" y="469" type="line"/>
      <point x="240" y="537" type="line"/>
      <point x="155" y="537" type="line"/>
      <point x="155" y="574" type="line"/>
      <point x="156" y="665"/>
      <point x="167" y="694"/>
      <point x="206" y="694" type="curve"/>
      <point x="221" y="694"/>
      <point x="237" y="690"/>
      <point x="255" y="684" type="curve"/>
      <point x="276" y="749" type="line"/>
      <point x="248" y="760"/>
      <point x="225" y="765"/>
      <point x="196" y="765" type="curve" smooth="yes"/>
      <point x="101" y="765"/>
      <point x="74" y="695"/>
      <point x="74" y="571" type="curve" smooth="yes"/>
      <point x="74" y="540" type="line"/>
      <point x="9" y="512" type="line"/>
      <point x="9" y="469" type="line"/>
      <point x="74" y="469" type="line"/>
      <point x="74" y="0" type="line"/>
      <point x="155" y="0" type="line"/>
      <point x="155" y="469" type="line"/>
    </contour>
  </outline>
</glyph>
<glyph name="g" format="2">
  <advance width="462"/>
  <unicode hex="0067"/>
  <anchor x="201" y="-240" name="bottom"/>
  <anchor x="239" y="537" name="top"/>
  <anchor x="423" y="537" name="topright"/>
  <outline>
    <contour>
      <point x="199" y="547" type="curve" smooth="yes"/>
      <point x="101" y="547"/>
      <point x="42" y="452"/>
      <point x="42" y="266" type="curve" smooth="yes"/>
      <point x="42" y="85"/>
      <point x="98" y="-10"/>
      <point x="196" y="-10" type="curve" smooth="yes"/>
      <point x="250" y="-10"/>
      <point x="288" y="18"/>
      <point x="317" y="75" type="curve"/>
      <point x="321" y="75" type="line"/>
      <point x="318" y="43"/>
      <point x="317" y="13"/>
      <point x="317" y="-9" type="curve" smooth="yes"/>
      <point x="317" y="-25" type="line" smooth="yes"/>
      <point x="317" y="-129"/>
      <point x="275" y="-168"/>
      <point x="193" y="-168" type="curve" smooth="yes"/>
      <point x="153" y="-168"/>
      <point x="113" y="-156"/>
      <point x="68" y="-132" type="curve"/>
      <point x="68" y="-209" type="line"/>
      <point x="107" y="-230"/>
      <point x="146" y="-240"/>
      <point x="195" y="-240" type="curve" smooth="yes"/>
      <point x="337" y="-240"/>
      <point x="398" y="-155"/>
      <point x="398" y="-6" type="curve" smooth="yes"/>
      <point x="398" y="537" type="line"/>
      <point x="330" y="537" type="line"/>
      <point x="321" y="466" type="line"/>
      <point x="316" y="466" type="line"/>
      <point x="287" y="523"/>
      <point x="250" y="547"/>
    </contour>
    <contour>
      <point x="216" y="475" type="curve" smooth="yes"/>
      <point x="286" y="475"/>
      <point x="317" y="412"/>
      <point x="317" y="270" type="curve" smooth="yes"/>
      <point x="317" y="245" type="line" smooth="yes"/>
      <point x="317" y="123"/>
      <point x="283" y="61"/>
      <point x="219" y="61" type="curve" smooth="yes"/>
      <point x="155" y="61"/>
      <point x="125" y="123"/>
      <point x="125" y="265" type="curve" smooth="yes"/>
      <point x="125" y="402"/>
      <point x="153" y="475"/>
    </contour>
  </outline>
</glyph>
<glyph name="h" format="2">
  <advance width="456"/>
  <unicode hex="0068"/>
  <anchor x="232" y="0" name="bottom"/>
  <anchor x="229" y="268" name="center"/>
  <anchor x="106" y="760" name="top"/>
  <anchor x="416" y="760" name="topright"/>
  <outline>
    <contour>
      <point x="146" y="545" type="curve" smooth="yes"/>
      <point x="146" y="760" type="line"/>
      <point x="65" y="760" type="line"/>
      <point x="65" y="0" type="line"/>
      <point x="146" y="0" type="line"/>
      <point x="146" y="279" type="line" smooth="yes"/>
      <point x="146" y="413"/>
      <point x="175" y="474"/>
      <point x="244" y="474" type="curve" smooth="yes"/>
      <point x="293" y="474"/>
      <point x="312" y="438"/>
      <point x="312" y="348" type="curve" smooth="yes"/>
      <point x="312" y="0" type="line"/>
      <point x="393" y="0" type="line"/>
      <point x="393" y="364" type="line" smooth="yes"/>
      <point x="393" y="483"/>
      <point x="353" y="547"/>
      <point x="261" y="547" type="curve" smooth="yes"/>
      <point x="211" y="547"/>
      <point x="166" y="517"/>
      <point x="146" y="465" type="curve"/>
      <point x="140" y="465" type="line"/>
      <point x="144" y="489"/>
      <point x="146" y="516"/>
    </contour>
  </outline>
</glyph>
<glyph name="j" format="2">
  <advance width="211"/>
  <unicode hex="006A"/>
  <anchor x="36" y="-240" name="bottom"/>
  <anchor x="106" y="739" name="top"/>
  <anchor x="191" y="739" name="topright"/>
  <outline>
    <contour>
      <point x="36" y="-240" type="curve" smooth="yes"/>
      <point x="108" y="-239"/>
      <point x="146" y="-190"/>
      <point x="146" y="-82" type="curve" smooth="yes"/>
      <point x="146" y="537" type="line"/>
      <point x="65" y="537" type="line"/>
      <point x="65" y="-83" type="line" smooth="yes"/>
      <point x="65" y="-141"/>
      <point x="53" y="-167"/>
      <point x="22" y="-167" type="curve" smooth="yes"/>
      <point x="11" y="-167"/>
      <point x="-1" y="-164"/>
      <point x="-13" y="-159" type="curve"/>
      <point x="-13" y="-231" type="line"/>
      <point x="1" y="-237"/>
      <point x="17" y="-240"/>
    </contour>
    <contour>
      <point x="59" y="681" type="curve" smooth="yes"/>
      <point x="59" y="645"/>
      <point x="77" y="624"/>
      <point x="107" y="624" type="curve" smooth="yes"/>
      <point x="137" y="624"/>
      <point x="153" y="645"/>
      <point x="153" y="681" type="curve" smooth="yes"/>
      <point x="153" y="718"/>
      <point x="138" y="739"/>
      <point x="107" y="739" type="curve" smooth="yes"/>
      <point x="76" y="739"/>
      <point x="59" y="719"/>
    </contour>
  </outline>
</glyph>
<glyph name="k" format="2">
  <advance width="399"/>
  <unicode hex="006B"/>
  <anchor x="215" y="0" name="bottom"/>
  <anchor x="106" y="760" name="top"/>
  <anchor x="265" y="840" name="topright"/>
  <outline>
    <contour>
      <point x="146" y="383" type="curve" smooth="yes"/>
      <point x="146" y="760" type="line"/>
      <point x="65" y="760" type="line"/>
      <point x="65" y="0" type="line"/>
      <point x="146" y="0" type="line"/>
      <point x="146" y="199" type="line"/>
      <point x="201" y="265" type="line"/>
      <point x="308" y="0" type="line"/>
      <point x="395" y="0" type="line"/>
      <point x="256" y="330" type="line"/>
      <point x="386" y="537" type="line"/>
      <point x="299" y="537" type="line"/>
      <point x="179" y="338" type="line"/>
      <point x="167" y="319"/>
      <point x="156" y="298"/>
      <point x="145" y="276" type="curve"/>
      <point x="141" y="276" type="line"/>
      <point x="144" y="311"/>
      <point x="146" y="346"/>
    </contour>
  </outline>
</glyph>
<glyph name="l" format="2">
  <advance width="210"/>
  <unicode hex="006C"/>
  <anchor x="106" y="0" name="bottom"/>
  <anchor x="105" y="269" name="center"/>
  <anchor x="106" y="760" name="top"/>
  <anchor x="167" y="760" name="topright"/>
  <outline>
    <contour>
      <point x="146" y="0" type="line"/>
      <point x="146" y="760" type="line"/>
      <point x="65" y="760" type="line"/>
      <point x="65" y="0" type="line"/>
    </contour>
  </outline>
</glyph>
<glyph name="v" format="2">
  <advance width="370"/>
  <unicode hex="0076"/>
  <anchor x="185" y="0" name="bottom"/>
  <anchor x="186" y="537" name="top"/>
  <anchor x="350" y="537" name="topright"/>
  <outline>
    <contour>
      <point x="139" y="0" type="line"/>
      <point x="229" y="0" type="line"/>
      <point x="366" y="537" type="line"/>
      <point x="283" y="537" type="line"/>
      <point x="205" y="197" type="line" smooth="yes"/>
      <point x="195" y="153"/>
      <point x="188" y="116"/>
      <point x="186" y="93" type="curve"/>
      <point x="182" y="93" type="line"/>
      <point x="176" y="137"/>
      <point x="168" y="178"/>
      <point x="159" y="218" type="curve" smooth="yes"/>
      <point x="87" y="537" type="line"/>
      <point x="4" y="537" type="line"/>
    </contour>
  </outline>
</glyph>
<glyph name="w" format="2">
  <advance width="605"/>
  <unicode hex="0077"/>
  <anchor x="301" y="0" name="bottom"/>
  <anchor x="302" y="537" name="top"/>
  <anchor x="585" y="537" name="topright"/>
  <outline>
    <contour>
      <point x="322" y="325" type="curve"/>
      <point x="384" y="0" type="line"/>
      <point x="478" y="0" type="line"/>
      <point x="596" y="537" type="line"/>
      <point x="517" y="537" type="line"/>
      <point x="450" y="212" type="line"/>
      <point x="441" y="164"/>
      <point x="435" y="124"/>
      <point x="433" y="98" type="curve"/>
      <point x="430" y="98" type="line"/>
      <point x="420" y="170"/>
      <point x="411" y="227"/>
      <point x="403" y="264" type="curve"/>
      <point x="348" y="537" type="line"/>
      <point x="258" y="537" type="line"/>
      <point x="202" y="265" type="line" smooth="yes"/>
      <point x="189" y="202"/>
      <point x="181" y="146"/>
      <point x="175" y="98" type="curve"/>
      <point x="172" y="98" type="line"/>
      <point x="164" y="155"/>
      <point x="154" y="214"/>
      <point x="144" y="269" type="curve"/>
      <point x="90" y="537" type="line"/>
      <point x="9" y="537" type="line"/>
      <point x="124" y="0" type="line"/>
      <point x="217" y="0" type="line"/>
      <point x="283" y="325" type="line"/>
      <point x="290" y="361"/>
      <point x="296" y="404"/>
      <point x="302" y="443" type="curve"/>
      <point x="304" y="443" type="line"/>
      <point x="309" y="406"/>
      <point x="315" y="363"/>
    </contour>
  </outline>
</glyph>
<glyph name="x" format="2">
  <advance width="373"/>
  <unicode hex="0078"/>
  <anchor x="187" y="0" name="bottom"/>
  <anchor x="190" y="537" name="top"/>
  <anchor x="353" y="537" name="topright"/>
  <outline>
    <contour>
      <point x="141" y="277" type="line"/>
      <point x="14" y="0" type="line"/>
      <point x="99" y="0" type="line"/>
      <point x="186" y="207" type="line"/>
      <point x="274" y="0" type="line"/>
      <point x="360" y="0" type="line"/>
      <point x="235" y="273" type="line"/>
      <point x="355" y="537" type="line"/>
      <point x="269" y="537" type="line"/>
      <point x="188" y="343" type="line"/>
      <point x="109" y="537" type="line"/>
      <point x="22" y="537" type="line"/>
    </contour>
  </outline>
</glyph>
<glyph name="y" format="2">
  <advance width="370"/>
  <unicode hex="0079"/>
  <anchor x="74" y="-240" name="bottom"/>
  <anchor x="185" y="537" name="top"/>
  <anchor x="350" y="537" name="topright"/>
  <outline>
    <contour>
      <point x="4" y="537" type="line"/>
      <point x="146" y="3" type="line"/>
      <point x="129" y="-65" type="line"/>
      <point x="109" y="-141"/>
      <point x="92" y="-167"/>
      <point x="53" y="-167" type="curve" smooth="yes"/>
      <point x="41" y="-167"/>
      <point x="27" y="-164"/>
      <point x="14" y="-160" type="curve"/>
      <point x="14" y="-232" type="line"/>
      <point x="32" y="-237"/>
      <point x="48" y="-240"/>
      <point x="64" y="-240" type="curve" smooth="yes"/>
      <point x="137" y="-240"/>
      <point x="178" y="-191"/>
      <point x="208" y="-81" type="curve" smooth="yes"/>
      <point x="366" y="537" type="line"/>
      <point x="283" y="537" type="line"/>
      <point x="212" y="233" type="line" smooth="yes"/>
      <point x="201" y="188"/>
      <point x="193" y="148"/>
      <point x="188" y="111" type="curve"/>
      <point x="184" y="111" type="line"/>
      <point x="178" y="153"/>
      <point x="169" y="195"/>
      <point x="161" y="233" type="curve" smooth="yes"/>
      <point x="88" y="537" type="line"/>
    </contour>
  </outline>
</glyph>
<glyph name="z" format="2">
  <advance width="303"/>
  <unicode hex="007A"/>
  <anchor x="159" y="0" name="bottom"/>
  <anchor x="158" y="537" name="top"/>
  <anchor x="283" y="537" name="topright"/>
  <outline>
    <contour>
      <point x="282" y="0" type="line"/>
      <point x="282" y="69" type="line"/>
      <point x="115" y="69" type="line"/>
      <point x="275" y="478" type="line"/>
      <point x="275" y="537" type="line"/>
      <point x="35" y="537" type="line"/>
      <point x="35" y="468" type="line"/>
      <point x="186" y="468" type="line"/>
      <point x="25" y="55" type="line"/>
      <point x="25" y="0" type="line"/>
    </contour>
  </outline>
</glyph>
<glyph name="braceleft" format="2">
  <advance width="362"/>
  <unicode hex="007B"/>
  <outline>
    <contour>
      <point x="320" y="-161" type="curve"/>
      <point x="320" y="-95" type="line"/>
      <point x="250" y="-94"/>
      <point x="221" y="-65"/>
      <point x="221" y="1" type="curve" smooth="yes"/>
      <point x="221" y="151" type="line" smooth="yes"/>
      <point x="221" y="221"/>
      <point x="198" y="263"/>
      <point x="128" y="276" type="curve"/>
      <point x="128" y="280" type="line"/>
      <point x="196" y="292"/>
      <point x="221" y="331"/>
      <point x="221" y="405" type="curve" smooth="yes"/>
      <point x="221" y="555" type="line" smooth="yes"/>
      <point x="221" y="624"/>
      <point x="254" y="649"/>
      <point x="320" y="651" type="curve"/>
      <point x="320" y="717" type="line"/>
      <point x="195" y="715"/>
      <point x="142" y="662"/>
      <point x="142" y="558" type="curve" smooth="yes"/>
      <point x="142" y="407" type="line" smooth="yes"/>
      <point x="142" y="332"/>
      <point x="110" y="309"/>
      <point x="41" y="309" type="curve"/>
      <point x="41" y="247" type="line"/>
      <point x="118" y="247"/>
      <point x="142" y="215"/>
      <point x="142" y="149" type="curve" smooth="yes"/>
      <point x="142" y="-1" type="line" smooth="yes"/>
      <point x="142" y="-109"/>
      <point x="199" y="-159"/>
    </contour>
  </outline>
</glyph>
<glyph name="bar" format="2">
  <advance width="405"/>
  <unicode hex="007C"/>
  <outline>
    <contour>
      <point x="165" y="763" type="line"/>
      <point x="165" y="-237" type="line"/>
      <point x="240" y="-237" type="line"/>
      <point x="240" y="763" type="line"/>
    </contour>
  </outline>
</glyph>
<glyph name="braceright" format="2">
  <advance width="362"/>
  <unicode hex="007D"/>
  <outline>
    <contour>
      <point x="41" y="-95" type="curve"/>
      <point x="41" y="-161" type="line"/>
      <point x="167" y="-159"/>
      <point x="219" y="-106"/>
      <point x="219" y="-1" type="curve" smooth="yes"/>
      <point x="219" y="149" type="line" smooth="yes"/>
      <point x="219" y="219"/>
      <point x="246" y="247"/>
      <point x="320" y="247" type="curve"/>
      <point x="320" y="309" type="line"/>
      <point x="240" y="309"/>
      <point x="219" y="343"/>
      <point x="219" y="407" type="curve" smooth="yes"/>
      <point x="219" y="558" type="line" smooth="yes"/>
      <point x="219" y="665"/>
      <point x="161" y="715"/>
      <point x="41" y="717" type="curve"/>
      <point x="41" y="651" type="line"/>
      <point x="105" y="649"/>
      <point x="140" y="624"/>
      <point x="140" y="555" type="curve" smooth="yes"/>
      <point x="140" y="405" type="line" smooth="yes"/>
      <point x="140" y="331"/>
      <point x="166" y="292"/>
      <point x="233" y="280" type="curve"/>
      <point x="233" y="276" type="line"/>
      <point x="166" y="263"/>
      <point x="140" y="224"/>
      <point x="140" y="151" type="curve" smooth="yes"/>
      <point x="140" y="1" type="line" smooth="yes"/>
      <point x="140" y="-66"/>
      <point x="111" y="-94"/>
    </contour>
  </outline>
</glyph>
<glyph name="asciitilde" format="2">
  <advance width="430"/>
  <unicode hex="007E"/>
  <outline>
    <contour>
      <point x="205" y="320" type="curve" smooth="yes"/>
      <point x="242" y="301"/>
      <point x="265" y="291"/>
      <point x="305" y="291" type="curve" smooth="yes"/>
      <point x="343" y="291"/>
      <point x="376" y="309"/>
      <point x="402" y="340" type="curve"/>
      <point x="402" y="417" type="line"/>
      <point x="375" y="383"/>
      <point x="340" y="359"/>
      <point x="309" y="359" type="curve" smooth="yes"/>
      <point x="284" y="359"/>
      <point x="259" y="368"/>
      <point x="225" y="386" type="curve" smooth="yes"/>
      <point x="190" y="404"/>
      <point x="163" y="416"/>
      <point x="126" y="416" type="curve" smooth="yes"/>
      <point x="87" y="416"/>
      <point x="55" y="398"/>
      <point x="29" y="365" type="curve"/>
      <point x="29" y="288" type="line"/>
      <point x="59" y="325"/>
      <point x="93" y="347"/>
      <point x="122" y="347" type="curve" smooth="yes"/>
      <point x="146" y="347"/>
      <point x="175" y="337"/>
    </contour>
  </outline>
</glyph>
<glyph name="exclamdown" format="2">
  <advance width="235"/>
  <unicode hex="00A1"/>
  <outline>
    <contour>
      <point x="87" y="330" type="line"/>
      <point x="68" y="-188" type="line"/>
      <point x="166" y="-188" type="line"/>
      <point x="148" y="330" type="line"/>
    </contour>
    <contour>
      <point x="173" y="476" type="curve" smooth="yes"/>
      <point x="173" y="520"/>
      <point x="150" y="541"/>
      <point x="119" y="541" type="curve" smooth="yes"/>
      <point x="83" y="541"/>
      <point x="65" y="518"/>
      <point x="65" y="476" type="curve" smooth="yes"/>
      <point x="65" y="434"/>
      <point x="83" y="412"/>
      <point x="119" y="412" type="curve" smooth="yes"/>
      <point x="151" y="412"/>
      <point x="173" y="431"/>
    </contour>
  </outline>
</glyph>
<glyph name="cent" format="2">
  <advance width="429"/>
  <unicode hex="00A2"/>
  <outline>
    <contour>
      <point x="271" y="644" type="curve"/>
      <point x="271" y="724" type="line"/>
      <point x="218" y="724" type="line"/>
      <point x="218" y="641" type="line"/>
      <point x="121" y="624"/>
      <point x="74" y="524"/>
      <point x="74" y="363" type="curve" smooth="yes"/>
      <point x="74" y="202"/>
      <point x="120" y="104"/>
      <point x="218" y="90" type="curve"/>
      <point x="218" y="-10" type="line"/>
      <point x="271" y="-10" type="line"/>
      <point x="271" y="89" type="line"/>
      <point x="303" y="93"/>
      <point x="330" y="102"/>
      <point x="351" y="115" type="curve"/>
      <point x="351" y="185" type="line"/>
      <point x="320" y="169"/>
      <point x="288" y="159"/>
      <point x="260" y="159" type="curve" smooth="yes"/>
      <point x="190" y="159"/>
      <point x="157" y="224"/>
      <point x="157" y="364" type="curve" smooth="yes"/>
      <point x="157" y="502"/>
      <point x="189" y="571"/>
      <point x="261" y="571" type="curve" smooth="yes"/>
      <point x="281" y="571"/>
      <point x="307" y="565"/>
      <point x="332" y="551" type="curve"/>
      <point x="357" y="619" type="line"/>
      <point x="333" y="633"/>
      <point x="304" y="641"/>
    </contour>
  </outline>
</glyph>
<glyph name="sterling" format="2">
  <advance width="429"/>
  <unicode hex="00A3"/>
  <outline>
    <contour>
      <point x="261" y="724" type="curve" smooth="yes"/>
      <point x="162" y="724"/>
      <point x="113" y="662"/>
      <point x="113" y="536" type="curve" smooth="yes"/>
      <point x="113" y="391" type="line"/>
      <point x="40" y="391" type="line"/>
      <point x="40" y="326" type="line"/>
      <point x="113" y="326" type="line"/>
      <point x="113" y="211" type="line" smooth="yes"/>
      <point x="113" y="137"/>
      <point x="89" y="92"/>
      <point x="44" y="70" type="curve"/>
      <point x="44" y="0" type="line"/>
      <point x="390" y="0" type="line"/>
      <point x="390" y="76" type="line"/>
      <point x="135" y="76" type="line"/>
      <point x="176" y="103"/>
      <point x="196" y="148"/>
      <point x="196" y="212" type="curve" smooth="yes"/>
      <point x="196" y="326" type="line"/>
      <point x="319" y="326" type="line"/>
      <point x="319" y="391" type="line"/>
      <point x="196" y="391" type="line"/>
      <point x="196" y="536" type="line" smooth="yes"/>
      <point x="196" y="615"/>
      <point x="216" y="649"/>
      <point x="265" y="649" type="curve" smooth="yes"/>
      <point x="295" y="649"/>
      <point x="322" y="639"/>
      <point x="356" y="616" type="curve"/>
      <point x="387" y="682" type="line"/>
      <point x="349" y="710"/>
      <point x="308" y="724"/>
    </contour>
  </outline>
</glyph>
<glyph name="currency" format="2">
  <advance width="551"/>
  <unicode hex="00A4"/>
  <outline>
    <contour>
      <point x="82" y="353" type="curve" smooth="yes"/>
      <point x="82" y="311"/>
      <point x="94" y="273"/>
      <point x="119" y="239" type="curve"/>
      <point x="55" y="175" type="line"/>
      <point x="96" y="133" type="line"/>
      <point x="160" y="198" type="line"/>
      <point x="192" y="173"/>
      <point x="230" y="160"/>
      <point x="275" y="160" type="curve" smooth="yes"/>
      <point x="316" y="160"/>
      <point x="355" y="173"/>
      <point x="388" y="197" type="curve"/>
      <point x="454" y="132" type="line"/>
      <point x="495" y="173" type="line"/>
      <point x="431" y="238" type="line"/>
      <point x="455" y="272"/>
      <point x="468" y="310"/>
      <point x="468" y="353" type="curve" smooth="yes"/>
      <point x="468" y="395"/>
      <point x="455" y="434"/>
      <point x="431" y="467" type="curve"/>
      <point x="496" y="533" type="line"/>
      <point x="453" y="573" type="line"/>
      <point x="388" y="508" type="line"/>
      <point x="355" y="534"/>
      <point x="317" y="546"/>
      <point x="275" y="546" type="curve" smooth="yes"/>
      <point x="232" y="546"/>
      <point x="194" y="533"/>
      <point x="160" y="507" type="curve"/>
      <point x="96" y="573" type="line"/>
      <point x="54" y="532" type="line"/>
      <point x="119" y="466" type="line"/>
      <point x="94" y="432"/>
      <point x="82" y="394"/>
    </contour>
    <contour>
      <point x="139" y="353" type="curve" smooth="yes"/>
      <point x="139" y="427"/>
      <point x="201" y="490"/>
      <point x="275" y="490" type="curve" smooth="yes"/>
      <point x="349" y="490"/>
      <point x="412" y="426"/>
      <point x="412" y="353" type="curve" smooth="yes"/>
      <point x="412" y="280"/>
      <point x="354" y="217"/>
      <point x="275" y="217" type="curve" smooth="yes"/>
      <point x="198" y="217"/>
      <point x="139" y="278"/>
    </contour>
  </outline>
</glyph>
<glyph name="yen" format="2">
  <advance width="429"/>
  <unicode hex="00A5"/>
  <outline>
    <contour>
      <point x="214" y="378" type="line"/>
      <point x="121" y="714" type="line"/>
      <point x="36" y="714" type="line"/>
      <point x="154" y="334" type="line"/>
      <point x="60" y="334" type="line"/>
      <point x="60" y="275" type="line"/>
      <point x="171" y="275" type="line"/>
      <point x="171" y="189" type="line"/>
      <point x="60" y="189" type="line"/>
      <point x="60" y="130" type="line"/>
      <point x="171" y="130" type="line"/>
      <point x="171" y="0" type="line"/>
      <point x="255" y="0" type="line"/>
      <point x="255" y="130" type="line"/>
      <point x="368" y="130" type="line"/>
      <point x="368" y="189" type="line"/>
      <point x="255" y="189" type="line"/>
      <point x="255" y="275" type="line"/>
      <point x="368" y="275" type="line"/>
      <point x="368" y="334" type="line"/>
      <point x="271" y="334" type="line"/>
      <point x="390" y="714" type="line"/>
      <point x="304" y="714" type="line"/>
    </contour>
  </outline>
</glyph>
<glyph name="brokenbar" format="2">
  <advance width="405"/>
  <unicode hex="00A6"/>
  <outline>
    <contour>
      <point x="165" y="759" type="line"/>
      <point x="165" y="368" type="line"/>
      <point x="240" y="368" type="line"/>
      <point x="240" y="759" type="line"/>
    </contour>
    <contour>
      <point x="165" y="155" type="line"/>
      <point x="165" y="-237" type="line"/>
      <point x="240" y="-237" type="line"/>
      <point x="240" y="155" type="line"/>
    </contour>
  </outline>
</glyph>
<glyph name="section" format="2">
  <advance width="370"/>
  <unicode hex="00A7"/>
  <outline>
    <contour>
      <point x="39" y="408" type="curve" smooth="yes"/>
      <point x="39" y="348"/>
      <point x="69" y="314"/>
      <point x="148" y="269" type="curve" smooth="yes"/>
      <point x="223" y="226"/>
      <point x="247" y="211"/>
      <point x="247" y="164" type="curve" smooth="yes"/>
      <point x="247" y="121"/>
      <point x="214" y="89"/>
      <point x="161" y="89" type="curve" smooth="yes"/>
      <point x="120" y="89"/>
      <point x="71" y="106"/>
      <point x="40" y="131" type="curve"/>
      <point x="40" y="60" type="line"/>
      <point x="73" y="39"/>
      <point x="114" y="28"/>
      <point x="163" y="28" type="curve" smooth="yes"/>
      <point x="258" y="28"/>
      <point x="321" y="82"/>
      <point x="321" y="168" type="curve" smooth="yes"/>
      <point x="321" y="211"/>
      <point x="304" y="245"/>
      <point x="264" y="278" type="curve"/>
      <point x="300" y="301"/>
      <point x="323" y="345"/>
      <point x="323" y="395" type="curve" smooth="yes"/>
      <point x="323" y="466"/>
      <point x="281" y="502"/>
      <point x="204" y="542" type="curve" smooth="yes"/>
      <point x="151" y="571"/>
      <point x="122" y="591"/>
      <point x="122" y="635" type="curve" smooth="yes"/>
      <point x="122" y="674"/>
      <point x="150" y="700"/>
      <point x="197" y="700" type="curve" smooth="yes"/>
      <point x="226" y="700"/>
      <point x="253" y="692"/>
      <point x="288" y="671" type="curve"/>
      <point x="314" y="729" type="line"/>
      <point x="274" y="751"/>
      <point x="242" y="760"/>
      <point x="196" y="760" type="curve" smooth="yes"/>
      <point x="113" y="760"/>
      <point x="49" y="713"/>
      <point x="49" y="631" type="curve" smooth="yes"/>
      <point x="49" y="588"/>
      <point x="69" y="551"/>
      <point x="111" y="521" type="curve"/>
      <point x="66" y="499"/>
      <point x="39" y="459"/>
    </contour>
    <contour>
      <point x="109" y="418" type="curve" smooth="yes"/>
      <point x="109" y="451"/>
      <point x="126" y="479"/>
      <point x="159" y="491" type="curve"/>
      <point x="239" y="446"/>
      <point x="254" y="429"/>
      <point x="254" y="384" type="curve" smooth="yes"/>
      <point x="254" y="351"/>
      <point x="242" y="326"/>
      <point x="217" y="310" type="curve"/>
      <point x="181" y="329" type="line"/>
      <point x="139" y="354"/>
      <point x="109" y="378"/>
    </contour>
  </outline>
</glyph>
<glyph name="dieresis" format="2">
  <advance width="524"/>
  <unicode hex="00A8"/>
  <outline>
    <contour>
      <point x="137" y="668" type="curve" smooth="yes"/>
      <point x="137" y="633"/>
      <point x="156" y="616"/>
      <point x="180" y="616" type="curve" smooth="yes"/>
      <point x="204" y="616"/>
      <point x="222" y="633"/>
      <point x="222" y="668" type="curve" smooth="yes"/>
      <point x="222" y="701"/>
      <point x="204" y="718"/>
      <point x="180" y="718" type="curve" smooth="yes"/>
      <point x="156" y="718"/>
      <point x="137" y="702"/>
    </contour>
    <contour>
      <point x="300" y="668" type="curve" smooth="yes"/>
      <point x="300" y="633"/>
      <point x="318" y="616"/>
      <point x="343" y="616" type="curve" smooth="yes"/>
      <point x="367" y="616"/>
      <point x="386" y="633"/>
      <point x="386" y="668" type="curve" smooth="yes"/>
      <point x="386" y="701"/>
      <point x="367" y="718"/>
      <point x="343" y="718" type="curve" smooth="yes"/>
      <point x="319" y="718"/>
      <point x="300" y="702"/>
    </contour>
  </outline>
</glyph>
<glyph name="copyright" format="2">
  <advance width="830"/>
  <unicode hex="00A9"/>
  <outline>
    <contour>
      <point x="415" y="-10" type="curve" smooth="yes"/>
      <point x="626" y="-10"/>
      <point x="782" y="144"/>
      <point x="782" y="357" type="curve" smooth="yes"/>
      <point x="782" y="563"/>
      <point x="632" y="724"/>
      <point x="415" y="724" type="curve" smooth="yes"/>
      <point x="211" y="724"/>
      <point x="48" y="575"/>
      <point x="48" y="357" type="curve" smooth="yes"/>
      <point x="48" y="158"/>
      <point x="189" y="-10"/>
    </contour>
    <contour>
      <point x="429" y="134" type="curve" smooth="yes"/>
      <point x="468" y="134"/>
      <point x="505" y="142"/>
      <point x="540" y="158" type="curve"/>
      <point x="540" y="219" type="line"/>
      <point x="503" y="203"/>
      <point x="467" y="195"/>
      <point x="434" y="195" type="curve" smooth="yes"/>
      <point x="348" y="195"/>
      <point x="304" y="246"/>
      <point x="304" y="358" type="curve" smooth="yes"/>
      <point x="304" y="460"/>
      <point x="354" y="518"/>
      <point x="436" y="518" type="curve" smooth="yes"/>
      <point x="467" y="518"/>
      <point x="499" y="511"/>
      <point x="533" y="495" type="curve"/>
      <point x="559" y="551" type="line"/>
      <point x="519" y="570"/>
      <point x="477" y="579"/>
      <point x="434" y="579" type="curve" smooth="yes"/>
      <point x="308" y="579"/>
      <point x="231" y="492"/>
      <point x="231" y="355" type="curve" smooth="yes"/>
      <point x="231" y="213"/>
      <point x="303" y="134"/>
    </contour>
    <contour>
      <point x="415" y="43" type="curve" smooth="yes"/>
      <point x="240" y="43"/>
      <point x="104" y="169"/>
      <point x="104" y="357" type="curve" smooth="yes"/>
      <point x="104" y="533"/>
      <point x="230" y="671"/>
      <point x="415" y="671" type="curve" smooth="yes"/>
      <point x="593" y="671"/>
      <point x="725" y="539"/>
      <point x="725" y="357" type="curve" smooth="yes"/>
      <point x="725" y="181"/>
      <point x="600" y="43"/>
    </contour>
  </outline>
</glyph>
<glyph name="ordfeminine" format="2">
  <advance width="302"/>
  <unicode hex="00AA"/>
  <anchor x="132" y="382" name="bottom"/>
  <anchor x="142" y="725" name="top"/>
  <outline>
    <contour>
      <point x="153" y="722" type="curve" smooth="yes"/>
      <point x="116" y="722"/>
      <point x="84" y="713"/>
      <point x="51" y="695" type="curve"/>
      <point x="70" y="649" type="line"/>
      <point x="96" y="663"/>
      <point x="119" y="671"/>
      <point x="143" y="671" type="curve" smooth="yes"/>
      <point x="177" y="671"/>
      <point x="190" y="653"/>
      <point x="190" y="612" type="curve" smooth="yes"/>
      <point x="190" y="586" type="line"/>
      <point x="149" y="583" type="line" smooth="yes"/>
      <point x="69" y="577"/>
      <point x="26" y="547"/>
      <point x="26" y="480" type="curve" smooth="yes"/>
      <point x="26" y="424"/>
      <point x="58" y="382"/>
      <point x="107" y="382" type="curve" smooth="yes"/>
      <point x="147" y="382"/>
      <point x="175" y="400"/>
      <point x="198" y="437" type="curve"/>
      <point x="209" y="388" type="line"/>
      <point x="252" y="388" type="line"/>
      <point x="252" y="609" type="line"/>
      <point x="252" y="685"/>
      <point x="221" y="722"/>
    </contour>
    <contour>
      <point x="160" y="541" type="curve" smooth="yes"/>
      <point x="190" y="544" type="line"/>
      <point x="190" y="519" type="line" smooth="yes"/>
      <point x="190" y="465"/>
      <point x="167" y="432"/>
      <point x="129" y="432" type="curve" smooth="yes"/>
      <point x="102" y="432"/>
      <point x="88" y="448"/>
      <point x="88" y="481" type="curve" smooth="yes"/>
      <point x="88" y="520"/>
      <point x="109" y="537"/>
    </contour>
  </outline>
</glyph>
<glyph name="guillemotleft" format="2">
  <advance width="460"/>
  <unicode hex="00AB"/>
  <outline>
    <contour>
      <point x="35" y="271" type="line"/>
      <point x="35" y="257" type="line"/>
      <point x="179" y="63" type="line"/>
      <point x="236" y="94" type="line"/>
      <point x="130" y="264" type="line"/>
      <point x="236" y="436" type="line"/>
      <point x="179" y="465" type="line"/>
    </contour>
    <contour>
      <point x="224" y="271" type="line"/>
      <point x="224" y="257" type="line"/>
      <point x="369" y="63" type="line"/>
      <point x="425" y="94" type="line"/>
      <point x="320" y="264" type="line"/>
      <point x="425" y="436" type="line"/>
      <point x="369" y="465" type="line"/>
    </contour>
  </outline>
</glyph>
<glyph name="logicalnot" format="2">
  <advance width="430"/>
  <unicode hex="00AC"/>
  <outline>
    <contour>
      <point x="391" y="387" type="line"/>
      <point x="30" y="387" type="line"/>
      <point x="30" y="319" type="line"/>
      <point x="322" y="319" type="line"/>
      <point x="322" y="120" type="line"/>
      <point x="391" y="120" type="line"/>
    </contour>
  </outline>
</glyph>
<glyph name="registered" format="2">
  <advance width="830"/>
  <unicode hex="00AE"/>
  <outline>
    <contour>
      <point x="283" y="145" type="line"/>
      <point x="354" y="145" type="line"/>
      <point x="354" y="315" type="line"/>
      <point x="421" y="315" type="line"/>
      <point x="503" y="145" type="line"/>
      <point x="581" y="145" type="line"/>
      <point x="485" y="331" type="line"/>
      <point x="533" y="353"/>
      <point x="556" y="391"/>
      <point x="556" y="448" type="curve" smooth="yes"/>
      <point x="556" y="533"/>
      <point x="500" y="574"/>
      <point x="400" y="574" type="curve" smooth="yes"/>
      <point x="283" y="574" type="line"/>
    </contour>
    <contour>
      <point x="396" y="369" type="curve" smooth="yes"/>
      <point x="353" y="369" type="line"/>
      <point x="353" y="516" type="line"/>
      <point x="396" y="516" type="line" smooth="yes"/>
      <point x="455" y="516"/>
      <point x="482" y="494"/>
      <point x="482" y="445" type="curve" smooth="yes"/>
      <point x="482" y="393"/>
      <point x="449" y="369"/>
    </contour>
    <contour>
      <point x="415" y="-10" type="curve" smooth="yes"/>
      <point x="626" y="-10"/>
      <point x="782" y="144"/>
      <point x="782" y="357" type="curve" smooth="yes"/>
      <point x="782" y="563"/>
      <point x="632" y="724"/>
      <point x="415" y="724" type="curve" smooth="yes"/>
      <point x="211" y="724"/>
      <point x="48" y="575"/>
      <point x="48" y="357" type="curve" smooth="yes"/>
      <point x="48" y="158"/>
      <point x="189" y="-10"/>
    </contour>
    <contour>
      <point x="415" y="43" type="curve" smooth="yes"/>
      <point x="240" y="43"/>
      <point x="104" y="169"/>
      <point x="104" y="357" type="curve" smooth="yes"/>
      <point x="104" y="533"/>
      <point x="230" y="671"/>
      <point x="415" y="671" type="curve" smooth="yes"/>
      <point x="593" y="671"/>
      <point x="725" y="539"/>
      <point x="725" y="357" type="curve" smooth="yes"/>
      <point x="725" y="181"/>
      <point x="600" y="43"/>
    </contour>
  </outline>
</glyph>
<glyph name="degree" format="2">
  <advance width="365"/>
  <unicode hex="00B0"/>
  <outline>
    <contour>
      <point x="182" y="455" type="curve" smooth="yes"/>
      <point x="260" y="455"/>
      <point x="320" y="506"/>
      <point x="320" y="589" type="curve" smooth="yes"/>
      <point x="320" y="671"/>
      <point x="261" y="723"/>
      <point x="182" y="723" type="curve" smooth="yes"/>
      <point x="104" y="723"/>
      <point x="45" y="672"/>
      <point x="45" y="589" type="curve" smooth="yes"/>
      <point x="45" y="507"/>
      <point x="102" y="455"/>
    </contour>
    <contour>
      <point x="183" y="507" type="curve" smooth="yes"/>
      <point x="136" y="507"/>
      <point x="103" y="538"/>
      <point x="103" y="589" type="curve" smooth="yes"/>
      <point x="103" y="635"/>
      <point x="131" y="671"/>
      <point x="183" y="671" type="curve" smooth="yes"/>
      <point x="232" y="671"/>
      <point x="262" y="638"/>
      <point x="262" y="589" type="curve" smooth="yes"/>
      <point x="262" y="539"/>
      <point x="231" y="507"/>
    </contour>
  </outline>
</glyph>
<glyph name="plusminus" format="2">
  <advance width="430"/>
  <unicode hex="00B1"/>
  <outline>
    <contour>
      <point x="30" y="0" type="line"/>
      <point x="399" y="0" type="line"/>
      <point x="399" y="68" type="line"/>
      <point x="30" y="68" type="line"/>
    </contour>
    <component base="plus" yOffset="18"/>
  </outline>
</glyph>
<glyph name="twosuperior" format="2">
  <advance width="314"/>
  <unicode hex="00B2"/>
  <outline>
    <contour>
      <point x="271" y="415" type="line"/>
      <point x="271" y="472" type="line"/>
      <point x="99" y="472" type="line"/>
      <point x="149" y="533" type="line" smooth="yes"/>
      <point x="227" y="623"/>
      <point x="263" y="667"/>
      <point x="263" y="739" type="curve" smooth="yes"/>
      <point x="263" y="808"/>
      <point x="219" y="853"/>
      <point x="142" y="853" type="curve" smooth="yes"/>
      <point x="94" y="853"/>
      <point x="54" y="832"/>
      <point x="25" y="797" type="curve"/>
      <point x="59" y="753" type="line"/>
      <point x="84" y="781"/>
      <point x="109" y="794"/>
      <point x="136" y="794" type="curve" smooth="yes"/>
      <point x="174" y="794"/>
      <point x="195" y="770"/>
      <point x="195" y="735" type="curve" smooth="yes"/>
      <point x="195" y="682"/>
      <point x="169" y="646"/>
      <point x="114" y="579" type="curve" smooth="yes"/>
      <point x="26" y="471" type="line"/>
      <point x="26" y="415" type="line"/>
    </contour>
  </outline>
</glyph>
<glyph name="threesuperior" format="2">
  <advance width="314"/>
  <unicode hex="00B3"/>
  <outline>
    <contour>
      <point x="140" y="853" type="curve" smooth="yes"/>
      <point x="97" y="853"/>
      <point x="59" y="837"/>
      <point x="24" y="805" type="curve"/>
      <point x="56" y="759" type="line"/>
      <point x="82" y="783"/>
      <point x="106" y="794"/>
      <point x="134" y="794" type="curve" smooth="yes"/>
      <point x="174" y="794"/>
      <point x="197" y="772"/>
      <point x="197" y="735" type="curve" smooth="yes"/>
      <point x="197" y="691"/>
      <point x="169" y="663"/>
      <point x="118" y="663" type="curve" smooth="yes"/>
      <point x="86" y="663" type="line"/>
      <point x="86" y="608" type="line"/>
      <point x="120" y="608" type="line" smooth="yes"/>
      <point x="178" y="608"/>
      <point x="207" y="583"/>
      <point x="207" y="533" type="curve" smooth="yes"/>
      <point x="207" y="493"/>
      <point x="184" y="467"/>
      <point x="131" y="467" type="curve" smooth="yes"/>
      <point x="93" y="467"/>
      <point x="59" y="476"/>
      <point x="28" y="496" type="curve"/>
      <point x="28" y="431" type="line"/>
      <point x="60" y="415"/>
      <point x="94" y="407"/>
      <point x="131" y="407" type="curve" smooth="yes"/>
      <point x="215" y="407"/>
      <point x="273" y="454"/>
      <point x="273" y="529" type="curve" smooth="yes"/>
      <point x="273" y="587"/>
      <point x="246" y="622"/>
      <point x="193" y="638" type="curve"/>
      <point x="193" y="642" type="line"/>
      <point x="236" y="659"/>
      <point x="260" y="695"/>
      <point x="260" y="743" type="curve" smooth="yes"/>
      <point x="260" y="812"/>
      <point x="214" y="853"/>
    </contour>
  </outline>
</glyph>
<glyph name="acute" format="2">
  <advance width="266"/>
  <unicode hex="00B4"/>
  <outline>
    <contour>
      <point x="226" y="757" type="curve"/>
      <point x="226" y="766" type="line"/>
      <point x="129" y="766" type="line"/>
      <point x="108" y="721"/>
      <point x="78" y="671"/>
      <point x="40" y="617" type="curve"/>
      <point x="40" y="606" type="line"/>
      <point x="92" y="606" type="line"/>
      <point x="133" y="642"/>
      <point x="201" y="715"/>
    </contour>
  </outline>
</glyph>
<glyph name="micro" format="2">
  <advance width="458"/>
  <unicode hex="00B5"/>
  <outline>
    <contour>
      <point x="393" y="537" type="line"/>
      <point x="312" y="537" type="line"/>
      <point x="312" y="257" type="line" smooth="yes"/>
      <point x="312" y="129"/>
      <point x="286" y="63"/>
      <point x="212" y="63" type="curve" smooth="yes"/>
      <point x="167" y="63"/>
      <point x="146" y="108"/>
      <point x="146" y="194" type="curve" smooth="yes"/>
      <point x="146" y="537" type="line"/>
      <point x="65" y="537" type="line"/>
      <point x="65" y="-240" type="line"/>
      <point x="146" y="-240" type="line"/>
      <point x="146" y="-58" type="line" smooth="yes"/>
      <point x="146" y="-31"/>
      <point x="144" y="3"/>
      <point x="142" y="39" type="curve"/>
      <point x="145" y="39" type="line"/>
      <point x="160" y="6"/>
      <point x="183" y="-10"/>
      <point x="216" y="-10" type="curve" smooth="yes"/>
      <point x="256" y="-10"/>
      <point x="294" y="20"/>
      <point x="314" y="73" type="curve"/>
      <point x="319" y="73" type="line"/>
      <point x="328" y="0" type="line"/>
      <point x="393" y="0" type="line"/>
    </contour>
  </outline>
</glyph>
<glyph name="paragraph" format="2">
  <advance width="484"/>
  <unicode hex="00B6"/>
  <outline>
    <contour>
      <point x="401" y="-127" type="line"/>
      <point x="401" y="760" type="line"/>
      <point x="202" y="760" type="line" smooth="yes"/>
      <point x="103" y="760"/>
      <point x="61" y="675"/>
      <point x="61" y="509" type="curve" smooth="yes"/>
      <point x="61" y="344"/>
      <point x="99" y="264"/>
      <point x="181" y="264" type="curve" smooth="yes"/>
      <point x="196" y="264"/>
      <point x="208" y="267"/>
      <point x="219" y="273" type="curve"/>
      <point x="219" y="-127" type="line"/>
      <point x="277" y="-127" type="line"/>
      <point x="277" y="703" type="line"/>
      <point x="343" y="703" type="line"/>
      <point x="343" y="-127" type="line"/>
    </contour>
  </outline>
</glyph>
<glyph name="cedilla" format="2">
  <advance width="202"/>
  <unicode hex="00B8"/>
  <outline>
    <contour>
      <point x="184" y="-137" type="curve" smooth="yes"/>
      <point x="184" y="-92"/>
      <point x="155" y="-61"/>
      <point x="101" y="-50" type="curve"/>
      <point x="123" y="0" type="line"/>
      <point x="74" y="0" type="line"/>
      <point x="40" y="-79" type="line"/>
      <point x="88" y="-86"/>
      <point x="116" y="-102"/>
      <point x="116" y="-137" type="curve" smooth="yes"/>
      <point x="116" y="-166"/>
      <point x="96" y="-186"/>
      <point x="53" y="-186" type="curve" smooth="yes"/>
      <point x="38" y="-186"/>
      <point x="23" y="-184"/>
      <point x="10" y="-180" type="curve"/>
      <point x="10" y="-234" type="line"/>
      <point x="23" y="-238"/>
      <point x="42" y="-240"/>
      <point x="66" y="-240" type="curve" smooth="yes"/>
      <point x="140" y="-240"/>
      <point x="184" y="-204"/>
    </contour>
  </outline>
</glyph>
<glyph name="onesuperior" format="2">
  <advance width="314"/>
  <unicode hex="00B9"/>
  <outline>
    <contour>
      <point x="217" y="843" type="line"/>
      <point x="162" y="843" type="line"/>
      <point x="38" y="746" type="line"/>
      <point x="72" y="701" type="line"/>
      <point x="130" y="745" type="line" smooth="yes"/>
      <point x="136" y="750"/>
      <point x="145" y="758"/>
      <point x="156" y="768" type="curve"/>
      <point x="153" y="737"/>
      <point x="152" y="707"/>
      <point x="152" y="677" type="curve" smooth="yes"/>
      <point x="152" y="415" type="line"/>
      <point x="217" y="415" type="line"/>
    </contour>
  </outline>
</glyph>
<glyph name="ordmasculine" format="2">
  <advance width="314"/>
  <unicode hex="00BA"/>
  <anchor x="157" y="382" name="bottom"/>
  <anchor x="160" y="725" name="top"/>
  <outline>
    <contour>
      <point x="283" y="553" type="curve" smooth="yes"/>
      <point x="283" y="665"/>
      <point x="236" y="722"/>
      <point x="158" y="722" type="curve" smooth="yes"/>
      <point x="78" y="722"/>
      <point x="30" y="660"/>
      <point x="30" y="553" type="curve" smooth="yes"/>
      <point x="30" y="445"/>
      <point x="75" y="382"/>
      <point x="158" y="382" type="curve" smooth="yes"/>
      <point x="239" y="382"/>
      <point x="283" y="444"/>
    </contour>
    <contour>
      <point x="95" y="553" type="curve" smooth="yes"/>
      <point x="95" y="633"/>
      <point x="118" y="669"/>
      <point x="157" y="669" type="curve" smooth="yes"/>
      <point x="201" y="669"/>
      <point x="220" y="633"/>
      <point x="220" y="553" type="curve" smooth="yes"/>
      <point x="220" y="471"/>
      <point x="202" y="435"/>
      <point x="157" y="435" type="curve" smooth="yes"/>
      <point x="115" y="435"/>
      <point x="95" y="471"/>
    </contour>
  </outline>
</glyph>
<glyph name="guillemotright" format="2">
  <advance width="460"/>
  <unicode hex="00BB"/>
  <outline>
    <contour>
      <point x="426" y="257" type="line"/>
      <point x="426" y="271" type="line"/>
      <point x="281" y="465" type="line"/>
      <point x="225" y="436" type="line"/>
      <point x="330" y="264" type="line"/>
      <point x="225" y="94" type="line"/>
      <point x="281" y="63" type="line"/>
    </contour>
    <contour>
      <point x="237" y="257" type="line"/>
      <point x="237" y="271" type="line"/>
      <point x="91" y="465" type="line"/>
      <point x="36" y="436" type="line"/>
      <point x="140" y="264" type="line"/>
      <point x="36" y="94" type="line"/>
      <point x="91" y="63" type="line"/>
    </contour>
  </outline>
</glyph>
<glyph name="onequarter" format="2">
  <advance width="714"/>
  <unicode hex="00BC"/>
  <outline>
    <contour>
      <point x="154" y="0" type="line"/>
      <point x="223" y="0" type="line"/>
      <point x="590" y="714" type="line"/>
      <point x="520" y="714" type="line"/>
    </contour>
    <contour>
      <point x="141" y="549" type="curve" smooth="yes"/>
      <point x="141" y="286" type="line"/>
      <point x="206" y="286" type="line"/>
      <point x="206" y="714" type="line"/>
      <point x="151" y="714" type="line"/>
      <point x="27" y="617" type="line"/>
      <point x="61" y="573" type="line"/>
      <point x="119" y="616" type="line" smooth="yes"/>
      <point x="125" y="622"/>
      <point x="134" y="630"/>
      <point x="145" y="640" type="curve"/>
      <point x="142" y="609"/>
      <point x="141" y="579"/>
    </contour>
    <contour>
      <point x="583" y="0" type="line"/>
      <point x="646" y="0" type="line"/>
      <point x="646" y="92" type="line"/>
      <point x="697" y="92" type="line"/>
      <point x="697" y="147" type="line"/>
      <point x="646" y="147" type="line"/>
      <point x="646" y="430" type="line"/>
      <point x="581" y="430" type="line"/>
      <point x="421" y="140" type="line"/>
      <point x="421" y="92" type="line"/>
      <point x="583" y="92" type="line"/>
    </contour>
    <contour>
      <point x="483" y="147" type="line"/>
      <point x="563" y="298" type="line" smooth="yes"/>
      <point x="574" y="319"/>
      <point x="581" y="335"/>
      <point x="585" y="347" type="curve"/>
      <point x="583" y="330"/>
      <point x="583" y="303"/>
      <point x="583" y="269" type="curve" smooth="yes"/>
      <point x="583" y="147" type="line"/>
    </contour>
  </outline>
</glyph>
<glyph name="onehalf" format="2">
  <advance width="743"/>
  <unicode hex="00BD"/>
  <outline>
    <contour>
      <point x="141" y="0" type="line"/>
      <point x="210" y="0" type="line"/>
      <point x="577" y="714" type="line"/>
      <point x="507" y="714" type="line"/>
    </contour>
    <contour>
      <point x="141" y="549" type="curve" smooth="yes"/>
      <point x="141" y="286" type="line"/>
      <point x="206" y="286" type="line"/>
      <point x="206" y="714" type="line"/>
      <point x="151" y="714" type="line"/>
      <point x="27" y="617" type="line"/>
      <point x="61" y="573" type="line"/>
      <point x="119" y="616" type="line" smooth="yes"/>
      <point x="125" y="622"/>
      <point x="134" y="630"/>
      <point x="145" y="640" type="curve"/>
      <point x="142" y="609"/>
      <point x="141" y="579"/>
    </contour>
    <contour>
      <point x="455" y="0" type="line"/>
      <point x="700" y="0" type="line"/>
      <point x="700" y="58" type="line"/>
      <point x="528" y="58" type="line"/>
      <point x="597" y="139" type="line" smooth="yes"/>
      <point x="655" y="209"/>
      <point x="692" y="252"/>
      <point x="692" y="324" type="curve" smooth="yes"/>
      <point x="692" y="393"/>
      <point x="648" y="438"/>
      <point x="571" y="438" type="curve" smooth="yes"/>
      <point x="523" y="438"/>
      <point x="483" y="417"/>
      <point x="454" y="382" type="curve"/>
      <point x="488" y="338" type="line"/>
      <point x="513" y="366"/>
      <point x="538" y="379"/>
      <point x="565" y="379" type="curve" smooth="yes"/>
      <point x="603" y="379"/>
      <point x="625" y="355"/>
      <point x="625" y="319" type="curve" smooth="yes"/>
      <point x="625" y="266"/>
      <point x="599" y="230"/>
      <point x="543" y="163" type="curve" smooth="yes"/>
      <point x="455" y="57" type="line"/>
    </contour>
  </outline>
</glyph>
<glyph name="threequarters" format="2">
  <advance width="728"/>
  <unicode hex="00BE"/>
  <outline>
    <contour>
      <point x="167" y="0" type="line"/>
      <point x="236" y="0" type="line"/>
      <point x="603" y="714" type="line"/>
      <point x="533" y="714" type="line"/>
    </contour>
    <contour>
      <point x="131" y="278" type="curve" smooth="yes"/>
      <point x="215" y="278"/>
      <point x="273" y="325"/>
      <point x="273" y="401" type="curve" smooth="yes"/>
      <point x="273" y="458"/>
      <point x="246" y="494"/>
      <point x="193" y="509" type="curve"/>
      <point x="193" y="513" type="line"/>
      <point x="236" y="531"/>
      <point x="260" y="566"/>
      <point x="260" y="614" type="curve" smooth="yes"/>
      <point x="260" y="683"/>
      <point x="214" y="724"/>
      <point x="140" y="724" type="curve" smooth="yes"/>
      <point x="97" y="724"/>
      <point x="59" y="708"/>
      <point x="24" y="676" type="curve"/>
      <point x="56" y="630" type="line"/>
      <point x="82" y="654"/>
      <point x="106" y="666"/>
      <point x="134" y="666" type="curve" smooth="yes"/>
      <point x="174" y="666"/>
      <point x="197" y="644"/>
      <point x="197" y="607" type="curve" smooth="yes"/>
      <point x="197" y="563"/>
      <point x="169" y="535"/>
      <point x="118" y="535" type="curve" smooth="yes"/>
      <point x="86" y="535" type="line"/>
      <point x="86" y="480" type="line"/>
      <point x="120" y="480" type="line" smooth="yes"/>
      <point x="178" y="480"/>
      <point x="207" y="454"/>
      <point x="207" y="404" type="curve" smooth="yes"/>
      <point x="207" y="364"/>
      <point x="184" y="338"/>
      <point x="131" y="338" type="curve" smooth="yes"/>
      <point x="93" y="338"/>
      <point x="59" y="348"/>
      <point x="28" y="367" type="curve"/>
      <point x="28" y="303" type="line"/>
      <point x="60" y="286"/>
      <point x="94" y="278"/>
    </contour>
    <contour>
      <point x="597" y="0" type="line"/>
      <point x="660" y="0" type="line"/>
      <point x="660" y="92" type="line"/>
      <point x="711" y="92" type="line"/>
      <point x="711" y="147" type="line"/>
      <point x="660" y="147" type="line"/>
      <point x="660" y="430" type="line"/>
      <point x="595" y="430" type="line"/>
      <point x="435" y="140" type="line"/>
      <point x="435" y="92" type="line"/>
      <point x="597" y="92" type="line"/>
    </contour>
    <contour>
      <point x="497" y="147" type="line"/>
      <point x="577" y="298" type="line" smooth="yes"/>
      <point x="588" y="319"/>
      <point x="595" y="335"/>
      <point x="599" y="347" type="curve"/>
      <point x="597" y="330"/>
      <point x="597" y="303"/>
      <point x="597" y="269" type="curve" smooth="yes"/>
      <point x="597" y="147" type="line"/>
    </contour>
  </outline>
</glyph>
<glyph name="AE" format="2">
  <advance width="616"/>
  <unicode hex="00C6"/>
  <anchor x="308" y="0" name="bottom"/>
  <anchor x="318" y="714" name="top"/>
  <outline>
    <contour>
      <point x="570" y="0" type="line"/>
      <point x="570" y="76" type="line"/>
      <point x="370" y="76" type="line"/>
      <point x="370" y="335" type="line"/>
      <point x="557" y="335" type="line"/>
      <point x="557" y="410" type="line"/>
      <point x="370" y="410" type="line"/>
      <point x="370" y="638" type="line"/>
      <point x="570" y="638" type="line"/>
      <point x="570" y="714" type="line"/>
      <point x="213" y="714" type="line"/>
      <point x="-2" y="0" type="line"/>
      <point x="89" y="0" type="line"/>
      <point x="153" y="223" type="line"/>
      <point x="286" y="223" type="line"/>
      <point x="286" y="0" type="line"/>
    </contour>
    <contour>
      <point x="174" y="301" type="line"/>
      <point x="270" y="637" type="line"/>
      <point x="287" y="637" type="line"/>
      <point x="287" y="301" type="line"/>
    </contour>
  </outline>
</glyph>
<glyph name="Eth" format="2">
  <advance width="516"/>
  <unicode hex="00D0"/>
  <anchor x="258" y="0" name="bottom"/>
  <anchor x="258" y="714" name="top"/>
  <outline>
    <contour>
      <point x="222" y="714" type="curve" smooth="yes"/>
      <point x="72" y="714" type="line"/>
      <point x="72" y="400" type="line"/>
      <point x="21" y="400" type="line"/>
      <point x="21" y="332" type="line"/>
      <point x="72" y="332" type="line"/>
      <point x="72" y="0" type="line"/>
      <point x="216" y="0" type="line" smooth="yes"/>
      <point x="380" y="0"/>
      <point x="466" y="125"/>
      <point x="466" y="366" type="curve" smooth="yes"/>
      <point x="466" y="593"/>
      <point x="381" y="714"/>
    </contour>
    <contour>
      <point x="220" y="639" type="line"/>
      <point x="325" y="639"/>
      <point x="379" y="546"/>
      <point x="379" y="362" type="curve" smooth="yes"/>
      <point x="379" y="172"/>
      <point x="328" y="75"/>
      <point x="214" y="75" type="curve" smooth="yes"/>
      <point x="157" y="75" type="line"/>
      <point x="157" y="332" type="line"/>
      <point x="254" y="332" type="line"/>
      <point x="254" y="400" type="line"/>
      <point x="157" y="400" type="line"/>
      <point x="157" y="639" type="line"/>
    </contour>
  </outline>
</glyph>
<glyph name="multiply" format="2">
  <advance width="430"/>
  <unicode hex="00D7"/>
  <outline>
    <contour>
      <point x="351" y="537" type="line"/>
      <point x="214" y="400" type="line"/>
      <point x="78" y="535" type="line"/>
      <point x="32" y="488" type="line"/>
      <point x="167" y="353" type="line"/>
      <point x="32" y="217" type="line"/>
      <point x="78" y="170" type="line"/>
      <point x="214" y="306" type="line"/>
      <point x="350" y="171" type="line"/>
      <point x="396" y="217" type="line"/>
      <point x="262" y="353" type="line"/>
      <point x="399" y="491" type="line"/>
    </contour>
  </outline>
</glyph>
<glyph name="Oslash" format="2">
  <advance width="550"/>
  <unicode hex="00D8"/>
  <anchor x="275" y="0" name="bottom"/>
  <anchor x="278" y="714" name="top"/>
  <outline>
    <contour>
      <point x="501" y="358" type="curve" smooth="yes"/>
      <point x="501" y="473"/>
      <point x="483" y="562"/>
      <point x="445" y="624" type="curve"/>
      <point x="498" y="729" type="line"/>
      <point x="447" y="754" type="line"/>
      <point x="405" y="672" type="line"/>
      <point x="370" y="707"/>
      <point x="327" y="724"/>
      <point x="276" y="724" type="curve" smooth="yes"/>
      <point x="127" y="724"/>
      <point x="50" y="603"/>
      <point x="50" y="359" type="curve" smooth="yes"/>
      <point x="50" y="240"/>
      <point x="68" y="150"/>
      <point x="111" y="82" type="curve"/>
      <point x="58" y="-25" type="line"/>
      <point x="110" y="-48" type="line"/>
      <point x="151" y="36" type="line"/>
      <point x="184" y="6"/>
      <point x="226" y="-10"/>
      <point x="276" y="-10" type="curve" smooth="yes"/>
      <point x="423" y="-10"/>
      <point x="501" y="120"/>
    </contour>
    <contour>
      <point x="414" y="358" type="curve" smooth="yes"/>
      <point x="414" y="163"/>
      <point x="367" y="65"/>
      <point x="275" y="65" type="curve" smooth="yes"/>
      <point x="239" y="65"/>
      <point x="209" y="80"/>
      <point x="187" y="111" type="curve"/>
      <point x="396" y="527" type="line"/>
      <point x="408" y="483"/>
      <point x="414" y="425"/>
    </contour>
    <contour>
      <point x="136" y="358" type="curve" smooth="yes"/>
      <point x="136" y="549"/>
      <point x="183" y="649"/>
      <point x="276" y="649" type="curve" smooth="yes"/>
      <point x="316" y="649"/>
      <point x="346" y="632"/>
      <point x="369" y="595" type="curve"/>
      <point x="159" y="176" type="line"/>
      <point x="144" y="220"/>
      <point x="136" y="281"/>
    </contour>
  </outline>
</glyph>
<glyph name="Thorn" format="2">
  <advance width="436"/>
  <unicode hex="00DE"/>
  <anchor x="218" y="0" name="bottom"/>
  <anchor x="218" y="714" name="top"/>
  <outline>
    <contour>
      <point x="409" y="383" type="curve" smooth="yes"/>
      <point x="409" y="522"/>
      <point x="344" y="590"/>
      <point x="204" y="590" type="curve" smooth="yes"/>
      <point x="157" y="590" type="line"/>
      <point x="157" y="714" type="line"/>
      <point x="73" y="714" type="line"/>
      <point x="73" y="0" type="line"/>
      <point x="157" y="0" type="line"/>
      <point x="157" y="154" type="line"/>
      <point x="204" y="154" type="line" smooth="yes"/>
      <point x="344" y="154"/>
      <point x="409" y="239"/>
    </contour>
    <contour>
      <point x="196" y="229" type="curve" smooth="yes"/>
      <point x="157" y="229" type="line"/>
      <point x="157" y="515" type="line"/>
      <point x="203" y="515" type="line" smooth="yes"/>
      <point x="287" y="515"/>
      <point x="324" y="474"/>
      <point x="324" y="378" type="curve" smooth="yes"/>
      <point x="324" y="276"/>
      <point x="290" y="229"/>
    </contour>
  </outline>
</glyph>
<glyph name="germandbls" format="2">
  <advance width="457"/>
  <unicode hex="00DF"/>
  <anchor x="229" y="0" name="bottom"/>
  <anchor x="229" y="765" name="top"/>
  <outline>
    <contour>
      <point x="379" y="616" type="curve" smooth="yes"/>
      <point x="379" y="712"/>
      <point x="323" y="765"/>
      <point x="230" y="765" type="curve" smooth="yes"/>
      <point x="127" y="765"/>
      <point x="65" y="693"/>
      <point x="65" y="573" type="curve" smooth="yes"/>
      <point x="65" y="0" type="line"/>
      <point x="146" y="0" type="line"/>
      <point x="146" y="571" type="line" smooth="yes"/>
      <point x="146" y="651"/>
      <point x="175" y="694"/>
      <point x="228" y="694" type="curve" smooth="yes"/>
      <point x="275" y="694"/>
      <point x="298" y="665"/>
      <point x="298" y="614" type="curve" smooth="yes"/>
      <point x="298" y="522"/>
      <point x="207" y="501"/>
      <point x="207" y="409" type="curve" smooth="yes"/>
      <point x="207" y="365"/>
      <point x="223" y="321"/>
      <point x="280" y="263" type="curve" smooth="yes"/>
      <point x="326" y="217"/>
      <point x="344" y="188"/>
      <point x="344" y="146" type="curve" smooth="yes"/>
      <point x="344" y="94"/>
      <point x="320" y="63"/>
      <point x="275" y="63" type="curve" smooth="yes"/>
      <point x="239" y="63"/>
      <point x="210" y="78"/>
      <point x="184" y="96" type="curve"/>
      <point x="184" y="17" type="line"/>
      <point x="211" y="-2"/>
      <point x="248" y="-10"/>
      <point x="282" y="-10" type="curve" smooth="yes"/>
      <point x="374" y="-10"/>
      <point x="426" y="51"/>
      <point x="426" y="152" type="curve" smooth="yes"/>
      <point x="426" y="216"/>
      <point x="405" y="249"/>
      <point x="341" y="316" type="curve" smooth="yes"/>
      <point x="305" y="354"/>
      <point x="287" y="379"/>
      <point x="287" y="413" type="curve" smooth="yes"/>
      <point x="287" y="479"/>
      <point x="379" y="516"/>
    </contour>
  </outline>
</glyph>
<glyph name="ae" format="2">
  <advance width="648"/>
  <unicode hex="00E6"/>
  <anchor x="324" y="0" name="bottom"/>
  <anchor x="330" y="537" name="top"/>
  <outline>
    <contour>
      <point x="444" y="546" type="curve" smooth="yes"/>
      <point x="390" y="546"/>
      <point x="349" y="522"/>
      <point x="321" y="474" type="curve"/>
      <point x="301" y="523"/>
      <point x="264" y="547"/>
      <point x="206" y="547" type="curve" smooth="yes"/>
      <point x="153" y="547"/>
      <point x="110" y="531"/>
      <point x="73" y="508" type="curve"/>
      <point x="99" y="447" type="line"/>
      <point x="137" y="469"/>
      <point x="170" y="480"/>
      <point x="200" y="480" type="curve" smooth="yes"/>
      <point x="250" y="480"/>
      <point x="272" y="440"/>
      <point x="272" y="360" type="curve" smooth="yes"/>
      <point x="272" y="325" type="line"/>
      <point x="211" y="322" type="line" smooth="yes"/>
      <point x="98" y="317"/>
      <point x="34" y="256"/>
      <point x="34" y="150" type="curve" smooth="yes"/>
      <point x="34" y="65"/>
      <point x="72" y="-10"/>
      <point x="159" y="-10" type="curve" smooth="yes"/>
      <point x="223" y="-10"/>
      <point x="270" y="23"/>
      <point x="304" y="98" type="curve"/>
      <point x="332" y="28"/>
      <point x="392" y="-10"/>
      <point x="461" y="-10" type="curve" smooth="yes"/>
      <point x="509" y="-10"/>
      <point x="549" y="1"/>
      <point x="586" y="24" type="curve"/>
      <point x="586" y="94" type="line"/>
      <point x="547" y="70"/>
      <point x="507" y="58"/>
      <point x="468" y="58" type="curve" smooth="yes"/>
      <point x="392" y="58"/>
      <point x="354" y="122"/>
      <point x="352" y="253" type="curve"/>
      <point x="606" y="253" type="line"/>
      <point x="606" y="309" type="line" smooth="yes"/>
      <point x="606" y="442"/>
      <point x="555" y="546"/>
    </contour>
    <contour>
      <point x="225" y="263" type="curve" smooth="yes"/>
      <point x="273" y="266" type="line"/>
      <point x="273" y="212" type="line" smooth="yes"/>
      <point x="273" y="114"/>
      <point x="238" y="56"/>
      <point x="182" y="56" type="curve" smooth="yes"/>
      <point x="141" y="56"/>
      <point x="117" y="86"/>
      <point x="117" y="152" type="curve" smooth="yes"/>
      <point x="117" y="225"/>
      <point x="152" y="259"/>
    </contour>
    <contour>
      <point x="444" y="479" type="curve" smooth="yes"/>
      <point x="504" y="479"/>
      <point x="531" y="408"/>
      <point x="531" y="317" type="curve"/>
      <point x="353" y="317" type="line"/>
      <point x="358" y="427"/>
      <point x="390" y="479"/>
    </contour>
  </outline>
</glyph>
<glyph name="eth" format="2">
  <advance width="447"/>
  <unicode hex="00F0"/>
  <anchor x="224" y="0" name="bottom"/>
  <anchor x="224" y="762" name="top"/>
  <outline>
    <contour>
      <point x="159" y="762" type="curve"/>
      <point x="123" y="715" type="line"/>
      <point x="141" y="701"/>
      <point x="160" y="686"/>
      <point x="178" y="668" type="curve"/>
      <point x="106" y="621" type="line"/>
      <point x="137" y="576" type="line"/>
      <point x="214" y="626" type="line"/>
      <point x="261" y="569"/>
      <point x="293" y="504"/>
      <point x="307" y="430" type="curve"/>
      <point x="304" y="429" type="line"/>
      <point x="282" y="460"/>
      <point x="250" y="474"/>
      <point x="208" y="474" type="curve" smooth="yes"/>
      <point x="108" y="474"/>
      <point x="42" y="387"/>
      <point x="42" y="233" type="curve" smooth="yes"/>
      <point x="42" y="100"/>
      <point x="105" y="-10"/>
      <point x="222" y="-10" type="curve" smooth="yes"/>
      <point x="342" y="-10"/>
      <point x="405" y="83"/>
      <point x="405" y="259" type="curve" smooth="yes"/>
      <point x="405" y="437"/>
      <point x="359" y="568"/>
      <point x="271" y="669" type="curve"/>
      <point x="348" y="717" type="line"/>
      <point x="316" y="762" type="line"/>
      <point x="233" y="708" type="line"/>
      <point x="208" y="730"/>
      <point x="184" y="748"/>
    </contour>
    <contour>
      <point x="225" y="403" type="curve" smooth="yes"/>
      <point x="291" y="403"/>
      <point x="323" y="328"/>
      <point x="323" y="238" type="curve" smooth="yes"/>
      <point x="323" y="119"/>
      <point x="295" y="60"/>
      <point x="225" y="60" type="curve" smooth="yes"/>
      <point x="154" y="60"/>
      <point x="124" y="135"/>
      <point x="124" y="230" type="curve" smooth="yes"/>
      <point x="124" y="344"/>
      <point x="159" y="403"/>
    </contour>
  </outline>
</glyph>
<glyph name="divide" format="2">
  <advance width="430"/>
  <unicode hex="00F7"/>
  <outline>
    <contour>
      <point x="30" y="319" type="line"/>
      <point x="398" y="319" type="line"/>
      <point x="398" y="387" type="line"/>
      <point x="30" y="387" type="line"/>
    </contour>
    <contour>
      <point x="216" y="112" type="curve" smooth="yes"/>
      <point x="245" y="112"/>
      <point x="265" y="132"/>
      <point x="265" y="174" type="curve" smooth="yes"/>
      <point x="265" y="215"/>
      <point x="248" y="236"/>
      <point x="216" y="236" type="curve" smooth="yes"/>
      <point x="182" y="236"/>
      <point x="165" y="215"/>
      <point x="165" y="174" type="curve" smooth="yes"/>
      <point x="165" y="133"/>
      <point x="183" y="112"/>
    </contour>
    <contour>
      <point x="216" y="469" type="curve" smooth="yes"/>
      <point x="245" y="469"/>
      <point x="265" y="489"/>
      <point x="265" y="531" type="curve" smooth="yes"/>
      <point x="265" y="572"/>
      <point x="248" y="593"/>
      <point x="216" y="593" type="curve" smooth="yes"/>
      <point x="182" y="593"/>
      <point x="165" y="572"/>
      <point x="165" y="531" type="curve" smooth="yes"/>
      <point x="165" y="490"/>
      <point x="183" y="469"/>
    </contour>
  </outline>
</glyph>
<glyph name="oslash" format="2">
  <advance width="445"/>
  <unicode hex="00F8"/>
  <anchor x="223" y="0" name="bottom"/>
  <anchor x="223" y="537" name="top"/>
  <outline>
    <contour>
      <point x="402" y="269" type="curve" smooth="yes"/>
      <point x="402" y="353"/>
      <point x="387" y="421"/>
      <point x="356" y="470" type="curve"/>
      <point x="401" y="562" type="line"/>
      <point x="352" y="586" type="line"/>
      <point x="315" y="512" type="line"/>
      <point x="289" y="536"/>
      <point x="259" y="547"/>
      <point x="222" y="547" type="curve" smooth="yes"/>
      <point x="104" y="547"/>
      <point x="41" y="452"/>
      <point x="41" y="269" type="curve" smooth="yes"/>
      <point x="41" y="180"/>
      <point x="57" y="111"/>
      <point x="92" y="60" type="curve"/>
      <point x="41" y="-42" type="line"/>
      <point x="90" y="-66" type="line"/>
      <point x="131" y="19" type="line"/>
      <point x="155" y="0"/>
      <point x="185" y="-10"/>
      <point x="220" y="-10" type="curve" smooth="yes"/>
      <point x="337" y="-10"/>
      <point x="402" y="91"/>
    </contour>
    <contour>
      <point x="122" y="269" type="curve" smooth="yes"/>
      <point x="122" y="409"/>
      <point x="152" y="478"/>
      <point x="222" y="478" type="curve" smooth="yes"/>
      <point x="249" y="478"/>
      <point x="270" y="468"/>
      <point x="286" y="446" type="curve"/>
      <point x="136" y="144" type="line"/>
      <point x="127" y="174"/>
      <point x="122" y="216"/>
    </contour>
    <contour>
      <point x="323" y="269" type="curve" smooth="yes"/>
      <point x="323" y="129"/>
      <point x="291" y="58"/>
      <point x="221" y="58" type="curve" smooth="yes"/>
      <point x="198" y="58"/>
      <point x="178" y="67"/>
      <point x="163" y="85" type="curve"/>
      <point x="311" y="384" type="line"/>
      <point x="318" y="355"/>
      <point x="323" y="317"/>
    </contour>
  </outline>
</glyph>
<glyph name="thorn" format="2">
  <advance width="462"/>
  <unicode hex="00FE"/>
  <anchor x="231" y="-240" name="bottom"/>
  <anchor x="231" y="760" name="top"/>
  <outline>
    <contour>
      <point x="421" y="269" type="curve" smooth="yes"/>
      <point x="421" y="450"/>
      <point x="366" y="547"/>
      <point x="263" y="547" type="curve" smooth="yes"/>
      <point x="215" y="547"/>
      <point x="175" y="522"/>
      <point x="146" y="464" type="curve"/>
      <point x="143" y="464" type="line"/>
      <point x="145" y="491"/>
      <point x="146" y="517"/>
      <point x="146" y="544" type="curve"/>
      <point x="146" y="760" type="line"/>
      <point x="65" y="760" type="line"/>
      <point x="65" y="-240" type="line"/>
      <point x="147" y="-240" type="line"/>
      <point x="147" y="0" type="line" smooth="yes"/>
      <point x="147" y="20"/>
      <point x="144" y="44"/>
      <point x="142" y="72" type="curve"/>
      <point x="146" y="72" type="line"/>
      <point x="170" y="20"/>
      <point x="216" y="-10"/>
      <point x="268" y="-10" type="curve" smooth="yes"/>
      <point x="366" y="-10"/>
      <point x="421" y="92"/>
    </contour>
    <contour>
      <point x="338" y="268" type="curve" smooth="yes"/>
      <point x="338" y="156"/>
      <point x="320" y="61"/>
      <point x="246" y="61" type="curve" smooth="yes"/>
      <point x="178" y="61"/>
      <point x="146" y="124"/>
      <point x="146" y="265" type="curve" smooth="yes"/>
      <point x="146" y="285" type="line" smooth="yes"/>
      <point x="146" y="417"/>
      <point x="178" y="476"/>
      <point x="245" y="476" type="curve" smooth="yes"/>
      <point x="310" y="476"/>
      <point x="338" y="412"/>
    </contour>
  </outline>
</glyph>
<glyph name="dcroat" format="2">
  <advance width="462"/>
  <unicode hex="0111"/>
  <anchor x="231" y="0" name="bottom"/>
  <anchor x="231" y="760" name="top"/>
  <outline>
    <contour>
      <point x="199" y="-10" type="curve" smooth="yes"/>
      <point x="251" y="-10"/>
      <point x="287" y="16"/>
      <point x="316" y="69" type="curve"/>
      <point x="322" y="69" type="line"/>
      <point x="333" y="0" type="line"/>
      <point x="398" y="0" type="line"/>
      <point x="398" y="609" type="line"/>
      <point x="456" y="609" type="line"/>
      <point x="456" y="671" type="line"/>
      <point x="398" y="671" type="line"/>
      <point x="398" y="760" type="line"/>
      <point x="317" y="760" type="line"/>
      <point x="317" y="671" type="line"/>
      <point x="204" y="671" type="line"/>
      <point x="204" y="609" type="line"/>
      <point x="317" y="609" type="line"/>
      <point x="317" y="535" type="line" smooth="yes"/>
      <point x="317" y="515"/>
      <point x="318" y="490"/>
      <point x="320" y="461" type="curve"/>
      <point x="316" y="461" type="line"/>
      <point x="289" y="512"/>
      <point x="245" y="540"/>
      <point x="196" y="540" type="curve" smooth="yes"/>
      <point x="97" y="540"/>
      <point x="42" y="442"/>
      <point x="42" y="265" type="curve" smooth="yes"/>
      <point x="42" y="87"/>
      <point x="96" y="-10"/>
    </contour>
    <contour>
      <point x="218" y="59" type="curve" smooth="yes"/>
      <point x="154" y="59"/>
      <point x="125" y="129"/>
      <point x="125" y="264" type="curve" smooth="yes"/>
      <point x="125" y="397"/>
      <point x="153" y="467"/>
      <point x="216" y="467" type="curve" smooth="yes"/>
      <point x="286" y="467"/>
      <point x="317" y="406"/>
      <point x="317" y="270" type="curve" smooth="yes"/>
      <point x="317" y="250" type="line" smooth="yes"/>
      <point x="317" y="119"/>
      <point x="283" y="59"/>
    </contour>
  </outline>
</glyph>
<glyph name="eogonek" format="2">
  <advance width="418"/>
  <unicode hex="0119"/>
  <anchor x="230" y="-223" name="bottom"/>
  <anchor x="212" y="537" name="top"/>
  <outline>
    <contour>
      <point x="277" y="-117" type="curve" smooth="yes"/>
      <point x="277" y="-78"/>
      <point x="306" y="-27"/>
      <point x="358" y="24" type="curve"/>
      <point x="283" y="1" type="line"/>
      <point x="241" y="-31"/>
      <point x="210" y="-79"/>
      <point x="210" y="-129" type="curve" smooth="yes"/>
      <point x="210" y="-190"/>
      <point x="240" y="-223"/>
      <point x="304" y="-223" type="curve" smooth="yes"/>
      <point x="322" y="-223"/>
      <point x="341" y="-220"/>
      <point x="355" y="-215" type="curve"/>
      <point x="355" y="-158" type="line"/>
      <point x="347" y="-161"/>
      <point x="334" y="-164"/>
      <point x="321" y="-164" type="curve" smooth="yes"/>
      <point x="293" y="-164"/>
      <point x="277" y="-148"/>
    </contour>
    <component base="e"/>
  </outline>
</glyph>
<glyph name="Hbar" format="2">
  <advance width="533"/>
  <unicode hex="0126"/>
  <anchor x="267" y="0" name="bottom"/>
  <anchor x="267" y="714" name="top"/>
  <outline>
    <contour>
      <point x="72" y="0" type="line"/>
      <point x="156" y="0" type="line"/>
      <point x="156" y="334" type="line"/>
      <point x="376" y="334" type="line"/>
      <point x="376" y="0" type="line"/>
      <point x="460" y="0" type="line"/>
      <point x="460" y="530" type="line"/>
      <point x="534" y="530" type="line"/>
      <point x="534" y="595" type="line"/>
      <point x="460" y="595" type="line"/>
      <point x="460" y="714" type="line"/>
      <point x="376" y="714" type="line"/>
      <point x="376" y="595" type="line"/>
      <point x="156" y="595" type="line"/>
      <point x="156" y="714" type="line"/>
      <point x="72" y="714" type="line"/>
      <point x="72" y="595" type="line"/>
      <point x="-2" y="595" type="line"/>
      <point x="-2" y="530" type="line"/>
      <point x="72" y="530" type="line"/>
    </contour>
    <contour>
      <point x="157" y="412" type="line"/>
      <point x="157" y="530" type="line"/>
      <point x="377" y="530" type="line"/>
      <point x="377" y="412" type="line"/>
    </contour>
  </outline>
</glyph>
<glyph name="hbar" format="2">
  <advance width="456"/>
  <unicode hex="0127"/>
  <anchor x="228" y="0" name="bottom"/>
  <anchor x="106" y="760" name="top"/>
  <outline>
    <contour>
      <point x="146" y="760" type="line"/>
      <point x="65" y="760" type="line"/>
      <point x="65" y="669" type="line"/>
      <point x="7" y="669" type="line"/>
      <point x="7" y="606" type="line"/>
      <point x="65" y="606" type="line"/>
      <point x="65" y="0" type="line"/>
      <point x="145" y="0" type="line"/>
      <point x="145" y="272" type="line" smooth="yes"/>
      <point x="145" y="411"/>
      <point x="176" y="467"/>
      <point x="243" y="467" type="curve" smooth="yes"/>
      <point x="292" y="467"/>
      <point x="312" y="430"/>
      <point x="312" y="341" type="curve" smooth="yes"/>
      <point x="312" y="0" type="line"/>
      <point x="393" y="0" type="line"/>
      <point x="393" y="357" type="line" smooth="yes"/>
      <point x="393" y="477"/>
      <point x="352" y="540"/>
      <point x="261" y="540" type="curve" smooth="yes"/>
      <point x="211" y="540"/>
      <point x="166" y="510"/>
      <point x="146" y="458" type="curve"/>
      <point x="140" y="458" type="line"/>
      <point x="144" y="482"/>
      <point x="146" y="506"/>
      <point x="146" y="529" type="curve" smooth="yes"/>
      <point x="146" y="606" type="line"/>
      <point x="261" y="606" type="line"/>
      <point x="261" y="669" type="line"/>
      <point x="146" y="669" type="line"/>
    </contour>
  </outline>
</glyph>
<glyph name="idotless" format="2">
  <advance width="211"/>
  <unicode hex="0131"/>
  <anchor x="107" y="0" name="bottom"/>
  <anchor x="105" y="537" name="top"/>
  <outline>
    <contour>
      <point x="146" y="0" type="line"/>
      <point x="146" y="537" type="line"/>
      <point x="65" y="537" type="line"/>
      <point x="65" y="0" type="line"/>
    </contour>
  </outline>
</glyph>
<glyph name="kgreenlandic" format="2">
  <advance width="399"/>
  <unicode hex="0138"/>
  <anchor x="200" y="0" name="bottom"/>
  <anchor x="200" y="537" name="top"/>
  <outline>
    <contour>
      <point x="386" y="537" type="line"/>
      <point x="299" y="537" type="line"/>
      <point x="172" y="327" type="line" smooth="yes"/>
      <point x="164" y="312"/>
      <point x="154" y="294"/>
      <point x="145" y="276" type="curve"/>
      <point x="141" y="276" type="line"/>
      <point x="144" y="308"/>
      <point x="146" y="343"/>
      <point x="146" y="383" type="curve" smooth="yes"/>
      <point x="146" y="537" type="line"/>
      <point x="65" y="537" type="line"/>
      <point x="65" y="0" type="line"/>
      <point x="146" y="0" type="line"/>
      <point x="146" y="199" type="line"/>
      <point x="201" y="265" type="line"/>
      <point x="308" y="0" type="line"/>
      <point x="395" y="0" type="line"/>
      <point x="256" y="330" type="line"/>
    </contour>
  </outline>
</glyph>
<glyph name="Lslash" format="2">
  <advance width="379"/>
  <unicode hex="0141"/>
  <anchor x="216" y="0" name="bottom"/>
  <anchor x="115" y="714" name="top"/>
  <outline>
    <contour>
      <point x="79" y="0" type="line"/>
      <point x="359" y="0" type="line"/>
      <point x="359" y="76" type="line"/>
      <point x="163" y="76" type="line"/>
      <point x="163" y="301" type="line"/>
      <point x="310" y="397" type="line"/>
      <point x="272" y="452" type="line"/>
      <point x="163" y="383" type="line"/>
      <point x="163" y="714" type="line"/>
      <point x="79" y="714" type="line"/>
      <point x="79" y="326" type="line"/>
      <point x="-7" y="268" type="line"/>
      <point x="33" y="214" type="line"/>
      <point x="79" y="243" type="line"/>
    </contour>
  </outline>
</glyph>
<glyph name="lslash" format="2">
  <advance width="227"/>
  <unicode hex="0142"/>
  <anchor x="114" y="0" name="bottom"/>
  <anchor x="114" y="760" name="top"/>
  <outline>
    <contour>
      <point x="73" y="0" type="line"/>
      <point x="154" y="0" type="line"/>
      <point x="154" y="358" type="line"/>
      <point x="250" y="430" type="line"/>
      <point x="209" y="483" type="line"/>
      <point x="154" y="442" type="line"/>
      <point x="154" y="760" type="line"/>
      <point x="73" y="760" type="line"/>
      <point x="73" y="383" type="line"/>
      <point x="-20" y="312" type="line"/>
      <point x="19" y="259" type="line"/>
      <point x="73" y="299" type="line"/>
    </contour>
  </outline>
</glyph>
<glyph name="Eng" format="2">
  <advance width="569"/>
  <unicode hex="014A"/>
  <anchor x="285" y="-193" name="bottom"/>
  <anchor x="285" y="714" name="top"/>
  <outline>
    <contour>
      <point x="362" y="-193" type="curve" smooth="yes"/>
      <point x="453" y="-193"/>
      <point x="497" y="-128"/>
      <point x="497" y="4" type="curve" smooth="yes"/>
      <point x="497" y="714" type="line"/>
      <point x="417" y="714" type="line"/>
      <point x="417" y="320" type="line" smooth="yes"/>
      <point x="417" y="281"/>
      <point x="419" y="233"/>
      <point x="422" y="177" type="curve"/>
      <point x="419" y="177" type="line"/>
      <point x="175" y="714" type="line"/>
      <point x="73" y="714" type="line"/>
      <point x="73" y="0" type="line"/>
      <point x="153" y="0" type="line"/>
      <point x="153" y="445" type="line" smooth="yes"/>
      <point x="153" y="486"/>
      <point x="151" y="535"/>
      <point x="147" y="589" type="curve"/>
      <point x="150" y="589" type="line"/>
      <point x="417" y="1" type="line"/>
      <point x="417" y="-84"/>
      <point x="397" y="-117"/>
      <point x="354" y="-117" type="curve" smooth="yes"/>
      <point x="333" y="-117"/>
      <point x="314" y="-113"/>
      <point x="298" y="-107" type="curve"/>
      <point x="298" y="-182" type="line"/>
      <point x="317" y="-190"/>
      <point x="338" y="-193"/>
    </contour>
  </outline>
</glyph>
<glyph name="eng" format="2">
  <advance width="456"/>
  <unicode hex="014B"/>
  <anchor x="228" y="-240" name="bottom"/>
  <anchor x="228" y="537" name="top"/>
  <anchor x="418" y="537" name="topright"/>
  <outline>
    <contour>
      <point x="283" y="-240" type="curve" smooth="yes"/>
      <point x="358" y="-240"/>
      <point x="393" y="-179"/>
      <point x="393" y="-82" type="curve" smooth="yes"/>
      <point x="393" y="350" type="line" smooth="yes"/>
      <point x="393" y="470"/>
      <point x="360" y="547"/>
      <point x="262" y="547" type="curve" smooth="yes"/>
      <point x="210" y="547"/>
      <point x="166" y="516"/>
      <point x="143" y="464" type="curve"/>
      <point x="139" y="464" type="line"/>
      <point x="130" y="537" type="line"/>
      <point x="65" y="537" type="line"/>
      <point x="65" y="0" type="line"/>
      <point x="146" y="0" type="line"/>
      <point x="146" y="279" type="line" smooth="yes"/>
      <point x="146" y="420"/>
      <point x="175" y="472"/>
      <point x="241" y="472" type="curve" smooth="yes"/>
      <point x="290" y="472"/>
      <point x="312" y="430"/>
      <point x="312" y="348" type="curve" smooth="yes"/>
      <point x="312" y="-83" type="line" smooth="yes"/>
      <point x="312" y="-140"/>
      <point x="298" y="-167"/>
      <point x="270" y="-167" type="curve" smooth="yes"/>
      <point x="259" y="-167"/>
      <point x="247" y="-164"/>
      <point x="235" y="-159" type="curve"/>
      <point x="235" y="-231" type="line"/>
      <point x="250" y="-237"/>
      <point x="266" y="-240"/>
    </contour>
  </outline>
</glyph>
<glyph name="OE" format="2">
  <advance width="646"/>
  <unicode hex="0152"/>
  <anchor x="323" y="0" name="bottom"/>
  <anchor x="323" y="714" name="top"/>
  <outline>
    <contour>
      <point x="293" y="719" type="curve"/>
      <point x="131" y="719"/>
      <point x="50" y="589"/>
      <point x="50" y="359" type="curve" smooth="yes"/>
      <point x="50" y="128"/>
      <point x="127" y="-5"/>
      <point x="291" y="-5" type="curve" smooth="yes"/>
      <point x="315" y="-5"/>
      <point x="335" y="-2"/>
      <point x="355" y="0" type="curve"/>
      <point x="601" y="0" type="line"/>
      <point x="601" y="76" type="line"/>
      <point x="401" y="76" type="line"/>
      <point x="401" y="335" type="line"/>
      <point x="589" y="335" type="line"/>
      <point x="589" y="410" type="line"/>
      <point x="401" y="410" type="line"/>
      <point x="401" y="639" type="line"/>
      <point x="601" y="639" type="line"/>
      <point x="601" y="714" type="line"/>
      <point x="354" y="714" type="line"/>
      <point x="335" y="717"/>
      <point x="315" y="719"/>
    </contour>
    <contour>
      <point x="294" y="643" type="curve" smooth="yes"/>
      <point x="303" y="643"/>
      <point x="311" y="642"/>
      <point x="317" y="639" type="curve"/>
      <point x="317" y="74" type="line"/>
      <point x="312" y="73"/>
      <point x="304" y="72"/>
      <point x="296" y="72" type="curve" smooth="yes"/>
      <point x="174" y="74"/>
      <point x="138" y="184"/>
      <point x="138" y="358" type="curve" smooth="yes"/>
      <point x="138" y="529"/>
      <point x="172" y="640"/>
    </contour>
  </outline>
</glyph>
<glyph name="oe" format="2">
  <advance width="695"/>
  <unicode hex="0153"/>
  <anchor x="348" y="0" name="bottom"/>
  <anchor x="348" y="537" name="top"/>
  <outline>
    <contour>
      <point x="493" y="546" type="curve" smooth="yes"/>
      <point x="430" y="546"/>
      <point x="387" y="515"/>
      <point x="359" y="451" type="curve"/>
      <point x="330" y="515"/>
      <point x="285" y="547"/>
      <point x="223" y="547" type="curve" smooth="yes"/>
      <point x="101" y="547"/>
      <point x="42" y="448"/>
      <point x="42" y="269" type="curve" smooth="yes"/>
      <point x="42" y="95"/>
      <point x="105" y="-10"/>
      <point x="221" y="-10" type="curve" smooth="yes"/>
      <point x="286" y="-10"/>
      <point x="332" y="23"/>
      <point x="360" y="87" type="curve"/>
      <point x="391" y="23"/>
      <point x="440" y="-10"/>
      <point x="510" y="-10" type="curve" smooth="yes"/>
      <point x="556" y="-10"/>
      <point x="596" y="1"/>
      <point x="633" y="24" type="curve"/>
      <point x="633" y="94" type="line"/>
      <point x="593" y="69"/>
      <point x="556" y="58"/>
      <point x="517" y="58" type="curve" smooth="yes"/>
      <point x="439" y="58"/>
      <point x="400" y="122"/>
      <point x="399" y="253" type="curve"/>
      <point x="653" y="253" type="line"/>
      <point x="653" y="309" type="line" smooth="yes"/>
      <point x="653" y="441"/>
      <point x="604" y="546"/>
    </contour>
    <contour>
      <point x="223" y="476" type="curve" smooth="yes"/>
      <point x="289" y="476"/>
      <point x="320" y="407"/>
      <point x="320" y="269" type="curve" smooth="yes"/>
      <point x="320" y="126"/>
      <point x="290" y="60"/>
      <point x="223" y="60" type="curve" smooth="yes"/>
      <point x="158" y="60"/>
      <point x="125" y="130"/>
      <point x="125" y="269" type="curve" smooth="yes"/>
      <point x="125" y="407"/>
      <point x="154" y="476"/>
    </contour>
    <contour>
      <point x="491" y="479" type="curve" smooth="yes"/>
      <point x="551" y="479"/>
      <point x="578" y="407"/>
      <point x="578" y="317" type="curve"/>
      <point x="400" y="317" type="line"/>
      <point x="405" y="427"/>
      <point x="436" y="479"/>
    </contour>
  </outline>
</glyph>
<glyph name="tbar" format="2">
  <advance width="259"/>
  <unicode hex="0167"/>
  <anchor x="159" y="0" name="bottom"/>
  <anchor x="119" y="658" name="top"/>
  <outline>
    <contour>
      <point x="18" y="273" type="line"/>
      <point x="234" y="273" type="line"/>
      <point x="234" y="335" type="line"/>
      <point x="18" y="335" type="line"/>
    </contour>
    <component base="t"/>
  </outline>
</glyph>
<glyph name="Uogonek" format="2">
  <advance width="522"/>
  <unicode hex="0172"/>
  <anchor x="263" y="-224" name="bottom"/>
  <anchor x="261" y="714" name="top"/>
  <outline>
    <contour>
      <point x="303" y="-118" type="curve" smooth="yes"/>
      <point x="303" y="-78"/>
      <point x="320" y="-39"/>
      <point x="397" y="40" type="curve"/>
      <point x="309" y="0" type="line"/>
      <point x="269" y="-34"/>
      <point x="236" y="-81"/>
      <point x="236" y="-131" type="curve" smooth="yes"/>
      <point x="236" y="-191"/>
      <point x="266" y="-224"/>
      <point x="330" y="-224" type="curve" smooth="yes"/>
      <point x="348" y="-224"/>
      <point x="367" y="-222"/>
      <point x="381" y="-216" type="curve"/>
      <point x="381" y="-159" type="line"/>
      <point x="373" y="-162"/>
      <point x="360" y="-165"/>
      <point x="347" y="-165" type="curve" smooth="yes"/>
      <point x="319" y="-165"/>
      <point x="303" y="-150"/>
    </contour>
    <component base="U"/>
  </outline>
</glyph>
<glyph name="longs" format="2">
  <advance width="227"/>
  <unicode hex="017F"/>
  <anchor x="114" y="0" name="bottom"/>
  <anchor x="164" y="765" name="top"/>
  <outline>
    <contour>
      <point x="203" y="694" type="curve" smooth="yes"/>
      <point x="217" y="694"/>
      <point x="235" y="690"/>
      <point x="251" y="684" type="curve"/>
      <point x="272" y="749" type="line"/>
      <point x="244" y="760"/>
      <point x="220" y="765"/>
      <point x="192" y="765" type="curve" smooth="yes"/>
      <point x="98" y="765"/>
      <point x="70" y="695"/>
      <point x="70" y="571" type="curve" smooth="yes"/>
      <point x="70" y="0" type="line"/>
      <point x="151" y="0" type="line"/>
      <point x="151" y="574" type="line" smooth="yes"/>
      <point x="152" y="662"/>
      <point x="162" y="694"/>
    </contour>
  </outline>
</glyph>
<glyph name="uni0180" format="2">
  <advance width="462"/>
  <unicode hex="0180"/>
  <anchor x="231" y="0" name="bottom"/>
  <anchor x="231" y="760" name="top"/>
  <outline>
    <contour>
      <point x="266" y="-10" type="curve" smooth="yes"/>
      <point x="365" y="-10"/>
      <point x="420" y="87"/>
      <point x="420" y="266" type="curve" smooth="yes"/>
      <point x="420" y="443"/>
      <point x="365" y="539"/>
      <point x="264" y="539" type="curve" smooth="yes"/>
      <point x="215" y="539"/>
      <point x="175" y="514"/>
      <point x="147" y="460" type="curve"/>
      <point x="142" y="460" type="line"/>
      <point x="144" y="486"/>
      <point x="145" y="511"/>
      <point x="145" y="532" type="curve" smooth="yes"/>
      <point x="145" y="606" type="line"/>
      <point x="261" y="606" type="line"/>
      <point x="261" y="669" type="line"/>
      <point x="145" y="669" type="line"/>
      <point x="145" y="760" type="line"/>
      <point x="65" y="760" type="line"/>
      <point x="65" y="669" type="line"/>
      <point x="7" y="669" type="line"/>
      <point x="7" y="606" type="line"/>
      <point x="65" y="606" type="line"/>
      <point x="65" y="0" type="line"/>
      <point x="130" y="0" type="line"/>
      <point x="142" y="68" type="line"/>
      <point x="147" y="68" type="line"/>
      <point x="177" y="14"/>
      <point x="216" y="-10"/>
    </contour>
    <contour>
      <point x="247" y="60" type="curve" smooth="yes"/>
      <point x="179" y="60"/>
      <point x="146" y="120"/>
      <point x="146" y="253" type="curve" smooth="yes"/>
      <point x="146" y="268" type="line" smooth="yes"/>
      <point x="146" y="383"/>
      <point x="165" y="467"/>
      <point x="246" y="467" type="curve" smooth="yes"/>
      <point x="310" y="467"/>
      <point x="338" y="399"/>
      <point x="338" y="266" type="curve" smooth="yes"/>
      <point x="338" y="123"/>
      <point x="308" y="60"/>
    </contour>
  </outline>
</glyph>
<glyph name="uni0181" format="2">
  <advance width="553"/>
  <unicode hex="0181"/>
  <anchor x="277" y="0" name="bottom"/>
  <anchor x="277" y="714" name="top"/>
  <outline>
    <contour>
      <point x="149" y="0" type="line"/>
      <point x="332" y="0" type="line" smooth="yes"/>
      <point x="449" y="0"/>
      <point x="514" y="81"/>
      <point x="514" y="205" type="curve" smooth="yes"/>
      <point x="514" y="301"/>
      <point x="477" y="355"/>
      <point x="398" y="374" type="curve"/>
      <point x="398" y="378" type="line"/>
      <point x="464" y="393"/>
      <point x="500" y="450"/>
      <point x="500" y="542" type="curve" smooth="yes"/>
      <point x="500" y="657"/>
      <point x="433" y="714"/>
      <point x="307" y="714" type="curve" smooth="yes"/>
      <point x="139" y="714" type="line" smooth="yes"/>
      <point x="44" y="714"/>
      <point x="8" y="653"/>
      <point x="8" y="576" type="curve" smooth="yes"/>
      <point x="8" y="550"/>
      <point x="12" y="527"/>
      <point x="16" y="515" type="curve"/>
      <point x="87" y="515" type="line"/>
      <point x="84" y="524"/>
      <point x="80" y="546"/>
      <point x="80" y="571" type="curve" smooth="yes"/>
      <point x="80" y="611"/>
      <point x="95" y="642"/>
      <point x="131" y="642" type="curve" smooth="yes"/>
      <point x="149" y="642" type="line"/>
    </contour>
    <contour>
      <point x="323" y="73" type="curve" smooth="yes"/>
      <point x="233" y="73" type="line"/>
      <point x="233" y="337" type="line"/>
      <point x="313" y="337" type="line" smooth="yes"/>
      <point x="385" y="337"/>
      <point x="427" y="292"/>
      <point x="427" y="209" type="curve" smooth="yes"/>
      <point x="427" y="118"/>
      <point x="392" y="73"/>
    </contour>
    <contour>
      <point x="307" y="408" type="curve" smooth="yes"/>
      <point x="233" y="408" type="line"/>
      <point x="233" y="642" type="line"/>
      <point x="306" y="642" type="line" smooth="yes"/>
      <point x="377" y="642"/>
      <point x="414" y="604"/>
      <point x="414" y="534" type="curve" smooth="yes"/>
      <point x="414" y="450"/>
      <point x="382" y="408"/>
    </contour>
  </outline>
</glyph>
<glyph name="uni0183" format="2">
  <advance width="462"/>
  <unicode hex="0183"/>
  <anchor x="231" y="0" name="bottom"/>
  <anchor x="231" y="760" name="top"/>
  <outline>
    <contour>
      <point x="267" y="-10" type="curve" smooth="yes"/>
      <point x="366" y="-10"/>
      <point x="421" y="89"/>
      <point x="421" y="266" type="curve" smooth="yes"/>
      <point x="421" y="445"/>
      <point x="366" y="540"/>
      <point x="264" y="540" type="curve" smooth="yes"/>
      <point x="215" y="540"/>
      <point x="176" y="514"/>
      <point x="147" y="460" type="curve"/>
      <point x="143" y="460" type="line"/>
      <point x="144" y="489"/>
      <point x="146" y="516"/>
      <point x="146" y="537" type="curve" smooth="yes"/>
      <point x="146" y="691" type="line"/>
      <point x="369" y="691" type="line"/>
      <point x="369" y="760" type="line"/>
      <point x="65" y="760" type="line"/>
      <point x="65" y="0" type="line"/>
      <point x="131" y="0" type="line"/>
      <point x="142" y="68" type="line"/>
      <point x="147" y="68" type="line"/>
      <point x="177" y="14"/>
      <point x="216" y="-10"/>
    </contour>
    <contour>
      <point x="247" y="60" type="curve" smooth="yes"/>
      <point x="179" y="60"/>
      <point x="146" y="126"/>
      <point x="146" y="257" type="curve" smooth="yes"/>
      <point x="146" y="271" type="line" smooth="yes"/>
      <point x="146" y="385"/>
      <point x="165" y="468"/>
      <point x="246" y="468" type="curve" smooth="yes"/>
      <point x="310" y="468"/>
      <point x="338" y="401"/>
      <point x="338" y="267" type="curve" smooth="yes"/>
      <point x="338" y="125"/>
      <point x="308" y="60"/>
    </contour>
  </outline>
</glyph>
<glyph name="uni0184" format="2">
  <advance width="454"/>
  <unicode hex="0184"/>
  <anchor x="227" y="0" name="bottom"/>
  <anchor x="227" y="714" name="top"/>
  <outline>
    <contour>
      <point x="243" y="-4" type="curve" smooth="yes"/>
      <point x="361" y="-4"/>
      <point x="423" y="74"/>
      <point x="423" y="210" type="curve" smooth="yes"/>
      <point x="423" y="343"/>
      <point x="358" y="417"/>
      <point x="224" y="417" type="curve" smooth="yes"/>
      <point x="151" y="417" type="line"/>
      <point x="151" y="714" type="line"/>
      <point x="67" y="714" type="line"/>
      <point x="67" y="207" type="line" smooth="yes"/>
      <point x="67" y="60"/>
      <point x="132" y="-4"/>
    </contour>
    <contour>
      <point x="242" y="71" type="curve" smooth="yes"/>
      <point x="186" y="71"/>
      <point x="152" y="110"/>
      <point x="152" y="215" type="curve" smooth="yes"/>
      <point x="152" y="341" type="line"/>
      <point x="214" y="341" type="line" smooth="yes"/>
      <point x="289" y="341"/>
      <point x="337" y="313"/>
      <point x="337" y="210" type="curve" smooth="yes"/>
      <point x="337" y="112"/>
      <point x="299" y="71"/>
    </contour>
  </outline>
</glyph>
<glyph name="uni0185" format="2">
  <advance width="447"/>
  <unicode hex="0185"/>
  <anchor x="224" y="0" name="bottom"/>
  <anchor x="224" y="760" name="top"/>
  <outline>
    <contour>
      <point x="230" y="-10" type="curve" smooth="yes"/>
      <point x="339" y="-10"/>
      <point x="406" y="95"/>
      <point x="406" y="269" type="curve" smooth="yes"/>
      <point x="406" y="451"/>
      <point x="350" y="547"/>
      <point x="260" y="547" type="curve" smooth="yes"/>
      <point x="204" y="547"/>
      <point x="166" y="513"/>
      <point x="144" y="456" type="curve"/>
      <point x="140" y="456" type="line"/>
      <point x="141" y="485"/>
      <point x="144" y="536"/>
      <point x="144" y="572" type="curve" smooth="yes"/>
      <point x="144" y="760" type="line"/>
      <point x="63" y="760" type="line"/>
      <point x="63" y="262" type="line" smooth="yes"/>
      <point x="63" y="76"/>
      <point x="122" y="-10"/>
    </contour>
    <contour>
      <point x="234" y="64" type="curve" smooth="yes"/>
      <point x="171" y="64"/>
      <point x="144" y="129"/>
      <point x="144" y="261" type="curve" smooth="yes"/>
      <point x="144" y="276" type="line" smooth="yes"/>
      <point x="144" y="403"/>
      <point x="172" y="473"/>
      <point x="236" y="473" type="curve" smooth="yes"/>
      <point x="292" y="473"/>
      <point x="324" y="405"/>
      <point x="324" y="269" type="curve" smooth="yes"/>
      <point x="324" y="133"/>
      <point x="293" y="64"/>
    </contour>
  </outline>
</glyph>
<glyph name="uni0186" format="2">
  <advance width="446"/>
  <unicode hex="0186"/>
  <anchor x="183" y="0" name="bottom"/>
  <anchor x="183" y="714" name="top"/>
  <outline>
    <contour>
      <point x="158" y="-10" type="curve"/>
      <point x="304" y="-10"/>
      <point x="397" y="133"/>
      <point x="396" y="364" type="curve"/>
      <point x="396" y="569"/>
      <point x="325" y="725"/>
      <point x="163" y="725" type="curve" smooth="yes"/>
      <point x="114" y="725"/>
      <point x="65" y="713"/>
      <point x="24" y="689" type="curve"/>
      <point x="53" y="618" type="line"/>
      <point x="83" y="637"/>
      <point x="120" y="649"/>
      <point x="156" y="649" type="curve" smooth="yes"/>
      <point x="267" y="649"/>
      <point x="308" y="512"/>
      <point x="308" y="357" type="curve"/>
      <point x="309" y="176"/>
      <point x="247" y="66"/>
      <point x="148" y="66" type="curve" smooth="yes"/>
      <point x="109" y="66"/>
      <point x="74" y="77"/>
      <point x="42" y="93" type="curve"/>
      <point x="42" y="17" type="line"/>
      <point x="74" y="-1"/>
      <point x="112" y="-10"/>
    </contour>
  </outline>
</glyph>
<glyph name="uni0188" format="2">
  <advance width="347"/>
  <unicode hex="0188"/>
  <anchor x="217" y="0" name="bottom"/>
  <anchor x="208" y="767" name="top"/>
  <outline>
    <contour>
      <point x="221" y="-10" type="curve" smooth="yes"/>
      <point x="251" y="-10"/>
      <point x="292" y="0"/>
      <point x="320" y="18" type="curve"/>
      <point x="320" y="86" type="line"/>
      <point x="289" y="70"/>
      <point x="259" y="61"/>
      <point x="230" y="61" type="curve" smooth="yes"/>
      <point x="161" y="61"/>
      <point x="126" y="129"/>
      <point x="126" y="266" type="curve" smooth="yes"/>
      <point x="126" y="404"/>
      <point x="161" y="475"/>
      <point x="229" y="475" type="curve" smooth="yes"/>
      <point x="252" y="475"/>
      <point x="276" y="468"/>
      <point x="301" y="455" type="curve"/>
      <point x="327" y="522" type="line"/>
      <point x="327" y="641" type="line" smooth="yes"/>
      <point x="327" y="685"/>
      <point x="341" y="697"/>
      <point x="363" y="697" type="curve" smooth="yes"/>
      <point x="379" y="697"/>
      <point x="394" y="690"/>
      <point x="401" y="686" type="curve"/>
      <point x="401" y="754" type="line"/>
      <point x="392" y="760"/>
      <point x="375" y="767"/>
      <point x="352" y="767" type="curve" smooth="yes"/>
      <point x="296" y="767"/>
      <point x="256" y="731"/>
      <point x="256" y="646" type="curve" smooth="yes"/>
      <point x="256" y="544" type="line"/>
      <point x="246" y="546"/>
      <point x="235" y="547"/>
      <point x="223" y="547" type="curve" smooth="yes"/>
      <point x="101" y="547"/>
      <point x="43" y="441"/>
      <point x="43" y="265" type="curve" smooth="yes"/>
      <point x="43" y="82"/>
      <point x="102" y="-10"/>
    </contour>
  </outline>
</glyph>
<glyph name="uni018A" format="2">
  <advance width="592"/>
  <unicode hex="018A"/>
  <anchor x="297" y="0" name="bottom"/>
  <anchor x="297" y="714" name="top"/>
  <outline>
    <contour>
      <point x="149" y="0" type="line"/>
      <point x="293" y="0" type="line" smooth="yes"/>
      <point x="457" y="0"/>
      <point x="543" y="125"/>
      <point x="543" y="366" type="curve" smooth="yes"/>
      <point x="543" y="593"/>
      <point x="458" y="714"/>
      <point x="298" y="714" type="curve" smooth="yes"/>
      <point x="138" y="714" type="line" smooth="yes"/>
      <point x="44" y="714"/>
      <point x="8" y="650"/>
      <point x="8" y="570" type="curve" smooth="yes"/>
      <point x="8" y="548"/>
      <point x="13" y="527"/>
      <point x="17" y="515" type="curve"/>
      <point x="87" y="515" type="line"/>
      <point x="84" y="524"/>
      <point x="80" y="545"/>
      <point x="80" y="567" type="curve" smooth="yes"/>
      <point x="80" y="609"/>
      <point x="95" y="639"/>
      <point x="131" y="639" type="curve" smooth="yes"/>
      <point x="149" y="639" type="line"/>
    </contour>
    <contour>
      <point x="290" y="75" type="curve" smooth="yes"/>
      <point x="233" y="75" type="line"/>
      <point x="233" y="639" type="line"/>
      <point x="296" y="639" type="line" smooth="yes"/>
      <point x="401" y="639"/>
      <point x="455" y="546"/>
      <point x="455" y="362" type="curve" smooth="yes"/>
      <point x="455" y="172"/>
      <point x="404" y="75"/>
    </contour>
  </outline>
</glyph>
<glyph name="uni018B" format="2">
  <advance width="451"/>
  <unicode hex="018B"/>
  <anchor x="226" y="0" name="bottom"/>
  <anchor x="226" y="714" name="top"/>
  <outline>
    <contour>
      <point x="236" y="0" type="curve" smooth="yes"/>
      <point x="378" y="0" type="line"/>
      <point x="378" y="714" type="line"/>
      <point x="69" y="714" type="line"/>
      <point x="69" y="638" type="line"/>
      <point x="294" y="638" type="line"/>
      <point x="294" y="416" type="line"/>
      <point x="239" y="416" type="line" smooth="yes"/>
      <point x="101" y="416"/>
      <point x="32" y="350"/>
      <point x="32" y="211" type="curve" smooth="yes"/>
      <point x="32" y="78"/>
      <point x="107" y="0"/>
    </contour>
    <contour>
      <point x="237" y="74" type="line"/>
      <point x="159" y="74"/>
      <point x="117" y="121"/>
      <point x="117" y="210" type="curve" smooth="yes"/>
      <point x="117" y="300"/>
      <point x="155" y="342"/>
      <point x="238" y="342" type="curve" smooth="yes"/>
      <point x="294" y="342" type="line"/>
      <point x="294" y="74" type="line"/>
    </contour>
  </outline>
</glyph>
<glyph name="uni018C" format="2">
  <advance width="462"/>
  <unicode hex="018C"/>
  <anchor x="231" y="0" name="bottom"/>
  <anchor x="231" y="760" name="top"/>
  <outline>
    <contour>
      <point x="199" y="-10" type="curve" smooth="yes"/>
      <point x="251" y="-10"/>
      <point x="288" y="17"/>
      <point x="317" y="68" type="curve"/>
      <point x="322" y="68" type="line"/>
      <point x="333" y="0" type="line"/>
      <point x="398" y="0" type="line"/>
      <point x="398" y="760" type="line"/>
      <point x="91" y="760" type="line"/>
      <point x="91" y="691" type="line"/>
      <point x="317" y="691" type="line"/>
      <point x="317" y="537" type="line" smooth="yes"/>
      <point x="317" y="517"/>
      <point x="318" y="493"/>
      <point x="320" y="464" type="curve"/>
      <point x="316" y="464" type="line"/>
      <point x="289" y="514"/>
      <point x="245" y="542"/>
      <point x="196" y="542" type="curve" smooth="yes"/>
      <point x="97" y="542"/>
      <point x="42" y="443"/>
      <point x="42" y="267" type="curve" smooth="yes"/>
      <point x="42" y="86"/>
      <point x="96" y="-10"/>
    </contour>
    <contour>
      <point x="218" y="59" type="curve" smooth="yes"/>
      <point x="154" y="59"/>
      <point x="125" y="128"/>
      <point x="125" y="266" type="curve" smooth="yes"/>
      <point x="125" y="399"/>
      <point x="153" y="470"/>
      <point x="216" y="470" type="curve" smooth="yes"/>
      <point x="286" y="470"/>
      <point x="317" y="409"/>
      <point x="317" y="272" type="curve" smooth="yes"/>
      <point x="317" y="241" type="line" smooth="yes"/>
      <point x="317" y="119"/>
      <point x="283" y="59"/>
    </contour>
  </outline>
</glyph>
<glyph name="uni018E" format="2">
  <advance width="402"/>
  <unicode hex="018E"/>
  <anchor x="193" y="0" name="bottom"/>
  <anchor x="188" y="714" name="top"/>
  <anchor x="354" y="714" name="topright"/>
  <outline>
    <contour>
      <point x="45" y="0" type="line"/>
      <point x="329" y="0" type="line"/>
      <point x="329" y="714" type="line"/>
      <point x="45" y="714" type="line"/>
      <point x="45" y="639" type="line"/>
      <point x="245" y="639" type="line"/>
      <point x="245" y="410" type="line"/>
      <point x="57" y="410" type="line"/>
      <point x="57" y="335" type="line"/>
      <point x="245" y="335" type="line"/>
      <point x="245" y="76" type="line"/>
      <point x="45" y="76" type="line"/>
    </contour>
  </outline>
</glyph>
<glyph name="uni0190" format="2">
  <advance width="433"/>
  <unicode hex="0190"/>
  <anchor x="217" y="0" name="bottom"/>
  <anchor x="217" y="714" name="top"/>
  <outline>
    <contour>
      <point x="253" y="724" type="curve" smooth="yes"/>
      <point x="143" y="724"/>
      <point x="70" y="650"/>
      <point x="70" y="545" type="curve" smooth="yes"/>
      <point x="70" y="453"/>
      <point x="114" y="390"/>
      <point x="193" y="370" type="curve"/>
      <point x="193" y="366" type="line"/>
      <point x="103" y="355"/>
      <point x="56" y="292"/>
      <point x="56" y="190" type="curve" smooth="yes"/>
      <point x="56" y="65"/>
      <point x="120" y="-10"/>
      <point x="257" y="-10" type="curve" smooth="yes"/>
      <point x="312" y="-10"/>
      <point x="364" y="3"/>
      <point x="405" y="23" type="curve"/>
      <point x="405" y="104" type="line"/>
      <point x="370" y="81"/>
      <point x="315" y="66"/>
      <point x="269" y="66" type="curve" smooth="yes"/>
      <point x="183" y="66"/>
      <point x="143" y="108"/>
      <point x="143" y="198" type="curve" smooth="yes"/>
      <point x="143" y="291"/>
      <point x="190" y="333"/>
      <point x="288" y="333" type="curve" smooth="yes"/>
      <point x="341" y="333" type="line"/>
      <point x="341" y="408" type="line"/>
      <point x="290" y="408" type="line" smooth="yes"/>
      <point x="201" y="408"/>
      <point x="156" y="452"/>
      <point x="156" y="540" type="curve" smooth="yes"/>
      <point x="156" y="613"/>
      <point x="199" y="648"/>
      <point x="262" y="648" type="curve" smooth="yes"/>
      <point x="304" y="648"/>
      <point x="340" y="630"/>
      <point x="365" y="602" type="curve"/>
      <point x="406" y="665" type="line"/>
      <point x="364" y="703"/>
      <point x="319" y="724"/>
    </contour>
  </outline>
</glyph>
<glyph name="uni0191" format="2">
  <advance width="467"/>
  <unicode hex="0191"/>
  <anchor x="125" y="0" name="bottom"/>
  <anchor x="316" y="714" name="top"/>
  <anchor x="465" y="714" name="topright"/>
  <outline>
    <contour>
      <point x="125" y="-242" type="curve" smooth="yes"/>
      <point x="212" y="-242"/>
      <point x="264" y="-178"/>
      <point x="264" y="-79" type="curve" smooth="yes"/>
      <point x="264" y="335" type="line"/>
      <point x="432" y="335" type="line"/>
      <point x="432" y="411" type="line"/>
      <point x="264" y="411" type="line"/>
      <point x="264" y="639" type="line"/>
      <point x="444" y="639" type="line"/>
      <point x="444" y="714" type="line"/>
      <point x="179" y="714" type="line"/>
      <point x="179" y="-79" type="line" smooth="yes"/>
      <point x="179" y="-140"/>
      <point x="159" y="-171"/>
      <point x="120" y="-171" type="curve" smooth="yes"/>
      <point x="87" y="-171"/>
      <point x="70" y="-146"/>
      <point x="70" y="-106" type="curve" smooth="yes"/>
      <point x="70" y="-89"/>
      <point x="72" y="-79"/>
      <point x="74" y="-71" type="curve"/>
      <point x="7" y="-50" type="line"/>
      <point x="2" y="-64"/>
      <point x="-2" y="-84"/>
      <point x="-2" y="-106" type="curve" smooth="yes"/>
      <point x="-2" y="-190"/>
      <point x="45" y="-242"/>
    </contour>
  </outline>
</glyph>
<glyph name="florin" format="2">
  <advance width="348"/>
  <unicode hex="0192"/>
  <anchor x="119" y="0" name="bottom"/>
  <anchor x="283" y="765" name="top"/>
  <anchor x="362" y="765" name="topright"/>
  <outline>
    <contour>
      <point x="126" y="-242" type="curve" smooth="yes"/>
      <point x="197" y="-242"/>
      <point x="250" y="-190"/>
      <point x="250" y="-97" type="curve" smooth="yes"/>
      <point x="250" y="469" type="line"/>
      <point x="335" y="469" type="line"/>
      <point x="335" y="537" type="line"/>
      <point x="250" y="537" type="line"/>
      <point x="250" y="574" type="line"/>
      <point x="251" y="665"/>
      <point x="262" y="694"/>
      <point x="301" y="694" type="curve"/>
      <point x="316" y="694"/>
      <point x="332" y="690"/>
      <point x="350" y="684" type="curve"/>
      <point x="371" y="749" type="line"/>
      <point x="343" y="760"/>
      <point x="320" y="765"/>
      <point x="291" y="765" type="curve" smooth="yes"/>
      <point x="196" y="765"/>
      <point x="169" y="695"/>
      <point x="169" y="571" type="curve" smooth="yes"/>
      <point x="169" y="540" type="line"/>
      <point x="104" y="512" type="line"/>
      <point x="104" y="469" type="line"/>
      <point x="169" y="469" type="line"/>
      <point x="169" y="-104" type="line" smooth="yes"/>
      <point x="169" y="-146"/>
      <point x="150" y="-171"/>
      <point x="121" y="-171" type="curve" smooth="yes"/>
      <point x="88" y="-171"/>
      <point x="69" y="-150"/>
      <point x="69" y="-112" type="curve" smooth="yes"/>
      <point x="69" y="-98"/>
      <point x="71" y="-89"/>
      <point x="73" y="-83" type="curve"/>
      <point x="4" y="-68" type="line"/>
      <point x="0" y="-78"/>
      <point x="-3" y="-94"/>
      <point x="-3" y="-112" type="curve" smooth="yes"/>
      <point x="-3" y="-193"/>
      <point x="42" y="-242"/>
    </contour>
  </outline>
</glyph>
<glyph name="uni0193" format="2">
  <advance width="545"/>
  <unicode hex="0193"/>
  <anchor x="303" y="0" name="bottom"/>
  <anchor x="323" y="814" name="top"/>
  <outline>
    <contour>
      <point x="508" y="866" type="curve" smooth="yes"/>
      <point x="457" y="866"/>
      <point x="412" y="834"/>
      <point x="412" y="750" type="curve" smooth="yes"/>
      <point x="412" y="707" type="line"/>
      <point x="382" y="719"/>
      <point x="352" y="724"/>
      <point x="320" y="724" type="curve" smooth="yes"/>
      <point x="138" y="724"/>
      <point x="50" y="572"/>
      <point x="50" y="359" type="curve" smooth="yes"/>
      <point x="50" y="148"/>
      <point x="129" y="-10"/>
      <point x="304" y="-10" type="curve" smooth="yes"/>
      <point x="369" y="-10"/>
      <point x="432" y="2"/>
      <point x="491" y="25" type="curve"/>
      <point x="491" y="377" type="line"/>
      <point x="308" y="377" type="line"/>
      <point x="308" y="302" type="line"/>
      <point x="409" y="302" type="line"/>
      <point x="409" y="81" type="line"/>
      <point x="381" y="71"/>
      <point x="348" y="66"/>
      <point x="311" y="66" type="curve" smooth="yes"/>
      <point x="188" y="66"/>
      <point x="138" y="192"/>
      <point x="138" y="357" type="curve" smooth="yes"/>
      <point x="138" y="547"/>
      <point x="202" y="649"/>
      <point x="322" y="649" type="curve" smooth="yes"/>
      <point x="366" y="649"/>
      <point x="409" y="635"/>
      <point x="453" y="607" type="curve"/>
      <point x="483" y="678" type="line"/>
      <point x="483" y="738" type="line" smooth="yes"/>
      <point x="483" y="783"/>
      <point x="497" y="794"/>
      <point x="519" y="794" type="curve" smooth="yes"/>
      <point x="535" y="794"/>
      <point x="551" y="787"/>
      <point x="558" y="783" type="curve"/>
      <point x="558" y="854" type="line"/>
      <point x="548" y="860"/>
      <point x="531" y="866"/>
    </contour>
  </outline>
</glyph>
<glyph name="uni0194" format="2">
  <advance width="441"/>
  <unicode hex="0194"/>
  <anchor x="221" y="-240" name="bottom"/>
  <anchor x="221" y="714" name="top"/>
  <outline>
    <contour>
      <point x="220" y="-240" type="curve" smooth="yes"/>
      <point x="297" y="-240"/>
      <point x="329" y="-189"/>
      <point x="329" y="-102" type="curve" smooth="yes"/>
      <point x="329" y="-38"/>
      <point x="302" y="38"/>
      <point x="269" y="124" type="curve"/>
      <point x="441" y="714" type="line"/>
      <point x="353" y="714" type="line"/>
      <point x="248" y="335" type="line" smooth="yes"/>
      <point x="237" y="296"/>
      <point x="226" y="237"/>
      <point x="220" y="192" type="curve"/>
      <point x="212" y="240"/>
      <point x="200" y="304"/>
      <point x="189" y="346" type="curve" smooth="yes"/>
      <point x="88" y="714" type="line"/>
      <point x="0" y="714" type="line"/>
      <point x="171" y="122" type="line"/>
      <point x="142" y="46"/>
      <point x="113" y="-36"/>
      <point x="113" y="-103" type="curve" smooth="yes"/>
      <point x="113" y="-191"/>
      <point x="146" y="-240"/>
    </contour>
    <contour>
      <point x="222" y="-177" type="curve" smooth="yes"/>
      <point x="202" y="-177"/>
      <point x="189" y="-155"/>
      <point x="189" y="-104" type="curve" smooth="yes"/>
      <point x="189" y="-64"/>
      <point x="200" y="-11"/>
      <point x="222" y="54" type="curve"/>
      <point x="242" y="-9"/>
      <point x="254" y="-64"/>
      <point x="254" y="-107" type="curve" smooth="yes"/>
      <point x="254" y="-157"/>
      <point x="242" y="-177"/>
    </contour>
  </outline>
</glyph>
<glyph name="uni0195" format="2">
  <advance width="703"/>
  <unicode hex="0195"/>
  <anchor x="352" y="0" name="bottom"/>
  <anchor x="352" y="537" name="top"/>
  <outline>
    <contour>
      <point x="476" y="-11" type="curve" smooth="yes"/>
      <point x="584" y="-11"/>
      <point x="641" y="51"/>
      <point x="641" y="197" type="curve" smooth="yes"/>
      <point x="641" y="537" type="line"/>
      <point x="560" y="537" type="line"/>
      <point x="560" y="200" type="line" smooth="yes"/>
      <point x="560" y="95"/>
      <point x="532" y="63"/>
      <point x="477" y="63" type="curve" smooth="yes"/>
      <point x="420" y="63"/>
      <point x="393" y="99"/>
      <point x="393" y="216" type="curve" smooth="yes"/>
      <point x="393" y="364" type="line" smooth="yes"/>
      <point x="393" y="483"/>
      <point x="353" y="547"/>
      <point x="261" y="547" type="curve" smooth="yes"/>
      <point x="211" y="547"/>
      <point x="166" y="517"/>
      <point x="146" y="465" type="curve"/>
      <point x="140" y="465" type="line"/>
      <point x="144" y="489"/>
      <point x="146" y="516"/>
      <point x="146" y="545" type="curve" smooth="yes"/>
      <point x="146" y="760" type="line"/>
      <point x="65" y="760" type="line"/>
      <point x="65" y="0" type="line"/>
      <point x="146" y="0" type="line"/>
      <point x="146" y="279" type="line" smooth="yes"/>
      <point x="146" y="413"/>
      <point x="175" y="474"/>
      <point x="244" y="474" type="curve" smooth="yes"/>
      <point x="293" y="474"/>
      <point x="312" y="438"/>
      <point x="312" y="348" type="curve" smooth="yes"/>
      <point x="312" y="207" type="line" smooth="yes"/>
      <point x="312" y="34"/>
      <point x="369" y="-11"/>
    </contour>
  </outline>
</glyph>
<glyph name="uni0196" format="2">
  <advance width="257"/>
  <unicode hex="0196"/>
  <anchor x="159" y="0" name="bottom"/>
  <anchor x="112" y="714" name="top"/>
  <outline>
    <contour>
      <point x="170" y="-10" type="curve" smooth="yes"/>
      <point x="197" y="-10"/>
      <point x="225" y="-4"/>
      <point x="245" y="6" type="curve"/>
      <point x="245" y="78" type="line"/>
      <point x="235" y="72"/>
      <point x="212" y="66"/>
      <point x="194" y="66" type="curve" smooth="yes"/>
      <point x="166" y="66"/>
      <point x="155" y="84"/>
      <point x="155" y="132" type="curve" smooth="yes"/>
      <point x="155" y="714" type="line"/>
      <point x="69" y="714" type="line"/>
      <point x="69" y="128" type="line" smooth="yes"/>
      <point x="69" y="31"/>
      <point x="101" y="-10"/>
    </contour>
  </outline>
</glyph>
<glyph name="uni0197" format="2">
  <advance width="283"/>
  <unicode hex="0197"/>
  <anchor x="142" y="0" name="bottom"/>
  <anchor x="142" y="714" name="top"/>
  <outline>
    <contour>
      <point x="248" y="714" type="line"/>
      <point x="34" y="714" type="line"/>
      <point x="34" y="666" type="line"/>
      <point x="99" y="649" type="line"/>
      <point x="99" y="408" type="line"/>
      <point x="20" y="408" type="line"/>
      <point x="20" y="340" type="line"/>
      <point x="99" y="340" type="line"/>
      <point x="99" y="65" type="line"/>
      <point x="34" y="48" type="line"/>
      <point x="34" y="0" type="line"/>
      <point x="248" y="0" type="line"/>
      <point x="248" y="48" type="line"/>
      <point x="183" y="65" type="line"/>
      <point x="183" y="340" type="line"/>
      <point x="262" y="340" type="line"/>
      <point x="262" y="408" type="line"/>
      <point x="183" y="408" type="line"/>
      <point x="183" y="649" type="line"/>
      <point x="248" y="666" type="line"/>
    </contour>
  </outline>
</glyph>
<glyph name="uni0198" format="2">
  <advance width="473"/>
  <unicode hex="0198"/>
  <anchor x="227" y="0" name="bottom"/>
  <anchor x="227" y="714" name="top"/>
  <outline>
    <contour>
      <point x="415" y="722" type="curve" smooth="yes"/>
      <point x="369" y="722"/>
      <point x="344" y="701"/>
      <point x="305" y="630" type="curve" smooth="yes"/>
      <point x="211" y="459" type="line" smooth="yes"/>
      <point x="191" y="423"/>
      <point x="172" y="388"/>
      <point x="157" y="353" type="curve"/>
      <point x="157" y="714" type="line"/>
      <point x="73" y="714" type="line"/>
      <point x="73" y="0" type="line"/>
      <point x="157" y="0" type="line"/>
      <point x="157" y="270" type="line"/>
      <point x="208" y="330" type="line"/>
      <point x="357" y="0" type="line"/>
      <point x="451" y="0" type="line"/>
      <point x="265" y="398" type="line"/>
      <point x="377" y="597" type="line" smooth="yes"/>
      <point x="399" y="636"/>
      <point x="412" y="647"/>
      <point x="430" y="647" type="curve" smooth="yes"/>
      <point x="444" y="647"/>
      <point x="457" y="643"/>
      <point x="464" y="640" type="curve"/>
      <point x="464" y="713" type="line"/>
      <point x="453" y="718"/>
      <point x="435" y="722"/>
    </contour>
  </outline>
</glyph>
<glyph name="uni0199" format="2">
  <advance width="399"/>
  <unicode hex="0199"/>
  <anchor x="200" y="0" name="bottom"/>
  <anchor x="200" y="765" name="top"/>
  <outline>
    <contour>
      <point x="175" y="765" type="curve" smooth="yes"/>
      <point x="102" y="765"/>
      <point x="65" y="714"/>
      <point x="65" y="624" type="curve" smooth="yes"/>
      <point x="65" y="0" type="line"/>
      <point x="146" y="0" type="line"/>
      <point x="146" y="199" type="line"/>
      <point x="201" y="265" type="line"/>
      <point x="308" y="0" type="line"/>
      <point x="395" y="0" type="line"/>
      <point x="256" y="330" type="line"/>
      <point x="386" y="537" type="line"/>
      <point x="299" y="537" type="line"/>
      <point x="179" y="338" type="line" smooth="yes"/>
      <point x="167" y="319"/>
      <point x="156" y="298"/>
      <point x="145" y="276" type="curve"/>
      <point x="141" y="276" type="line"/>
      <point x="144" y="311"/>
      <point x="146" y="346"/>
      <point x="146" y="383" type="curve" smooth="yes"/>
      <point x="146" y="620" type="line" smooth="yes"/>
      <point x="146" y="675"/>
      <point x="157" y="692"/>
      <point x="188" y="692" type="curve" smooth="yes"/>
      <point x="199" y="692"/>
      <point x="211" y="689"/>
      <point x="223" y="684" type="curve"/>
      <point x="223" y="756" type="line"/>
      <point x="212" y="761"/>
      <point x="192" y="765"/>
    </contour>
  </outline>
</glyph>
<glyph name="uni019A" format="2">
  <advance width="217"/>
  <unicode hex="019A"/>
  <anchor x="109" y="0" name="bottom"/>
  <anchor x="109" y="760" name="top"/>
  <outline>
    <contour>
      <point x="68" y="0" type="line"/>
      <point x="148" y="0" type="line"/>
      <point x="148" y="343" type="line"/>
      <point x="209" y="343" type="line"/>
      <point x="209" y="405" type="line"/>
      <point x="148" y="405" type="line"/>
      <point x="148" y="760" type="line"/>
      <point x="68" y="760" type="line"/>
      <point x="68" y="405" type="line"/>
      <point x="7" y="405" type="line"/>
      <point x="7" y="343" type="line"/>
      <point x="68" y="343" type="line"/>
    </contour>
  </outline>
</glyph>
<glyph name="uni019B" format="2">
  <advance width="403"/>
  <unicode hex="019B"/>
  <anchor x="202" y="0" name="bottom"/>
  <anchor x="202" y="767" name="top"/>
  <outline>
    <contour>
      <point x="8" y="0" type="line"/>
      <point x="91" y="0" type="line"/>
      <point x="181" y="342" type="line" smooth="yes"/>
      <point x="186" y="362"/>
      <point x="189" y="382"/>
      <point x="192" y="402" type="curve"/>
      <point x="195" y="402" type="line"/>
      <point x="200" y="370"/>
      <point x="206" y="332"/>
      <point x="214" y="298" type="curve" smooth="yes"/>
      <point x="253" y="119" type="line" smooth="yes"/>
      <point x="274" y="31"/>
      <point x="304" y="-10"/>
      <point x="365" y="-10" type="curve" smooth="yes"/>
      <point x="381" y="-10"/>
      <point x="396" y="-8"/>
      <point x="408" y="-3" type="curve"/>
      <point x="408" y="68" type="line"/>
      <point x="400" y="65"/>
      <point x="390" y="63"/>
      <point x="379" y="63" type="curve" smooth="yes"/>
      <point x="352" y="63"/>
      <point x="339" y="83"/>
      <point x="327" y="134" type="curve" smooth="yes"/>
      <point x="220" y="608" type="line"/>
      <point x="288" y="635" type="line"/>
      <point x="266" y="689" type="line"/>
      <point x="203" y="664" type="line"/>
      <point x="182" y="732"/>
      <point x="147" y="767"/>
      <point x="88" y="767" type="curve" smooth="yes"/>
      <point x="71" y="767"/>
      <point x="56" y="764"/>
      <point x="43" y="760" type="curve"/>
      <point x="43" y="691" type="line"/>
      <point x="52" y="695"/>
      <point x="63" y="697"/>
      <point x="76" y="697" type="curve" smooth="yes"/>
      <point x="105" y="697"/>
      <point x="120" y="678"/>
      <point x="131" y="635" type="curve"/>
      <point x="63" y="608" type="line"/>
      <point x="85" y="553" type="line"/>
      <point x="146" y="578" type="line"/>
      <point x="159" y="520" type="line"/>
    </contour>
  </outline>
</glyph>
<glyph name="uni019C" format="2">
  <advance width="826"/>
  <unicode hex="019C"/>
  <anchor x="413" y="0" name="bottom"/>
  <anchor x="413" y="714" name="top"/>
  <outline>
    <contour>
      <point x="214" y="-10" type="curve" smooth="yes"/>
      <point x="268" y="-10"/>
      <point x="328" y="11"/>
      <point x="374" y="84" type="curve"/>
      <point x="378" y="84" type="line"/>
      <point x="397" y="19"/>
      <point x="442" y="-11"/>
      <point x="515" y="-10" type="curve" smooth="yes"/>
      <point x="569" y="-10"/>
      <point x="625" y="13"/>
      <point x="669" y="75" type="curve"/>
      <point x="673" y="75" type="line"/>
      <point x="685" y="0" type="line"/>
      <point x="753" y="0" type="line"/>
      <point x="753" y="714" type="line"/>
      <point x="669" y="714" type="line"/>
      <point x="669" y="205" type="line" smooth="yes"/>
      <point x="669" y="108"/>
      <point x="590" y="67"/>
      <point x="544" y="66" type="curve" smooth="yes"/>
      <point x="479" y="66"/>
      <point x="452" y="103"/>
      <point x="452" y="187" type="curve" smooth="yes"/>
      <point x="452" y="714" type="line"/>
      <point x="368" y="714" type="line"/>
      <point x="368" y="205" type="line" smooth="yes"/>
      <point x="368" y="108"/>
      <point x="288" y="67"/>
      <point x="243" y="66" type="curve" smooth="yes"/>
      <point x="178" y="66"/>
      <point x="151" y="103"/>
      <point x="151" y="187" type="curve" smooth="yes"/>
      <point x="151" y="714" type="line"/>
      <point x="67" y="714" type="line"/>
      <point x="67" y="172" type="line" smooth="yes"/>
      <point x="67" y="45"/>
      <point x="114" y="-11"/>
    </contour>
  </outline>
</glyph>
<glyph name="uni019D" format="2">
  <advance width="569"/>
  <unicode hex="019D"/>
  <anchor x="285" y="-193" name="bottom"/>
  <anchor x="285" y="714" name="top"/>
  <outline>
    <contour>
      <point x="18" y="-193" type="curve" smooth="yes"/>
      <point x="108" y="-193"/>
      <point x="152" y="-141"/>
      <point x="152" y="-11" type="curve" smooth="yes"/>
      <point x="152" y="438" type="line" smooth="yes"/>
      <point x="152" y="479"/>
      <point x="150" y="527"/>
      <point x="145" y="582" type="curve"/>
      <point x="149" y="582" type="line"/>
      <point x="395" y="0" type="line"/>
      <point x="496" y="0" type="line"/>
      <point x="496" y="714" type="line"/>
      <point x="416" y="714" type="line"/>
      <point x="416" y="286" type="line" smooth="yes"/>
      <point x="416" y="248"/>
      <point x="418" y="200"/>
      <point x="421" y="141" type="curve"/>
      <point x="417" y="141" type="line"/>
      <point x="175" y="714" type="line"/>
      <point x="72" y="714" type="line"/>
      <point x="72" y="6" type="line" smooth="yes"/>
      <point x="72" y="-84"/>
      <point x="53" y="-117"/>
      <point x="9" y="-117" type="curve" smooth="yes"/>
      <point x="-12" y="-117"/>
      <point x="-30" y="-113"/>
      <point x="-46" y="-107" type="curve"/>
      <point x="-46" y="-182" type="line"/>
      <point x="-27" y="-190"/>
      <point x="-6" y="-193"/>
    </contour>
  </outline>
</glyph>
<glyph name="Ohorn" format="2">
  <advance width="553"/>
  <unicode hex="01A0"/>
  <anchor x="276" y="0" name="bottom"/>
  <anchor x="276" y="714" name="top"/>
  <outline>
    <contour>
      <point x="501" y="358" type="curve" smooth="yes"/>
      <point x="501" y="440"/>
      <point x="492" y="508"/>
      <point x="473" y="563" type="curve"/>
      <point x="538" y="588"/>
      <point x="574" y="642"/>
      <point x="582" y="748" type="curve"/>
      <point x="575" y="760" type="line"/>
      <point x="501" y="760" type="line"/>
      <point x="500" y="694"/>
      <point x="491" y="647"/>
      <point x="446" y="623" type="curve"/>
      <point x="408" y="691"/>
      <point x="351" y="724"/>
      <point x="276" y="724" type="curve" smooth="yes"/>
      <point x="126" y="724"/>
      <point x="50" y="603"/>
      <point x="50" y="359" type="curve" smooth="yes"/>
      <point x="50" y="156"/>
      <point x="111" y="-10"/>
      <point x="276" y="-10" type="curve" smooth="yes"/>
      <point x="438" y="-10"/>
      <point x="501" y="152"/>
    </contour>
    <contour>
      <point x="137" y="358" type="curve" smooth="yes"/>
      <point x="137" y="549"/>
      <point x="183" y="648"/>
      <point x="276" y="648" type="curve" smooth="yes"/>
      <point x="366" y="648"/>
      <point x="412" y="551"/>
      <point x="412" y="358" type="curve" smooth="yes"/>
      <point x="412" y="163"/>
      <point x="365" y="67"/>
      <point x="275" y="67" type="curve" smooth="yes"/>
      <point x="185" y="67"/>
      <point x="137" y="166"/>
    </contour>
  </outline>
</glyph>
<glyph name="ohorn" format="2">
  <advance width="466"/>
  <unicode hex="01A1"/>
  <anchor x="221" y="0" name="bottom"/>
  <anchor x="223" y="537" name="top"/>
  <outline>
    <contour>
      <point x="403" y="269" type="curve" smooth="yes"/>
      <point x="403" y="328"/>
      <point x="396" y="377"/>
      <point x="381" y="418" type="curve"/>
      <point x="446" y="440"/>
      <point x="482" y="492"/>
      <point x="490" y="603" type="curve"/>
      <point x="483" y="615" type="line"/>
      <point x="409" y="615" type="line"/>
      <point x="408" y="541"/>
      <point x="395" y="490"/>
      <point x="354" y="474" type="curve"/>
      <point x="323" y="522"/>
      <point x="278" y="547"/>
      <point x="223" y="547" type="curve" smooth="yes"/>
      <point x="105" y="547"/>
      <point x="42" y="452"/>
      <point x="42" y="269" type="curve" smooth="yes"/>
      <point x="42" y="92"/>
      <point x="108" y="-10"/>
      <point x="221" y="-10" type="curve" smooth="yes"/>
      <point x="338" y="-10"/>
      <point x="403" y="91"/>
    </contour>
    <contour>
      <point x="125" y="269" type="curve" smooth="yes"/>
      <point x="125" y="407"/>
      <point x="154" y="476"/>
      <point x="223" y="476" type="curve" smooth="yes"/>
      <point x="290" y="476"/>
      <point x="321" y="407"/>
      <point x="321" y="269" type="curve" smooth="yes"/>
      <point x="321" y="130"/>
      <point x="290" y="60"/>
      <point x="223" y="60" type="curve" smooth="yes"/>
      <point x="158" y="60"/>
      <point x="125" y="130"/>
    </contour>
  </outline>
</glyph>
<glyph name="uni01A2" format="2">
  <advance width="834"/>
  <unicode hex="01A2"/>
  <anchor x="417" y="0" name="bottom"/>
  <anchor x="417" y="714" name="top"/>
  <outline>
    <contour>
      <point x="501" y="358" type="curve" smooth="yes"/>
      <point x="501" y="432"/>
      <point x="493" y="502"/>
      <point x="474" y="559" type="curve"/>
      <point x="507" y="614"/>
      <point x="552" y="647"/>
      <point x="589" y="648" type="curve" smooth="yes"/>
      <point x="654" y="648"/>
      <point x="684" y="611"/>
      <point x="684" y="527" type="curve" smooth="yes"/>
      <point x="684" y="0" type="line"/>
      <point x="768" y="0" type="line"/>
      <point x="768" y="542" type="line" smooth="yes"/>
      <point x="768" y="669"/>
      <point x="712" y="724"/>
      <point x="613" y="724" type="curve" smooth="yes"/>
      <point x="553" y="724"/>
      <point x="496" y="685"/>
      <point x="451" y="614" type="curve"/>
      <point x="414" y="682"/>
      <point x="358" y="724"/>
      <point x="276" y="724" type="curve" smooth="yes"/>
      <point x="126" y="724"/>
      <point x="50" y="603"/>
      <point x="50" y="359" type="curve" smooth="yes"/>
      <point x="50" y="156"/>
      <point x="111" y="-10"/>
      <point x="276" y="-10" type="curve" smooth="yes"/>
      <point x="438" y="-10"/>
      <point x="501" y="152"/>
    </contour>
    <contour>
      <point x="137" y="358" type="curve" smooth="yes"/>
      <point x="137" y="549"/>
      <point x="183" y="648"/>
      <point x="276" y="648" type="curve" smooth="yes"/>
      <point x="366" y="648"/>
      <point x="412" y="551"/>
      <point x="412" y="358" type="curve" smooth="yes"/>
      <point x="412" y="163"/>
      <point x="365" y="67"/>
      <point x="275" y="67" type="curve" smooth="yes"/>
      <point x="185" y="67"/>
      <point x="137" y="166"/>
    </contour>
  </outline>
</glyph>
